<?xml version="1.0" encoding="UTF-8"?>
<svg fill="none" viewBox="0 0 52 13" xmlns="http://www.w3.org/2000/svg">
<path d="m6.49 0.256h2.322l5.544 12.744h-3.168l-1.098-2.7h-4.95l-1.062 2.7h-3.096l5.508-12.744zm1.08 3.708-1.548 3.96h3.114l-1.566-3.96zm15.988-3.708h4.932c0.648 0 1.26 0.066 1.836 0.198 0.588 0.12 1.098 0.33 1.53 0.63 0.444 0.288 0.792 0.684 1.044 1.188 0.264 0.492 0.396 1.11 0.396 1.854 0 0.9-0.234 1.668-0.702 2.304-0.468 0.624-1.152 1.02-2.052 1.188l3.24 5.382h-3.366l-2.664-5.094h-1.386v5.094h-2.808v-12.744zm2.808 5.274h1.656c0.252 0 0.516-6e-3 0.792-0.018 0.288-0.024 0.546-0.078 0.774-0.162 0.228-0.096 0.414-0.24 0.558-0.432 0.156-0.192 0.234-0.462 0.234-0.81 0-0.324-0.066-0.582-0.198-0.774s-0.3-0.336-0.504-0.432c-0.204-0.108-0.438-0.18-0.702-0.216s-0.522-0.054-0.774-0.054h-1.836v2.898zm16.892-5.274h2.808v10.152h5.202v2.592h-8.01v-12.744z" fill="#FFDA00"/>
</svg>
