<svg xmlns="http://www.w3.org/2000/svg" xmlns:xlink="http://www.w3.org/1999/xlink" style="margin:auto;background:#2a2a2a;display:block;z-index:1;position:relative" width="2466" height="1668" preserveAspectRatio="xMidYMid" viewBox="0 0 2466 1668">
<g transform="translate(1233,834) scale(1,1) translate(-1233,-834)"><path id="path0" d="M 1871.6765066980001 71.45034690068744
c 0 32.282663524761055 -7.89894958584579 9.27267994860158 -17.17162953444737 9.27267994860158
S 1837.3332476291052 103.7330104254485 1837.3332476291052 71.45034690068744
s 7.89894958584579 -9.27267994860158 17.17162953444737 -9.27267994860158
S 1871.6765066980001 39.16768337592638 1871.6765066980001 71.45034690068744
z" fill="none" stroke="none"></path>
<circle cx="0" cy="0" r="6.9579243155142505" fill="#727272">
  <animateMotion begin="-1.8920603876982949s" dur="1.99s" repeatCount="indefinite">
    <mpath xlink:href="#path0"></mpath>
  </animateMotion>
</circle><path id="path1" d="M 1571.199950642139 1008.4854422458745
c 0 19.045957811209558 -4.660181166572551 5.470647456411256 -10.130828622983808 5.470647456411256
S 1550.9382933961715 1027.531400057084 1550.9382933961715 1008.4854422458745
s 4.660181166572551 -5.470647456411256 10.130828622983808 -5.470647456411256
S 1571.199950642139 989.439484434665 1571.199950642139 1008.4854422458745
z" fill="none" stroke="none"></path>
<circle cx="0" cy="0" r="6.9226483944762185" fill="#f2f2f2">
  <animateMotion begin="-0.23002645909268057s" dur="1.99s" repeatCount="indefinite">
    <mpath xlink:href="#path1"></mpath>
  </animateMotion>
</circle><path id="path2" d="M 789.4482075107421 700.5213490777072
c 0 23.480404117532842 -5.745205262800588 6.744371395461561 -12.489576658262148 6.744371395461561
S 764.4690541942177 724.0017531952401 764.4690541942177 700.5213490777072
s 5.745205262800588 -6.744371395461561 12.489576658262148 -6.744371395461561
S 789.4482075107421 677.0409449601743 789.4482075107421 700.5213490777072
z" fill="none" stroke="none"></path>
<circle cx="0" cy="0" r="6.671442321291147" fill="#727272">
  <animateMotion begin="-1.5465817061448826s" dur="1.99s" repeatCount="indefinite">
    <mpath xlink:href="#path2"></mpath>
  </animateMotion>
</circle><path id="path3" d="M 320.3712488549406 656.7953249935282
c 0 19.26787131895839 -4.714479152511095 5.534388570339113 -10.248867722850207 5.534388570339113
S 299.87351340924016 676.0631963124866 299.87351340924016 656.7953249935282
s 4.714479152511095 -5.534388570339113 10.248867722850207 -5.534388570339113
S 320.3712488549406 637.5274536745698 320.3712488549406 656.7953249935282
z" fill="none" stroke="none"></path>
<circle cx="0" cy="0" r="5.621509295939138" fill="#727272">
  <animateMotion begin="-1.6169883158293417s" dur="1.99s" repeatCount="indefinite">
    <mpath xlink:href="#path3"></mpath>
  </animateMotion>
</circle><path id="path4" d="M 1676.216150495997 592.3832692352792
c 0 31.548522492422766 -7.719319333252378 9.06180965207888 -16.781128985331257 9.06180965207888
S 1642.6538925253346 623.9317917277019 1642.6538925253346 592.3832692352792
s 7.719319333252378 -9.06180965207888 16.781128985331257 -9.06180965207888
S 1676.216150495997 560.8347467428564 1676.216150495997 592.3832692352792
z" fill="none" stroke="none"></path>
<circle cx="0" cy="0" r="5.097579441559856" fill="#f2f2f2">
  <animateMotion begin="-1.767424641613602s" dur="1.99s" repeatCount="indefinite">
    <mpath xlink:href="#path4"></mpath>
  </animateMotion>
</circle><path id="path5" d="M 136.17429214909055 198.87262138864054
c 0 36.90615013319039 -9.030228224078497 10.60070269783128 -19.63093092190978 10.60070269783128
S 96.912430305271 235.77877152183092 96.912430305271 198.87262138864054
s 9.030228224078497 -10.60070269783128 19.63093092190978 -10.60070269783128
S 136.17429214909055 161.96647125545016 136.17429214909055 198.87262138864054
z" fill="none" stroke="none"></path>
<circle cx="0" cy="0" r="4.931372364226908" fill="#f2f2f2">
  <animateMotion begin="-1.3325822426160816s" dur="1.99s" repeatCount="indefinite">
    <mpath xlink:href="#path5"></mpath>
  </animateMotion>
</circle><path id="path6" d="M 807.8610291023806 1063.0428905114914
c 0 29.1731554353777 -7.138112500145607 8.379523369736148 -15.517635869881756 8.379523369736148
S 776.8257573626172 1092.2160459468691 776.8257573626172 1063.0428905114914
s 7.138112500145607 -8.379523369736148 15.517635869881756 -8.379523369736148
S 807.8610291023806 1033.8697350761136 807.8610291023806 1063.0428905114914
z" fill="none" stroke="none"></path>
<circle cx="0" cy="0" r="5.825284954315064" fill="#f2f2f2">
  <animateMotion begin="-1.1722697228905605s" dur="1.99s" repeatCount="indefinite">
    <mpath xlink:href="#path6"></mpath>
  </animateMotion>
</circle><path id="path7" d="M 2056.1380631058414 382.7935660868233
c 0 37.41240678825975 -9.154099533297597 10.746116843436312 -19.90021637673391 10.746116843436312
S 2016.3376303523737 420.2059728750831 2016.3376303523737 382.7935660868233
s 9.154099533297597 -10.746116843436312 19.90021637673391 -10.746116843436312
S 2056.1380631058414 345.38115929856355 2056.1380631058414 382.7935660868233
z" fill="none" stroke="none"></path>
<circle cx="0" cy="0" r="5.921496235569676" fill="#727272">
  <animateMotion begin="-0.3444305047305444s" dur="1.99s" repeatCount="indefinite">
    <mpath xlink:href="#path7"></mpath>
  </animateMotion>
</circle><path id="path8" d="M 2410.488889461237 596.5777173908889
c 0 26.92666556083948 -6.588439445737319 7.734255001517723 -14.322694447255042 7.734255001517723
S 2381.843500566727 623.5043829517284 2381.843500566727 596.5777173908889
s 6.588439445737319 -7.734255001517723 14.322694447255042 -7.734255001517723
S 2410.488889461237 569.6510518300494 2410.488889461237 596.5777173908889
z" fill="none" stroke="none"></path>
<circle cx="0" cy="0" r="4.6360532326931825" fill="#f2f2f2">
  <animateMotion begin="-1.9769006998766732s" dur="1.99s" repeatCount="indefinite">
    <mpath xlink:href="#path8"></mpath>
  </animateMotion>
</circle><path id="path9" d="M 2455.357905262261 1531.3137559537704
c 0 36.637288648159846 -8.96444296710294 10.523476526599106 -19.487919493702044 10.523476526599106
S 2416.3820662748567 1567.9510446019303 2416.3820662748567 1531.3137559537704
s 8.96444296710294 -10.523476526599106 19.487919493702044 -10.523476526599106
S 2455.357905262261 1494.6764673056105 2455.357905262261 1531.3137559537704
z" fill="none" stroke="none"></path>
<circle cx="0" cy="0" r="5.417748172341052" fill="#727272">
  <animateMotion begin="-1.1729973192798173s" dur="1.99s" repeatCount="indefinite">
    <mpath xlink:href="#path9"></mpath>
  </animateMotion>
</circle><path id="path10" d="M 1633.3704835976287 218.72578826777675
c 0 22.340358712501992 -5.466257982846232 6.41691154508036 -11.883169527926592 6.41691154508036
S 1609.6041445417754 241.06614698027875 1609.6041445417754 218.72578826777675
s 5.466257982846232 -6.41691154508036 11.883169527926592 -6.41691154508036
S 1633.3704835976287 196.38542955527475 1633.3704835976287 218.72578826777675
z" fill="none" stroke="none"></path>
<circle cx="0" cy="0" r="6.037794056110607" fill="#f2f2f2">
  <animateMotion begin="-0.8820816095517218s" dur="1.99s" repeatCount="indefinite">
    <mpath xlink:href="#path10"></mpath>
  </animateMotion>
</circle><path id="path11" d="M 882.7564156346157 840.5485664237877
c 0 26.12629833958152 -6.392604912876329 7.504362289028735 -13.896967201905063 7.504362289028735
S 854.9624812308055 866.6748647633692 854.9624812308055 840.5485664237877
s 6.392604912876329 -7.504362289028735 13.896967201905063 -7.504362289028735
S 882.7564156346157 814.4222680842063 882.7564156346157 840.5485664237877
z" fill="none" stroke="none"></path>
<circle cx="0" cy="0" r="6.367382766682299" fill="#f2f2f2">
  <animateMotion begin="-0.28088849463850823s" dur="1.99s" repeatCount="indefinite">
    <mpath xlink:href="#path11"></mpath>
  </animateMotion>
</circle><path id="path12" d="M 2150.7731539603883 75.12333504537052
c 0 24.01870527280872 -5.876917247602133 6.8989898124025055 -12.775907060004638 6.8989898124025055
S 2125.221339840379 99.14204031817924 2125.221339840379 75.12333504537052
s 5.876917247602133 -6.8989898124025055 12.775907060004638 -6.8989898124025055
S 2150.7731539603883 51.10462977256181 2150.7731539603883 75.12333504537052
z" fill="none" stroke="none"></path>
<circle cx="0" cy="0" r="6.275819503172011" fill="#f2f2f2">
  <animateMotion begin="-1.8547802452234103s" dur="1.99s" repeatCount="indefinite">
    <mpath xlink:href="#path12"></mpath>
  </animateMotion>
</circle><path id="path13" d="M 2114.7818872575576 246.17566695428692
c 0 27.240071032903234 -6.66512376336994 7.824275722216887 -14.489399485586826 7.824275722216887
S 2085.8030882863836 273.41573798719014 2085.8030882863836 246.17566695428692
s 6.66512376336994 -7.824275722216887 14.489399485586826 -7.824275722216887
S 2114.7818872575576 218.93559592138368 2114.7818872575576 246.17566695428692
z" fill="none" stroke="none"></path>
<circle cx="0" cy="0" r="4.7706416428644385" fill="#f2f2f2">
  <animateMotion begin="-0.12860900319127733s" dur="1.99s" repeatCount="indefinite">
    <mpath xlink:href="#path13"></mpath>
  </animateMotion>
</circle><path id="path14" d="M 496.7646872370971 1103.634743143238
c 0 19.41045721038505 -4.749367189775065 5.5753440923446425 -10.324711282119708 5.5753440923446425
S 476.1152646728577 1123.045200353623 476.1152646728577 1103.634743143238
s 4.749367189775065 -5.5753440923446425 10.324711282119708 -5.5753440923446425
S 496.7646872370971 1084.224285932853 496.7646872370971 1103.634743143238
z" fill="none" stroke="none"></path>
<circle cx="0" cy="0" r="3.677774905209108" fill="#727272">
  <animateMotion begin="-0.6060899108496641s" dur="1.99s" repeatCount="indefinite">
    <mpath xlink:href="#path14"></mpath>
  </animateMotion>
</circle><path id="path15" d="M 1749.8159312332025 168.5481435290654
c 0 31.751604875425176 -7.769009703561479 9.120141825919998 -16.889151529481477 9.120141825919998
S 1716.0376281742394 200.2997484044906 1716.0376281742394 168.5481435290654
s 7.769009703561479 -9.120141825919998 16.889151529481477 -9.120141825919998
S 1749.8159312332025 136.79653865364023 1749.8159312332025 168.5481435290654
z" fill="none" stroke="none"></path>
<circle cx="0" cy="0" r="4.274726466936765" fill="#727272">
  <animateMotion begin="-0.10065772019646248s" dur="1.99s" repeatCount="indefinite">
    <mpath xlink:href="#path15"></mpath>
  </animateMotion>
</circle><path id="path16" d="M 1149.5796552028787 368.7661124951822
c 0 33.39476546000665 -8.171059633831414 9.592113483193401 -17.763173117024817 9.592113483193401
S 1114.0533089688292 402.1608779551889 1114.0533089688292 368.7661124951822
s 8.171059633831414 -9.592113483193401 17.763173117024817 -9.592113483193401
S 1149.5796552028787 335.3713470351755 1149.5796552028787 368.7661124951822
z" fill="none" stroke="none"></path>
<circle cx="0" cy="0" r="5.10388071532228" fill="#727272">
  <animateMotion begin="-1.8509156857751894s" dur="1.99s" repeatCount="indefinite">
    <mpath xlink:href="#path16"></mpath>
  </animateMotion>
</circle><path id="path17" d="M 1491.1877320315741 469.9823326405334
c 0 21.738768325236137 -5.319060334898204 6.244114306184848 -11.563174641083052 6.244114306184848
S 1468.0613827494078 491.72110096576955 1468.0613827494078 469.9823326405334
s 5.319060334898204 -6.244114306184848 11.563174641083052 -6.244114306184848
S 1491.1877320315741 448.24356431529725 1491.1877320315741 469.9823326405334
z" fill="none" stroke="none"></path>
<circle cx="0" cy="0" r="5.688810453227781" fill="#f2f2f2">
  <animateMotion begin="-1.459954518277899s" dur="1.99s" repeatCount="indefinite">
    <mpath xlink:href="#path17"></mpath>
  </animateMotion>
</circle><path id="path18" d="M 484.2577532518787 462.2384483110142
c 0 31.85881879318231 -7.795242896204181 9.150937312935344 -16.946180209139527 9.150937312935344
S 450.3653928335996 494.09726710419653 450.3653928335996 462.2384483110142
s 7.795242896204181 -9.150937312935344 16.946180209139527 -9.150937312935344
S 484.2577532518787 430.3796295178319 484.2577532518787 462.2384483110142
z" fill="none" stroke="none"></path>
<circle cx="0" cy="0" r="4.615899629564465" fill="#f2f2f2">
  <animateMotion begin="-1.3534439651079997s" dur="1.99s" repeatCount="indefinite">
    <mpath xlink:href="#path18"></mpath>
  </animateMotion>
</circle><path id="path19" d="M 796.5604765523585 72.57960989362567
c 0 32.40446998909926 -7.928753295205138 9.307666911762555 -17.236420206967694 9.307666911762555
S 762.087636138423 104.98407988272493 762.087636138423 72.57960989362567
s 7.928753295205138 -9.307666911762555 17.236420206967694 -9.307666911762555
S 796.5604765523585 40.17513990452641 796.5604765523585 72.57960989362567
z" fill="none" stroke="none"></path>
<circle cx="0" cy="0" r="4.276303955178945" fill="#f2f2f2">
  <animateMotion begin="-1.7922953839812337s" dur="1.99s" repeatCount="indefinite">
    <mpath xlink:href="#path19"></mpath>
  </animateMotion>
</circle><path id="path20" d="M 849.5897463107493 717.2007801455924
c 0 31.101343964570045 -7.609903310479903 8.933364755780758 -16.543268066260662 8.933364755780758
S 816.503210178228 748.3021241101624 816.503210178228 717.2007801455924
s 7.609903310479903 -8.933364755780758 16.543268066260662 -8.933364755780758
S 849.5897463107493 686.0994361810224 849.5897463107493 717.2007801455924
z" fill="none" stroke="none"></path>
<circle cx="0" cy="0" r="5.098280352575538" fill="#727272">
  <animateMotion begin="-0.18240158895304825s" dur="1.99s" repeatCount="indefinite">
    <mpath xlink:href="#path20"></mpath>
  </animateMotion>
</circle><path id="path21" d="M 1062.1685457680421 1508.7458281497175
c 0 31.678761474012315 -7.751186318109395 9.099218721258858 -16.85040503936825 9.099218721258858
S 1028.4677356893055 1540.4245896237298 1028.4677356893055 1508.7458281497175
s 7.751186318109395 -9.099218721258858 16.85040503936825 -9.099218721258858
S 1062.1685457680421 1477.067066675705 1062.1685457680421 1508.7458281497175
z" fill="none" stroke="none"></path>
<circle cx="0" cy="0" r="5.0789006416666895" fill="#727272">
  <animateMotion begin="-0.7555886332308923s" dur="1.99s" repeatCount="indefinite">
    <mpath xlink:href="#path21"></mpath>
  </animateMotion>
</circle><path id="path22" d="M 2035.913077691043 1569.3027483430542
c 0 25.908815647720868 -6.339391062740211 7.441893856260249 -13.781284919000461 7.441893856260249
S 2008.3505078530422 1595.211563990775 2008.3505078530422 1569.3027483430542
s 6.339391062740211 -7.441893856260249 13.781284919000461 -7.441893856260249
S 2035.913077691043 1543.3939326953334 2035.913077691043 1569.3027483430542
z" fill="none" stroke="none"></path>
<circle cx="0" cy="0" r="4.673034381128851" fill="#f2f2f2">
  <animateMotion begin="-1.9264526775445754s" dur="1.99s" repeatCount="indefinite">
    <mpath xlink:href="#path22"></mpath>
  </animateMotion>
</circle><path id="path23" d="M 967.6979731604688 1012.1994961662785
c 0 20.805819425705035 -5.09078560416187 5.976139622276978 -11.066925226438848 5.976139622276978
S 945.5641227075912 1033.0053155919836 945.5641227075912 1012.1994961662785
s 5.09078560416187 -5.976139622276978 11.066925226438848 -5.976139622276978
S 967.6979731604688 991.3936767405735 967.6979731604688 1012.1994961662785
z" fill="none" stroke="none"></path>
<circle cx="0" cy="0" r="4.994351279391277" fill="#727272">
  <animateMotion begin="-0.8709828642391639s" dur="1.99s" repeatCount="indefinite">
    <mpath xlink:href="#path23"></mpath>
  </animateMotion>
</circle><path id="path24" d="M 1488.203653744801 566.5172919834163
c 0 19.672899283792653 -4.813581739651394 5.650726390025549 -10.464308129676942 5.650726390025549
S 1467.275037485447 586.1901912672089 1467.275037485447 566.5172919834163
s 4.813581739651394 -5.650726390025549 10.464308129676942 -5.650726390025549
S 1488.203653744801 546.8443926996237 1488.203653744801 566.5172919834163
z" fill="none" stroke="none"></path>
<circle cx="0" cy="0" r="6.9702080117389436" fill="#727272">
  <animateMotion begin="-0.37896409257561237s" dur="1.99s" repeatCount="indefinite">
    <mpath xlink:href="#path24"></mpath>
  </animateMotion>
</circle><path id="path25" d="M 666.5358394894462 9.294562144966049
c 0 36.92479989196323 -9.034791462927172 10.606059543436247 -19.64085100636342 10.606059543436247
S 627.2541374767194 46.21936203692928 627.2541374767194 9.294562144966049
s 9.034791462927172 -10.606059543436247 19.64085100636342 -10.606059543436247
S 666.5358394894462 -27.63023774699718 666.5358394894462 9.294562144966049
z" fill="none" stroke="none"></path>
<circle cx="0" cy="0" r="6.7471701335262315" fill="#f2f2f2">
  <animateMotion begin="-0.0913597835370627s" dur="1.99s" repeatCount="indefinite">
    <mpath xlink:href="#path25"></mpath>
  </animateMotion>
</circle><path id="path26" d="M 898.9611439353973 721.2835089925923
c 0 36.44674053191257 -8.917819491850945 10.468744620868502 -19.386564112719448 10.468744620868502
S 860.1880157099583 757.7302495245049 860.1880157099583 721.2835089925923
s 8.917819491850945 -10.468744620868502 19.386564112719448 -10.468744620868502
S 898.9611439353973 684.8367684606797 898.9611439353973 721.2835089925923
z" fill="none" stroke="none"></path>
<circle cx="0" cy="0" r="6.375679613575842" fill="#727272">
  <animateMotion begin="-1.1960937308665873s" dur="1.99s" repeatCount="indefinite">
    <mpath xlink:href="#path26"></mpath>
  </animateMotion>
</circle><path id="path27" d="M 790.1101552539589 807.9176472344909
c 0 33.484415884509716 -8.192995375997057 9.617864137040025 -17.810859513037084 9.617864137040025
S 754.4884362278848 841.4020631190007 754.4884362278848 807.9176472344909
s 8.192995375997057 -9.617864137040025 17.810859513037084 -9.617864137040025
S 790.1101552539589 774.4332313499812 790.1101552539589 807.9176472344909
z" fill="none" stroke="none"></path>
<circle cx="0" cy="0" r="6.000787171182312" fill="#727272">
  <animateMotion begin="-1.1841636108813878s" dur="1.99s" repeatCount="indefinite">
    <mpath xlink:href="#path27"></mpath>
  </animateMotion>
</circle><path id="path28" d="M 280.72621191928073 215.99289951618056
c 0 31.031924930517953 -7.592917802148009 8.913425245999838 -16.506343048147848 8.913425245999838
S 247.71352582298502 247.02482444669852 247.71352582298502 215.99289951618056
s 7.592917802148009 -8.913425245999838 16.506343048147848 -8.913425245999838
S 280.72621191928073 184.9609745856626 280.72621191928073 215.99289951618056
z" fill="none" stroke="none"></path>
<circle cx="0" cy="0" r="5.554920538816253" fill="#727272">
  <animateMotion begin="-0.5301756932551046s" dur="1.99s" repeatCount="indefinite">
    <mpath xlink:href="#path28"></mpath>
  </animateMotion>
</circle><path id="path29" d="M 1337.4557144427906 1324.8014980247865
c 0 33.08109059843982 -8.094309401745914 9.502015384658247 -17.59632478640416 9.502015384658247
S 1302.2630648699821 1357.8825886232264 1302.2630648699821 1324.8014980247865
s 8.094309401745914 -9.502015384658247 17.59632478640416 -9.502015384658247
S 1337.4557144427906 1291.7204074263466 1337.4557144427906 1324.8014980247865
z" fill="none" stroke="none"></path>
<circle cx="0" cy="0" r="4.191974837639139" fill="#727272">
  <animateMotion begin="-1.6234107253871555s" dur="1.99s" repeatCount="indefinite">
    <mpath xlink:href="#path29"></mpath>
  </animateMotion>
</circle><path id="path30" d="M 573.7733171808263 1105.93001054458
c 0 25.900582327935556 -6.337376527048061 7.439528966534682 -13.776905493582742 7.439528966534682
S 546.2195061936609 1131.8305928725156 546.2195061936609 1105.93001054458
s 6.337376527048061 -7.439528966534682 13.776905493582742 -7.439528966534682
S 573.7733171808263 1080.0294282166444 573.7733171808263 1105.93001054458
z" fill="none" stroke="none"></path>
<circle cx="0" cy="0" r="4.95368702602741" fill="#727272">
  <animateMotion begin="-0.24373042051673674s" dur="1.99s" repeatCount="indefinite">
    <mpath xlink:href="#path30"></mpath>
  </animateMotion>
</circle><path id="path31" d="M 1235.4107773050703 511.55160189810357
c 0 22.48436590922757 -5.501493786300362 6.4582753143525995 -11.959769100652961 6.4582753143525995
S 1211.4912391037644 534.0359678073312 1211.4912391037644 511.55160189810357
s 5.501493786300362 -6.4582753143525995 11.959769100652961 -6.4582753143525995
S 1235.4107773050703 489.067235988876 1235.4107773050703 511.55160189810357
z" fill="none" stroke="none"></path>
<circle cx="0" cy="0" r="5.758027022908674" fill="#f2f2f2">
  <animateMotion begin="-0.6281720305642253s" dur="1.99s" repeatCount="indefinite">
    <mpath xlink:href="#path31"></mpath>
  </animateMotion>
</circle><path id="path32" d="M 383.4245231918532 787.1491759389556
c 0 27.518327344122646 -6.733207754412987 7.904200407354377 -14.637408161767365 7.904200407354377
S 354.14970686831845 814.6675032830783 354.14970686831845 787.1491759389556
s 6.733207754412987 -7.904200407354377 14.637408161767365 -7.904200407354377
S 383.4245231918532 759.630848594833 383.4245231918532 787.1491759389556
z" fill="none" stroke="none"></path>
<circle cx="0" cy="0" r="5.24591126272982" fill="#f2f2f2">
  <animateMotion begin="-1.9457253898798774s" dur="1.99s" repeatCount="indefinite">
    <mpath xlink:href="#path32"></mpath>
  </animateMotion>
</circle><path id="path33" d="M 155.04831852940228 599.8033741347716
c 0 32.29177166977174 -7.901178174518616 9.27529611791316 -17.176474292431777 9.27529611791316
S 120.69536994453873 632.0951458045433 120.69536994453873 599.8033741347716
s 7.901178174518616 -9.27529611791316 17.176474292431777 -9.27529611791316
S 155.04831852940228 567.5116024649999 155.04831852940228 599.8033741347716
z" fill="none" stroke="none"></path>
<circle cx="0" cy="0" r="6.083937509816833" fill="#727272">
  <animateMotion begin="-1.8738796880108666s" dur="1.99s" repeatCount="indefinite">
    <mpath xlink:href="#path33"></mpath>
  </animateMotion>
</circle><path id="path34" d="M 2160.170595915144 177.02869449517786
c 0 31.771886243771046 -7.773972166029085 9.125967325338491 -16.899939491367576 9.125967325338491
S 2126.370716932409 208.8005807389489 2126.370716932409 177.02869449517786
s 7.773972166029085 -9.125967325338491 16.899939491367576 -9.125967325338491
S 2160.170595915144 145.25680825140682 2160.170595915144 177.02869449517786
z" fill="none" stroke="none"></path>
<circle cx="0" cy="0" r="4.245558699077026" fill="#f2f2f2">
  <animateMotion begin="-0.7917091496910306s" dur="1.99s" repeatCount="indefinite">
    <mpath xlink:href="#path34"></mpath>
  </animateMotion>
</circle><path id="path35" d="M 449.96582463651765 1354.3752960452803
c 0 20.00358500912149 -4.894494204359513 5.745710587726386 -10.6402047920859 5.745710587726386
S 428.68541505234583 1374.3788810544017 428.68541505234583 1354.3752960452803
s 4.894494204359513 -5.745710587726386 10.6402047920859 -5.745710587726386
S 449.96582463651765 1334.3717110361588 449.96582463651765 1354.3752960452803
z" fill="none" stroke="none"></path>
<circle cx="0" cy="0" r="6.895808434786233" fill="#f2f2f2">
  <animateMotion begin="-1.1624357366099218s" dur="1.99s" repeatCount="indefinite">
    <mpath xlink:href="#path35"></mpath>
  </animateMotion>
</circle><path id="path36" d="M 1836.3340070816973 406.8799466443674
c 0 31.91872761928311 -7.80990143876076 9.168145167240894 -16.978046606001655 9.168145167240894
S 1802.3779138696939 438.7986742636505 1802.3779138696939 406.8799466443674
s 7.80990143876076 -9.168145167240894 16.978046606001655 -9.168145167240894
S 1836.3340070816973 374.9612190250843 1836.3340070816973 406.8799466443674
z" fill="none" stroke="none"></path>
<circle cx="0" cy="0" r="6.933397947371334" fill="#727272">
  <animateMotion begin="-1.0165076668544717s" dur="1.99s" repeatCount="indefinite">
    <mpath xlink:href="#path36"></mpath>
  </animateMotion>
</circle><path id="path37" d="M 1949.831036238295 1132.9269665227248
c 0 21.2035926309041 -5.188113090540364 6.090393628025646 -11.27850671856601 6.090393628025646
S 1927.274022801163 1154.1305591536288 1927.274022801163 1132.9269665227248
s 5.188113090540364 -6.090393628025646 11.27850671856601 -6.090393628025646
S 1949.831036238295 1111.7233738918208 1949.831036238295 1132.9269665227248
z" fill="none" stroke="none"></path>
<circle cx="0" cy="0" r="6.006559358409875" fill="#727272">
  <animateMotion begin="-1.4682158022751557s" dur="1.99s" repeatCount="indefinite">
    <mpath xlink:href="#path37"></mpath>
  </animateMotion>
</circle><path id="path38" d="M 1030.2461864515228 683.4691254492867
c 0 34.6077464188224 -8.467852847158671 9.940522907534094 -18.408375754692766 9.940522907534094
S 993.4294349421374 718.0768718681092 993.4294349421374 683.4691254492867
s 8.467852847158671 -9.940522907534094 18.408375754692766 -9.940522907534094
S 1030.2461864515228 648.8613790304643 1030.2461864515228 683.4691254492867
z" fill="none" stroke="none"></path>
<circle cx="0" cy="0" r="6.752038081742016" fill="#f2f2f2">
  <animateMotion begin="-0.7394677832555454s" dur="1.99s" repeatCount="indefinite">
    <mpath xlink:href="#path38"></mpath>
  </animateMotion>
</circle><path id="path39" d="M 889.5806112003704 505.10274269750846
c 0 19.976050889870592 -4.887757132627911 5.737801851345809 -10.62555898397372 5.737801851345809
S 868.3294932324229 525.0787935873791 868.3294932324229 505.10274269750846
s 4.887757132627911 -5.737801851345809 10.62555898397372 -5.737801851345809
S 889.5806112003704 485.1266918076379 889.5806112003704 505.10274269750846
z" fill="none" stroke="none"></path>
<circle cx="0" cy="0" r="5.726784191654235" fill="#f2f2f2">
  <animateMotion begin="-1.8492179379261868s" dur="1.99s" repeatCount="indefinite">
    <mpath xlink:href="#path39"></mpath>
  </animateMotion>
</circle><path id="path40" d="M 2376.650497544639 397.10400100180453
c 0 34.27685001832689 -8.386888834271472 9.845478196753469 -18.232367031024943 9.845478196753469
S 2340.1857634825897 431.38085102013144 2340.1857634825897 397.10400100180453
s 8.386888834271472 -9.845478196753469 18.232367031024943 -9.845478196753469
S 2376.650497544639 362.8271509834776 2376.650497544639 397.10400100180453
z" fill="none" stroke="none"></path>
<circle cx="0" cy="0" r="5.119403490846423" fill="#f2f2f2">
  <animateMotion begin="-0.18519871726235695s" dur="1.99s" repeatCount="indefinite">
    <mpath xlink:href="#path40"></mpath>
  </animateMotion>
</circle><path id="path41" d="M 1177.9531603937553 1149.8613627695488
c 0 22.050726982941935 -5.395390644762387 6.333719452547151 -11.729110097309539 6.333719452547151
S 1154.4949401991362 1171.9120897524908 1154.4949401991362 1149.8613627695488
s 5.395390644762387 -6.333719452547151 11.729110097309539 -6.333719452547151
S 1177.9531603937553 1127.8106357866068 1177.9531603937553 1149.8613627695488
z" fill="none" stroke="none"></path>
<circle cx="0" cy="0" r="4.9633038979577755" fill="#727272">
  <animateMotion begin="-0.4730167931561294s" dur="1.99s" repeatCount="indefinite">
    <mpath xlink:href="#path41"></mpath>
  </animateMotion>
</circle><path id="path42" d="M 38.66425333468368 579.3023737701147
c 0 33.48393401381675 -8.1928774714658 9.617725727372896 -17.8106031988387 9.617725727372896
S 3.0430469370062845 612.7863077839315 3.0430469370062845 579.3023737701147
s 8.1928774714658 -9.617725727372896 17.8106031988387 -9.617725727372896
S 38.66425333468368 545.818439756298 38.66425333468368 579.3023737701147
z" fill="none" stroke="none"></path>
<circle cx="0" cy="0" r="6.866729428062107" fill="#f2f2f2">
  <animateMotion begin="-0.07213756525062626s" dur="1.99s" repeatCount="indefinite">
    <mpath xlink:href="#path42"></mpath>
  </animateMotion>
</circle><path id="path43" d="M 1042.2368316434313 1314.9956836187168
c 0 26.113099844273485 -6.389375493811596 7.500571231865788 -13.889946725677385 7.500571231865788
S 1014.4569381920764 1341.1087834629902 1014.4569381920764 1314.9956836187168
s 6.389375493811596 -7.500571231865788 13.889946725677385 -7.500571231865788
S 1042.2368316434313 1288.8825837744434 1042.2368316434313 1314.9956836187168
z" fill="none" stroke="none"></path>
<circle cx="0" cy="0" r="5.859541858108332" fill="#727272">
  <animateMotion begin="-0.4761976821625826s" dur="1.99s" repeatCount="indefinite">
    <mpath xlink:href="#path43"></mpath>
  </animateMotion>
</circle><path id="path44" d="M 1088.754770102172 840.9978962473001
c 0 35.88869295009402 -8.78127593459747 10.30845435800573 -19.0897302926032 10.30845435800573
S 1050.5753095169655 876.8865891973941 1050.5753095169655 840.9978962473001
s 8.78127593459747 -10.30845435800573 19.0897302926032 -10.30845435800573
S 1088.754770102172 805.1092032972061 1088.754770102172 840.9978962473001
z" fill="none" stroke="none"></path>
<circle cx="0" cy="0" r="4.2774150909747854" fill="#727272">
  <animateMotion begin="-0.49933629593880346s" dur="1.99s" repeatCount="indefinite">
    <mpath xlink:href="#path44"></mpath>
  </animateMotion>
</circle><path id="path45" d="M 1670.8319559005804 1230.3952537535283
c 0 24.282596533005893 -5.941486385735484 6.974788365863396 -12.91627475159888 6.974788365863396
S 1644.9994063973827 1254.6778502865343 1644.9994063973827 1230.3952537535283
s 5.941486385735484 -6.974788365863396 12.91627475159888 -6.974788365863396
S 1670.8319559005804 1206.1126572205224 1670.8319559005804 1230.3952537535283
z" fill="none" stroke="none"></path>
<circle cx="0" cy="0" r="6.2626641579430835" fill="#f2f2f2">
  <animateMotion begin="-1.9870915872736772s" dur="1.99s" repeatCount="indefinite">
    <mpath xlink:href="#path45"></mpath>
  </animateMotion>
</circle><path id="path46" d="M 1748.2486863954443 1114.1811258302141
c 0 34.339747367246055 -8.402278611134673 9.8635444565494 -18.265823067684074 9.8635444565494
S 1711.7170402600761 1148.52087319746 1711.7170402600761 1114.1811258302141
s 8.402278611134673 -9.8635444565494 18.265823067684074 -9.8635444565494
S 1748.2486863954443 1079.8413784629681 1748.2486863954443 1114.1811258302141
z" fill="none" stroke="none"></path>
<circle cx="0" cy="0" r="4.960411024035787" fill="#f2f2f2">
  <animateMotion begin="-0.1332738489066506s" dur="1.99s" repeatCount="indefinite">
    <mpath xlink:href="#path46"></mpath>
  </animateMotion>
</circle><path id="path47" d="M 898.768800848727 177.0558704159161
c 0 22.752041062673225 -5.566988770654087 6.535160730767842 -12.102149501421929 6.535160730767842
S 874.5645018458832 199.80791147858932 874.5645018458832 177.0558704159161
s 5.566988770654087 -6.535160730767842 12.102149501421929 -6.535160730767842
S 898.768800848727 154.3038293532429 898.768800848727 177.0558704159161
z" fill="none" stroke="none"></path>
<circle cx="0" cy="0" r="6.101993950722935" fill="#f2f2f2">
  <animateMotion begin="-1.396606873506597s" dur="1.99s" repeatCount="indefinite">
    <mpath xlink:href="#path47"></mpath>
  </animateMotion>
</circle><path id="path48" d="M 199.09964800353882 323.2898648038777
c 0 33.6123591745588 -8.224300649094173 9.654613805458379 -17.878914454552554 9.654613805458379
S 163.3418190944337 356.9022239784365 163.3418190944337 323.2898648038777
s 8.224300649094173 -9.654613805458379 17.878914454552554 -9.654613805458379
S 199.09964800353882 289.67750562931894 199.09964800353882 323.2898648038777
z" fill="none" stroke="none"></path>
<circle cx="0" cy="0" r="6.938231450087422" fill="#f2f2f2">
  <animateMotion begin="-1.1659149735279781s" dur="1.99s" repeatCount="indefinite">
    <mpath xlink:href="#path48"></mpath>
  </animateMotion>
</circle><path id="path49" d="M 869.2797303822098 918.8378554143105
c 0 31.915396343746785 -7.809086339427403 9.167188311501736 -16.97627465092914 9.167188311501736
S 835.3271810803516 950.7532517580573 835.3271810803516 918.8378554143105
s 7.809086339427403 -9.167188311501736 16.97627465092914 -9.167188311501736
S 869.2797303822098 886.9224590705637 869.2797303822098 918.8378554143105
z" fill="none" stroke="none"></path>
<circle cx="0" cy="0" r="3.6476802380918736" fill="#727272">
  <animateMotion begin="-0.6163859590570719s" dur="1.99s" repeatCount="indefinite">
    <mpath xlink:href="#path49"></mpath>
  </animateMotion>
</circle><path id="path50" d="M 989.2018459679468 676.9316498386922
c 0 22.154109549408428 -5.420686379110572 6.363414445042847 -11.784100824153418 6.363414445042847
S 965.6336443196401 699.0857593881007 965.6336443196401 676.9316498386922
s 5.420686379110572 -6.363414445042847 11.784100824153418 -6.363414445042847
S 989.2018459679468 654.7775402892838 989.2018459679468 676.9316498386922
z" fill="none" stroke="none"></path>
<circle cx="0" cy="0" r="3.551360946146316" fill="#727272">
  <animateMotion begin="-1.4424052935383276s" dur="1.99s" repeatCount="indefinite">
    <mpath xlink:href="#path50"></mpath>
  </animateMotion>
</circle><path id="path51" d="M 342.6771502425133 1285.5767341601652
c 0 24.02896751278612 -5.879428221213625 6.901937477076865 -12.78136569829049 6.901937477076865
S 317.11441884593233 1309.6057016729512 317.11441884593233 1285.5767341601652
s 5.879428221213625 -6.901937477076865 12.78136569829049 -6.901937477076865
S 342.6771502425133 1261.5477666473791 342.6771502425133 1285.5767341601652
z" fill="none" stroke="none"></path>
<circle cx="0" cy="0" r="4.344942934033778" fill="#727272">
  <animateMotion begin="-0.05479834281585197s" dur="1.99s" repeatCount="indefinite">
    <mpath xlink:href="#path51"></mpath>
  </animateMotion>
</circle><path id="path52" d="M 1393.7429447784666 1321.3715585326229
c 0 36.20491392511924 -8.858649151890878 10.399283787002336 -19.257932938893212 10.399283787002336
S 1355.2270789006802 1357.576472457742 1355.2270789006802 1321.3715585326229
s 8.858649151890878 -10.399283787002336 19.257932938893212 -10.399283787002336
S 1393.7429447784666 1285.1666446075037 1393.7429447784666 1321.3715585326229
z" fill="none" stroke="none"></path>
<circle cx="0" cy="0" r="3.660983603288643" fill="#f2f2f2">
  <animateMotion begin="-1.4494699620506593s" dur="1.99s" repeatCount="indefinite">
    <mpath xlink:href="#path52"></mpath>
  </animateMotion>
</circle><path id="path53" d="M 273.3389348396399 856.1130201159708
c 0 31.319730645341455 -7.663338349392057 8.996092844938504 -16.659431194330562 8.996092844938504
S 240.02007245097874 887.4327507613123 240.02007245097874 856.1130201159708
s 7.663338349392057 -8.996092844938504 16.659431194330562 -8.996092844938504
S 273.3389348396399 824.7932894706294 273.3389348396399 856.1130201159708
z" fill="none" stroke="none"></path>
<circle cx="0" cy="0" r="5.524277868974917" fill="#727272">
  <animateMotion begin="-1.361605117709919s" dur="1.99s" repeatCount="indefinite">
    <mpath xlink:href="#path53"></mpath>
  </animateMotion>
</circle><path id="path54" d="M 2114.113186048411 1618.4670640551847
c 0 24.997957618822657 -6.116521545031075 7.1802644224277845 -13.29678596745886 7.1802644224277845
S 2087.519614113493 1643.4650216740074 2087.519614113493 1618.4670640551847
s 6.116521545031075 -7.1802644224277845 13.29678596745886 -7.1802644224277845
S 2114.113186048411 1593.469106436362 2114.113186048411 1618.4670640551847
z" fill="none" stroke="none"></path>
<circle cx="0" cy="0" r="3.891194057104155" fill="#f2f2f2">
  <animateMotion begin="-1.9093766428917887s" dur="1.99s" repeatCount="indefinite">
    <mpath xlink:href="#path54"></mpath>
  </animateMotion>
</circle><path id="path55" d="M 1693.4090205405817 521.384124890081
c 0 24.645852759395268 -6.030368228362671 7.079127920251833 -13.109496148614504 7.079127920251833
S 1667.1900282433528 546.0299776494762 1667.1900282433528 521.384124890081
s 6.030368228362671 -7.079127920251833 13.109496148614504 -7.079127920251833
S 1693.4090205405817 496.73827213068574 1693.4090205405817 521.384124890081
z" fill="none" stroke="none"></path>
<circle cx="0" cy="0" r="5.185230098269365" fill="#727272">
  <animateMotion begin="-1.5542154553524319s" dur="1.99s" repeatCount="indefinite">
    <mpath xlink:href="#path55"></mpath>
  </animateMotion>
</circle><path id="path56" d="M 620.2206184675177 1632.0833614135895
c 0 29.47732424456818 -7.212536783245405 8.46689100641852 -15.679427789663924 8.46689100641852
S 588.8617628881899 1661.5606856581576 588.8617628881899 1632.0833614135895
s 7.212536783245405 -8.46689100641852 15.679427789663924 -8.46689100641852
S 620.2206184675177 1602.6060371690214 620.2206184675177 1632.0833614135895
z" fill="none" stroke="none"></path>
<circle cx="0" cy="0" r="4.038016967828129" fill="#f2f2f2">
  <animateMotion begin="-1.7634537238208319s" dur="1.99s" repeatCount="indefinite">
    <mpath xlink:href="#path56"></mpath>
  </animateMotion>
</circle><path id="path57" d="M 1864.8700508814468 552.984174033241
c 0 25.88439040468037 -6.333414673485622 7.434878094961384 -13.768292768447006 7.434878094961384
S 1837.3334653445527 578.8685644379213 1837.3334653445527 552.984174033241
s 6.333414673485622 -7.434878094961384 13.768292768447006 -7.434878094961384
S 1864.8700508814468 527.0997836285605 1864.8700508814468 552.984174033241
z" fill="none" stroke="none"></path>
<circle cx="0" cy="0" r="4.249545906684125" fill="#727272">
  <animateMotion begin="-1.919895631514091s" dur="1.99s" repeatCount="indefinite">
    <mpath xlink:href="#path57"></mpath>
  </animateMotion>
</circle><path id="path58" d="M 62.775999445481375 1600.474090366552
c 0 33.71212101788073 -8.248710461821881 9.683268803008296 -17.93197926483018 9.683268803008296
S 26.912040915821013 1634.1862113844327 26.912040915821013 1600.474090366552
s 8.248710461821881 -9.683268803008296 17.93197926483018 -9.683268803008296
S 62.775999445481375 1566.7619693486713 62.775999445481375 1600.474090366552
z" fill="none" stroke="none"></path>
<circle cx="0" cy="0" r="4.294592558600917" fill="#727272">
  <animateMotion begin="-0.4198514454062835s" dur="1.99s" repeatCount="indefinite">
    <mpath xlink:href="#path58"></mpath>
  </animateMotion>
</circle><path id="path59" d="M 1192.3895403313766 1563.4081173664051
c 0 29.929244676843265 -7.323113059227606 8.596697939093279 -15.919810998320884 8.596697939093279
S 1160.549918334735 1593.3373620432483 1160.549918334735 1563.4081173664051
s 7.323113059227606 -8.596697939093279 15.919810998320884 -8.596697939093279
S 1192.3895403313766 1533.478872689562 1192.3895403313766 1563.4081173664051
z" fill="none" stroke="none"></path>
<circle cx="0" cy="0" r="3.700485751181585" fill="#f2f2f2">
  <animateMotion begin="-1.2144909803323347s" dur="1.99s" repeatCount="indefinite">
    <mpath xlink:href="#path59"></mpath>
  </animateMotion>
</circle><path id="path60" d="M 1248.4255583973443 131.65806062779205
c 0 31.747633627247044 -7.768038015177467 9.119001148251812 -16.88703916342928 9.119001148251812
S 1214.6514800704856 163.4056942550391 1214.6514800704856 131.65806062779205
s 7.768038015177467 -9.119001148251812 16.88703916342928 -9.119001148251812
S 1248.4255583973443 99.91042700054501 1248.4255583973443 131.65806062779205
z" fill="none" stroke="none"></path>
<circle cx="0" cy="0" r="4.12771664516659" fill="#f2f2f2">
  <animateMotion begin="-1.4739443387846276s" dur="1.99s" repeatCount="indefinite">
    <mpath xlink:href="#path60"></mpath>
  </animateMotion>
</circle><path id="path61" d="M 1743.563943468622 1119.144608064847
c 0 25.214577907583724 -6.169524381642826 7.242485143667666 -13.412009525310491 7.242485143667666
S 1716.7399244180012 1144.3591859724309 1716.7399244180012 1119.144608064847
s 6.169524381642826 -7.242485143667666 13.412009525310491 -7.242485143667666
S 1743.563943468622 1093.9300301572632 1743.563943468622 1119.144608064847
z" fill="none" stroke="none"></path>
<circle cx="0" cy="0" r="6.947493972672699" fill="#f2f2f2">
  <animateMotion begin="-0.07556851802653732s" dur="1.99s" repeatCount="indefinite">
    <mpath xlink:href="#path61"></mpath>
  </animateMotion>
</circle><path id="path62" d="M 2131.9339785250545 1246.2172408164997
c 0 29.401691853361694 -7.19403098539701 8.445166808944316 -15.639197794341326 8.445166808944316
S 2100.655582936372 1275.6189326698614 2100.655582936372 1246.2172408164997
s 7.19403098539701 -8.445166808944316 15.639197794341326 -8.445166808944316
S 2131.9339785250545 1216.815548963138 2131.9339785250545 1246.2172408164997
z" fill="none" stroke="none"></path>
<circle cx="0" cy="0" r="5.175516688092707" fill="#f2f2f2">
  <animateMotion begin="-0.2974882464327745s" dur="1.99s" repeatCount="indefinite">
    <mpath xlink:href="#path62"></mpath>
  </animateMotion>
</circle><path id="path63" d="M 427.27472058620697 440.76141774053787
c 0 28.26142149769804 -6.9150286643303716 8.11764234508348 -15.032671009413852 8.11764234508348
S 397.2093785673793 469.0228392382359 397.2093785673793 440.76141774053787
s 6.9150286643303716 -8.11764234508348 15.032671009413852 -8.11764234508348
S 427.27472058620697 412.4999962428398 427.27472058620697 440.76141774053787
z" fill="none" stroke="none"></path>
<circle cx="0" cy="0" r="5.293514581216285" fill="#727272">
  <animateMotion begin="-0.03228828639416078s" dur="1.99s" repeatCount="indefinite">
    <mpath xlink:href="#path63"></mpath>
  </animateMotion>
</circle><path id="path64" d="M 1454.43367842229 394.7730086941662
c 0 23.403101200492248 -5.72629071926938 6.722167366098837 -12.448458085368216 6.722167366098837
S 1429.5367622515537 418.17610989465845 1429.5367622515537 394.7730086941662
s 5.72629071926938 -6.722167366098837 12.448458085368216 -6.722167366098837
S 1454.43367842229 371.36990749367396 1454.43367842229 394.7730086941662
z" fill="none" stroke="none"></path>
<circle cx="0" cy="0" r="3.6517910184898708" fill="#727272">
  <animateMotion begin="-0.9233238847122727s" dur="1.99s" repeatCount="indefinite">
    <mpath xlink:href="#path64"></mpath>
  </animateMotion>
</circle><path id="path65" d="M 1759.749596017509 930.171190779982
c 0 21.14887087227246 -5.1747237240666655 6.07467567607826 -11.249399400144926 6.07467567607826
S 1737.250797217219 951.3200616522545 1737.250797217219 930.171190779982
s 5.1747237240666655 -6.07467567607826 11.249399400144926 -6.07467567607826
S 1759.749596017509 909.0223199077095 1759.749596017509 930.171190779982
z" fill="none" stroke="none"></path>
<circle cx="0" cy="0" r="6.70223622587112" fill="#f2f2f2">
  <animateMotion begin="-0.6697687563313904s" dur="1.99s" repeatCount="indefinite">
    <mpath xlink:href="#path65"></mpath>
  </animateMotion>
</circle><path id="path66" d="M 2295.0407011786706 1625.1194110037604
c 0 33.99488233602735 -8.317896741793925 9.764487479497218 -18.082384221291143 9.764487479497218
S 2258.875932736088 1659.1142933397878 2258.875932736088 1625.1194110037604
s 8.317896741793925 -9.764487479497218 18.082384221291143 -9.764487479497218
S 2295.0407011786706 1591.124528667733 2295.0407011786706 1625.1194110037604
z" fill="none" stroke="none"></path>
<circle cx="0" cy="0" r="6.6085873394227495" fill="#727272">
  <animateMotion begin="-0.41961217228793873s" dur="1.99s" repeatCount="indefinite">
    <mpath xlink:href="#path66"></mpath>
  </animateMotion>
</circle><path id="path67" d="M 840.8108122674757 89.66074150719527
c 0 28.417724499203878 -6.95327301576265 8.162537888069199 -15.11581090383185 8.162537888069199
S 810.579190459812 118.07846600639914 810.579190459812 89.66074150719527
s 6.95327301576265 -8.162537888069199 15.11581090383185 -8.162537888069199
S 840.8108122674757 61.24301700799139 840.8108122674757 89.66074150719527
z" fill="none" stroke="none"></path>
<circle cx="0" cy="0" r="3.845260490878095" fill="#727272">
  <animateMotion begin="-0.4132944251679651s" dur="1.99s" repeatCount="indefinite">
    <mpath xlink:href="#path67"></mpath>
  </animateMotion>
</circle><path id="path68" d="M 609.5684298864528 1430.2790095894725
c 0 21.715671417955623 -5.3134089639678646 6.23748008813619 -11.550889052104054 6.23748008813619
S 586.4666517822448 1451.9946810074282 586.4666517822448 1430.2790095894725
s 5.3134089639678646 -6.23748008813619 11.550889052104054 -6.23748008813619
S 609.5684298864528 1408.5633381715168 609.5684298864528 1430.2790095894725
z" fill="none" stroke="none"></path>
<circle cx="0" cy="0" r="5.0613814844027445" fill="#f2f2f2">
  <animateMotion begin="-0.0798167301909143s" dur="1.99s" repeatCount="indefinite">
    <mpath xlink:href="#path68"></mpath>
  </animateMotion>
</circle><path id="path69" d="M 1054.23674511305 541.8070777441395
c 0 36.497888960236544 -8.930334532823833 10.483436190706241 -19.413770723530074 10.483436190706241
S 1015.4092036659898 578.304966704376 1015.4092036659898 541.8070777441395
s 8.930334532823833 -10.483436190706241 19.413770723530074 -10.483436190706241
S 1054.23674511305 505.309188783903 1054.23674511305 541.8070777441395
z" fill="none" stroke="none"></path>
<circle cx="0" cy="0" r="4.715094705340009" fill="#f2f2f2">
  <animateMotion begin="-1.8272141942712876s" dur="1.99s" repeatCount="indefinite">
    <mpath xlink:href="#path69"></mpath>
  </animateMotion>
</circle><path id="path70" d="M 1289.937657791519 453.0679513917087
c 0 25.298952911196842 -6.190169329335397 7.266720517045902 -13.4568898463813 7.266720517045902
S 1263.0238780987565 478.36690430290554 1263.0238780987565 453.0679513917087
s 6.190169329335397 -7.266720517045902 13.4568898463813 -7.266720517045902
S 1289.937657791519 427.7689984805118 1289.937657791519 453.0679513917087
z" fill="none" stroke="none"></path>
<circle cx="0" cy="0" r="5.4947286818724645" fill="#f2f2f2">
  <animateMotion begin="-0.5017255978503099s" dur="1.99s" repeatCount="indefinite">
    <mpath xlink:href="#path70"></mpath>
  </animateMotion>
</circle><path id="path71" d="M 1335.405354586672 1222.050400536485
c 0 30.17119708009233 -7.3823141791715265 8.666194905983968 -16.048509085155494 8.666194905983968
S 1303.308336416361 1252.2215976165774 1303.308336416361 1222.050400536485
s 7.3823141791715265 -8.666194905983968 16.048509085155494 -8.666194905983968
S 1335.405354586672 1191.8792034563928 1335.405354586672 1222.050400536485
z" fill="none" stroke="none"></path>
<circle cx="0" cy="0" r="5.273000204552227" fill="#727272">
  <animateMotion begin="-0.07678291429499214s" dur="1.99s" repeatCount="indefinite">
    <mpath xlink:href="#path71"></mpath>
  </animateMotion>
</circle><path id="path72" d="M 1828.607663616046 1299.741522583119
c 0 26.34779112401212 -6.4467999558753055 7.567982556897098 -14.014782512772403 7.567982556897098
S 1800.5780985905012 1326.089313707131 1800.5780985905012 1299.741522583119
s 6.4467999558753055 -7.567982556897098 14.014782512772403 -7.567982556897098
S 1828.607663616046 1273.393731459107 1828.607663616046 1299.741522583119
z" fill="none" stroke="none"></path>
<circle cx="0" cy="0" r="4.796480560910338" fill="#727272">
  <animateMotion begin="-0.6243115237434184s" dur="1.99s" repeatCount="indefinite">
    <mpath xlink:href="#path72"></mpath>
  </animateMotion>
</circle><path id="path73" d="M 1893.426662458334 242.77730185673207
c 0 33.32620704772973 -8.154284703167912 9.572421173284072 -17.726705876451984 9.572421173284072
S 1857.9732507054302 276.1035089044618 1857.9732507054302 242.77730185673207
s 8.154284703167912 -9.572421173284072 17.726705876451984 -9.572421173284072
S 1893.426662458334 209.45109480900234 1893.426662458334 242.77730185673207
z" fill="none" stroke="none"></path>
<circle cx="0" cy="0" r="4.337450232115394" fill="#f2f2f2">
  <animateMotion begin="-0.32468496759696425s" dur="1.99s" repeatCount="indefinite">
    <mpath xlink:href="#path73"></mpath>
  </animateMotion>
</circle><path id="path74" d="M 2293.2353883190913 1521.5021528953139
c 0 26.02401531380315 -6.367578215079494 7.474983122049841 -13.842561337129336 7.474983122049841
S 2265.550265644833 1547.526168209117 2265.550265644833 1521.5021528953139
s 6.367578215079494 -7.474983122049841 13.842561337129336 -7.474983122049841
S 2293.2353883190913 1495.4781375815107 2293.2353883190913 1521.5021528953139
z" fill="none" stroke="none"></path>
<circle cx="0" cy="0" r="5.498822906514092" fill="#f2f2f2">
  <animateMotion begin="-0.5047544524541877s" dur="1.99s" repeatCount="indefinite">
    <mpath xlink:href="#path74"></mpath>
  </animateMotion>
</circle><path id="path75" d="M 945.581421668382 1115.4826586066886
c 0 33.453461571282105 -8.185421448292429 9.608973004517201 -17.79439445280963 9.608973004517201
S 909.9926327627626 1148.9361201779707 909.9926327627626 1115.4826586066886
s 8.185421448292429 -9.608973004517201 17.79439445280963 -9.608973004517201
S 945.581421668382 1082.0291970354065 945.581421668382 1115.4826586066886
z" fill="none" stroke="none"></path>
<circle cx="0" cy="0" r="6.289565107375543" fill="#727272">
  <animateMotion begin="-1.7818494584863045s" dur="1.99s" repeatCount="indefinite">
    <mpath xlink:href="#path75"></mpath>
  </animateMotion>
</circle><path id="path76" d="M 350.75924242010274 538.468358915786
c 0 33.43193031391317 -8.180153161914925 9.602788494421869 -17.782941656336792 9.602788494421869
S 315.19335910742916 571.9002892296992 315.19335910742916 538.468358915786
s 8.180153161914925 -9.602788494421869 17.782941656336792 -9.602788494421869
S 350.75924242010274 505.0364286018728 350.75924242010274 538.468358915786
z" fill="none" stroke="none"></path>
<circle cx="0" cy="0" r="6.323842110677065" fill="#f2f2f2">
  <animateMotion begin="-0.9673128336286899s" dur="1.99s" repeatCount="indefinite">
    <mpath xlink:href="#path76"></mpath>
  </animateMotion>
</circle><path id="path77" d="M 1167.223067292505 542.6809776810625
c 0 36.04690677611182 -8.819987828197572 10.353898754840628 -19.1738865830382 10.353898754840628
S 1128.8752941264286 578.7278844571742 1128.8752941264286 542.6809776810625
s 8.819987828197572 -10.353898754840628 19.1738865830382 -10.353898754840628
S 1167.223067292505 506.63407090495065 1167.223067292505 542.6809776810625
z" fill="none" stroke="none"></path>
<circle cx="0" cy="0" r="4.9694310526965335" fill="#f2f2f2">
  <animateMotion begin="-0.8197366691966604s" dur="1.99s" repeatCount="indefinite">
    <mpath xlink:href="#path77"></mpath>
  </animateMotion>
</circle><path id="path78" d="M 220.1402728190914 807.9894311553816
c 0 24.552824712125776 -6.007606046583966 7.052407098163787 -13.060013144747753 7.052407098163787
S 194.02024652959588 832.5422558675074 194.02024652959588 807.9894311553816
s 6.007606046583966 -7.052407098163787 13.060013144747753 -7.052407098163787
S 220.1402728190914 783.4366064432558 220.1402728190914 807.9894311553816
z" fill="none" stroke="none"></path>
<circle cx="0" cy="0" r="4.293045739001037" fill="#f2f2f2">
  <animateMotion begin="-0.8413434258186537s" dur="1.99s" repeatCount="indefinite">
    <mpath xlink:href="#path78"></mpath>
  </animateMotion>
</circle><path id="path79" d="M 673.4491768994313 1546.4306618346143
c 0 23.31549718795193 -5.704855694924408 6.6970045114330015 -12.401860206357409 6.6970045114330015
S 648.6454564867166 1569.7461590225662 648.6454564867166 1546.4306618346143
s 5.704855694924408 -6.6970045114330015 12.401860206357409 -6.6970045114330015
S 673.4491768994313 1523.1151646466624 673.4491768994313 1546.4306618346143
z" fill="none" stroke="none"></path>
<circle cx="0" cy="0" r="6.918681600197658" fill="#f2f2f2">
  <animateMotion begin="-0.5382189618974539s" dur="1.99s" repeatCount="indefinite">
    <mpath xlink:href="#path79"></mpath>
  </animateMotion>
</circle><path id="path80" d="M 1322.0215321229575 829.8591988001466
c 0 21.370883108899434 -5.229045867071138 6.138445148300902 -11.367491015372039 6.138445148300902
S 1299.2865500922135 851.230081909046 1299.2865500922135 829.8591988001466
s 5.229045867071138 -6.138445148300902 11.367491015372039 -6.138445148300902
S 1322.0215321229575 808.4883156912472 1322.0215321229575 829.8591988001466
z" fill="none" stroke="none"></path>
<circle cx="0" cy="0" r="3.7247135215831237" fill="#727272">
  <animateMotion begin="-0.547452470897629s" dur="1.99s" repeatCount="indefinite">
    <mpath xlink:href="#path80"></mpath>
  </animateMotion>
</circle><path id="path81" d="M 1892.7767056335035 743.4625796698904
c 0 32.183935635293366 -7.8747927618271 9.244321937797032 -17.11911469962413 9.244321937797032
S 1858.5384762342553 775.6465153051837 1858.5384762342553 743.4625796698904
s 7.8747927618271 -9.244321937797032 17.11911469962413 -9.244321937797032
S 1892.7767056335035 711.278644034597 1892.7767056335035 743.4625796698904
z" fill="none" stroke="none"></path>
<circle cx="0" cy="0" r="3.823103102495279" fill="#727272">
  <animateMotion begin="-0.08010064495433242s" dur="1.99s" repeatCount="indefinite">
    <mpath xlink:href="#path81"></mpath>
  </animateMotion>
</circle><path id="path82" d="M 1312.326138048813 868.6590504483372
c 0 19.632940561807445 -4.803804605548629 5.639248884774479 -10.44305349032311 5.639248884774479
S 1291.4400310681667 888.2919910101447 1291.4400310681667 868.6590504483372
s 4.803804605548629 -5.639248884774479 10.44305349032311 -5.639248884774479
S 1312.326138048813 849.0261098865298 1312.326138048813 868.6590504483372
z" fill="none" stroke="none"></path>
<circle cx="0" cy="0" r="4.672612002508055" fill="#727272">
  <animateMotion begin="-1.270468493979599s" dur="1.99s" repeatCount="indefinite">
    <mpath xlink:href="#path82"></mpath>
  </animateMotion>
</circle><path id="path83" d="M 202.98689779721536 685.5002139489771
c 0 20.850397807371383 -5.10169308052704 5.988944051053482 -11.090637131580523 5.988944051053482
S 180.8056235340543 706.3506117563485 180.8056235340543 685.5002139489771
s 5.10169308052704 -5.988944051053482 11.090637131580523 -5.988944051053482
S 202.98689779721536 664.6498161416058 202.98689779721536 685.5002139489771
z" fill="none" stroke="none"></path>
<circle cx="0" cy="0" r="5.99447671601244" fill="#f2f2f2">
  <animateMotion begin="-1.5321243546427699s" dur="1.99s" repeatCount="indefinite">
    <mpath xlink:href="#path83"></mpath>
  </animateMotion>
</circle><path id="path84" d="M 1635.045813072946 617.7515610105189
c 0 19.525303826386114 -4.777467957520007 5.608331950132182 -10.385799907652189 5.608331950132182
S 1614.2742132576416 637.276864836905 1614.2742132576416 617.7515610105189
s 4.777467957520007 -5.608331950132182 10.385799907652189 -5.608331950132182
S 1635.045813072946 598.2262571841328 1635.045813072946 617.7515610105189
z" fill="none" stroke="none"></path>
<circle cx="0" cy="0" r="3.9521366609260795" fill="#f2f2f2">
  <animateMotion begin="-0.6955588950008127s" dur="1.99s" repeatCount="indefinite">
    <mpath xlink:href="#path84"></mpath>
  </animateMotion>
</circle><path id="path85" d="M 404.049255593711 1161.9772814355094
c 0 20.508470922966374 -5.018030119449218 5.8907310097882135 -10.908761129237432 5.8907310097882135
S 382.2317333352362 1182.4857523584758 382.2317333352362 1161.9772814355094
s 5.018030119449218 -5.8907310097882135 10.908761129237432 -5.8907310097882135
S 404.049255593711 1141.468810512543 404.049255593711 1161.9772814355094
z" fill="none" stroke="none"></path>
<circle cx="0" cy="0" r="6.39484424394173" fill="#f2f2f2">
  <animateMotion begin="-0.16873529961573483s" dur="1.99s" repeatCount="indefinite">
    <mpath xlink:href="#path85"></mpath>
  </animateMotion>
</circle><path id="path86" d="M 242.459729245986 257.3700632798769
c 0 25.988549146175316 -6.358900323000342 7.464796031348229 -13.823696354348572 7.464796031348229
S 214.81233653728884 283.3586124260522 214.81233653728884 257.3700632798769
s 6.358900323000342 -7.464796031348229 13.823696354348572 -7.464796031348229
S 242.459729245986 231.38151413370156 242.459729245986 257.3700632798769
z" fill="none" stroke="none"></path>
<circle cx="0" cy="0" r="5.147876284805038" fill="#f2f2f2">
  <animateMotion begin="-1.9569089901765029s" dur="1.99s" repeatCount="indefinite">
    <mpath xlink:href="#path86"></mpath>
  </animateMotion>
</circle><path id="path87" d="M 111.43962931234971 711.1086238596607
c 0 22.320051497265084 -5.461289196139329 6.411078621554865 -11.872367817694194 6.411078621554865
S 87.69489367696131 733.4286753569259 87.69489367696131 711.1086238596607
s 5.461289196139329 -6.411078621554865 11.872367817694194 -6.411078621554865
S 111.43962931234971 688.7885723623956 111.43962931234971 711.1086238596607
z" fill="none" stroke="none"></path>
<circle cx="0" cy="0" r="6.8500891746662935" fill="#727272">
  <animateMotion begin="-0.7685353003323424s" dur="1.99s" repeatCount="indefinite">
    <mpath xlink:href="#path87"></mpath>
  </animateMotion>
</circle><path id="path88" d="M 205.82873855928605 1652.54449429838
c 0 30.62028223835353 -7.492196717895012 8.79518745144197 -16.28738416933698 8.79518745144197
S 173.2539702206121 1683.1647765367336 173.2539702206121 1652.54449429838
s 7.492196717895012 -8.79518745144197 16.28738416933698 -8.79518745144197
S 205.82873855928605 1621.9242120600263 205.82873855928605 1652.54449429838
z" fill="none" stroke="none"></path>
<circle cx="0" cy="0" r="5.312707989003436" fill="#727272">
  <animateMotion begin="-0.09063781205184247s" dur="1.99s" repeatCount="indefinite">
    <mpath xlink:href="#path88"></mpath>
  </animateMotion>
</circle><path id="path89" d="M 1084.3097467149325 916.7584357182642
c 0 20.07999257932353 -4.9131896736642675 5.7676574429971845 -10.680847116661452 5.7676574429971845
S 1062.9480524816097 936.8384282975877 1062.9480524816097 916.7584357182642
s 4.9131896736642675 -5.7676574429971845 10.680847116661452 -5.7676574429971845
S 1084.3097467149325 896.6784431389407 1084.3097467149325 916.7584357182642
z" fill="none" stroke="none"></path>
<circle cx="0" cy="0" r="5.052288700314916" fill="#f2f2f2">
  <animateMotion begin="-1.7828564482157796s" dur="1.99s" repeatCount="indefinite">
    <mpath xlink:href="#path89"></mpath>
  </animateMotion>
</circle><path id="path90" d="M 2010.2590307263831 511.40491530422787
c 0 36.50594012993259 -8.932304499877123 10.485748760725318 -19.41805326060244 10.485748760725318
S 1971.4229242051783 547.9108554341605 1971.4229242051783 511.40491530422787
s 8.932304499877123 -10.485748760725318 19.41805326060244 -10.485748760725318
S 2010.2590307263831 474.8989751742953 2010.2590307263831 511.40491530422787
z" fill="none" stroke="none"></path>
<circle cx="0" cy="0" r="5.481460782038604" fill="#727272">
  <animateMotion begin="-1.9300221399951212s" dur="1.99s" repeatCount="indefinite">
    <mpath xlink:href="#path90"></mpath>
  </animateMotion>
</circle><path id="path91" d="M 2104.751042945674 1426.68991998759
c 0 30.649275975345354 -7.4992909301376915 8.803515439726857 -16.30280636986455 8.803515439726857
S 2072.145430205945 1457.3391959629353 2072.145430205945 1426.68991998759
s 7.4992909301376915 -8.803515439726857 16.30280636986455 -8.803515439726857
S 2104.751042945674 1396.0406440122447 2104.751042945674 1426.68991998759
z" fill="none" stroke="none"></path>
<circle cx="0" cy="0" r="4.248452335029449" fill="#f2f2f2">
  <animateMotion begin="-1.451673967428108s" dur="1.99s" repeatCount="indefinite">
    <mpath xlink:href="#path91"></mpath>
  </animateMotion>
</circle><path id="path92" d="M 1676.1974639853738 130.27575745164
c 0 20.759282579789573 -5.079398929097448 5.962772655897005 -11.042171584994453 5.962772655897005
S 1654.1131208153847 151.0350400314296 1654.1131208153847 130.27575745164
s 5.079398929097448 -5.962772655897005 11.042171584994453 -5.962772655897005
S 1676.1974639853738 109.51647487185043 1676.1974639853738 130.27575745164
z" fill="none" stroke="none"></path>
<circle cx="0" cy="0" r="4.987804790918288" fill="#727272">
  <animateMotion begin="-0.8382587277662347s" dur="1.99s" repeatCount="indefinite">
    <mpath xlink:href="#path92"></mpath>
  </animateMotion>
</circle><path id="path93" d="M 728.976362711566 808.3298895160858
c 0 26.45576782395892 -6.473219786713352 7.598997140924371 -14.072216927637722 7.598997140924371
S 700.8319288562907 834.7856573400447 700.8319288562907 808.3298895160858
s 6.473219786713352 -7.598997140924371 14.072216927637722 -7.598997140924371
S 728.976362711566 781.8741216921269 728.976362711566 808.3298895160858
z" fill="none" stroke="none"></path>
<circle cx="0" cy="0" r="6.897375587576026" fill="#f2f2f2">
  <animateMotion begin="-0.9298923035254987s" dur="1.99s" repeatCount="indefinite">
    <mpath xlink:href="#path93"></mpath>
  </animateMotion>
</circle><path id="path94" d="M 412.7761215535553 34.54718233733596
c 0 28.684166159283507 -7.018466187909793 8.239069003198454 -15.257535191108246 8.239069003198454
S 382.26105117133886 63.23134849661947 382.26105117133886 34.54718233733596
s 7.018466187909793 -8.239069003198454 15.257535191108246 -8.239069003198454
S 412.7761215535553 5.863016178052455 412.7761215535553 34.54718233733596
z" fill="none" stroke="none"></path>
<circle cx="0" cy="0" r="3.624130904266133" fill="#727272">
  <animateMotion begin="-0.8587732275273527s" dur="1.99s" repeatCount="indefinite">
    <mpath xlink:href="#path94"></mpath>
  </animateMotion>
</circle><path id="path95" d="M 70.41031144162673 1533.162359181019
c 0 29.149490341511292 -7.132322104837868 8.372725949157498 -15.505048053995367 8.372725949157498
S 39.400215333636 1562.31184952253 39.400215333636 1533.162359181019
s 7.132322104837868 -8.372725949157498 15.505048053995367 -8.372725949157498
S 70.41031144162673 1504.0128688395077 70.41031144162673 1533.162359181019
z" fill="none" stroke="none"></path>
<circle cx="0" cy="0" r="4.648767986175644" fill="#f2f2f2">
  <animateMotion begin="-1.7730326656857684s" dur="1.99s" repeatCount="indefinite">
    <mpath xlink:href="#path95"></mpath>
  </animateMotion>
</circle><path id="path96" d="M 1343.368974112758 1311.5021548757009
c 0 28.078020734985685 -6.870154009624157 8.064963402602272 -14.935117412226429 8.064963402602272
S 1313.4987392883052 1339.5801756106866 1313.4987392883052 1311.5021548757009
s 6.870154009624157 -8.064963402602272 14.935117412226429 -8.064963402602272
S 1343.368974112758 1283.424134140715 1343.368974112758 1311.5021548757009
z" fill="none" stroke="none"></path>
<circle cx="0" cy="0" r="6.2908696049826025" fill="#727272">
  <animateMotion begin="-0.6100136889952309s" dur="1.99s" repeatCount="indefinite">
    <mpath xlink:href="#path96"></mpath>
  </animateMotion>
</circle><path id="path97" d="M 2123.121800038877 997.3101794068924
c 0 35.381906853360775 -8.657275081141465 10.162888138731287 -18.820163219872754 10.162888138731287
S 2085.4814735991313 1032.6920862602533 2085.4814735991313 997.3101794068924
s 8.657275081141465 -10.162888138731287 18.820163219872754 -10.162888138731287
S 2123.121800038877 961.9282725535317 2123.121800038877 997.3101794068924
z" fill="none" stroke="none"></path>
<circle cx="0" cy="0" r="4.851997170459551" fill="#f2f2f2">
  <animateMotion begin="-1.650070242822222s" dur="1.99s" repeatCount="indefinite">
    <mpath xlink:href="#path97"></mpath>
  </animateMotion>
</circle><path id="path98" d="M 1137.064681441498 536.2728772100799
c 0 31.123130945779724 -7.6152341675844 8.939622718468645 -16.554856886053045 8.939622718468645
S 1103.9549676693916 567.3960081558596 1103.9549676693916 536.2728772100799
s 7.6152341675844 -8.939622718468645 16.554856886053045 -8.939622718468645
S 1137.064681441498 505.1497462643001 1137.064681441498 536.2728772100799
z" fill="none" stroke="none"></path>
<circle cx="0" cy="0" r="4.276346102669195" fill="#f2f2f2">
  <animateMotion begin="-1.5566595471904443s" dur="1.99s" repeatCount="indefinite">
    <mpath xlink:href="#path98"></mpath>
  </animateMotion>
</circle><path id="path99" d="M 859.836004659163 1452.473218665613
c 0 21.311811311192958 -5.214592129334447 6.121477717044787 -11.336069846379234 6.121477717044787
S 837.1638649664045 1473.785029976806 837.1638649664045 1452.473218665613
s 5.214592129334447 -6.121477717044787 11.336069846379234 -6.121477717044787
S 859.836004659163 1431.1614073544201 859.836004659163 1452.473218665613
z" fill="none" stroke="none"></path>
<circle cx="0" cy="0" r="6.607167385366301" fill="#727272">
  <animateMotion begin="-0.5602453977415176s" dur="1.99s" repeatCount="indefinite">
    <mpath xlink:href="#path99"></mpath>
  </animateMotion>
</circle></g>
</svg>