<svg xmlns="http://www.w3.org/2000/svg" xmlns:xlink="http://www.w3.org/1999/xlink" style="margin:auto;background:#2a2a2a;display:block;z-index:1;position:relative" width="2466" height="1668" preserveAspectRatio="xMidYMid" viewBox="0 0 2466 1668">
<g transform="translate(1233,834) scale(1,1) translate(-1233,-834)"><path id="path0" d="M 1184.4697330245301 1219.682800354722
c 0 19.533598406414377 -4.779497482420538 5.61071443588498 -10.390211918305518 5.61071443588498
S 1163.689309187919 1239.2163987611364 1163.689309187919 1219.682800354722
s 4.779497482420538 -5.61071443588498 10.390211918305518 -5.61071443588498
S 1184.4697330245301 1200.1492019483078 1184.4697330245301 1219.682800354722
z" fill="none" stroke="none"></path>
<circle cx="0" cy="0" r="2.8509688468142254" fill="#2d2d2d">
  <animateMotion begin="-2.710944047818254s" dur="5.51s" repeatCount="indefinite">
    <mpath xlink:href="#path0"></mpath>
  </animateMotion>
</circle><path id="path1" d="M 1229.9998382201625 915.3869363770251
c 0 23.418391576741204 -5.73003198154306 6.726559282680984 -12.456591264224045 6.726559282680984
S 1205.0866556917144 938.8053279537663 1205.0866556917144 915.3869363770251
s 5.73003198154306 -6.726559282680984 12.456591264224045 -6.726559282680984
S 1229.9998382201625 891.9685448002839 1229.9998382201625 915.3869363770251
z" fill="none" stroke="none"></path>
<circle cx="0" cy="0" r="3.3160587986020493" fill="#ffda00">
  <animateMotion begin="-1.80614445276694s" dur="5.51s" repeatCount="indefinite">
    <mpath xlink:href="#path1"></mpath>
  </animateMotion>
</circle><path id="path2" d="M 1524.7877049302858 557.0095942943985
c 0 26.694365376525756 -6.531600038937152 7.667530480491441 -14.199130519428593 7.667530480491441
S 1496.3894438914288 583.7039596709243 1496.3894438914288 557.0095942943985
s 6.531600038937152 -7.667530480491441 14.199130519428593 -7.667530480491441
S 1524.7877049302858 530.3152289178728 1524.7877049302858 557.0095942943985
z" fill="none" stroke="none"></path>
<circle cx="0" cy="0" r="2.4873863323065564" fill="#ffffff">
  <animateMotion begin="-0.7424928575059955s" dur="5.51s" repeatCount="indefinite">
    <mpath xlink:href="#path2"></mpath>
  </animateMotion>
</circle><path id="path3" d="M 301.8189929910366 396.6067661072919
c 0 22.50694259067479 -5.507017867931064 6.46476010583212 -11.971777973763185 6.46476010583212
S 277.8754370435102 419.1137086979667 277.8754370435102 396.6067661072919
s 5.507017867931064 -6.46476010583212 11.971777973763185 -6.46476010583212
S 301.8189929910366 374.0998235166171 301.8189929910366 396.6067661072919
z" fill="none" stroke="none"></path>
<circle cx="0" cy="0" r="3.8902240238849872" fill="#ffda00">
  <animateMotion begin="-3.635934809388429s" dur="5.51s" repeatCount="indefinite">
    <mpath xlink:href="#path3"></mpath>
  </animateMotion>
</circle><path id="path4" d="M 515.431021702771 347.1898838850044
c 0 21.38058865143464 -5.231420627478688 6.14123291051846 -11.372653537997149 6.14123291051846
S 492.6857146267767 368.57047253643907 492.6857146267767 347.1898838850044
s 5.231420627478688 -6.14123291051846 11.372653537997149 -6.14123291051846
S 515.431021702771 325.80929523356974 515.431021702771 347.1898838850044
z" fill="none" stroke="none"></path>
<circle cx="0" cy="0" r="2.1297553851437327" fill="#ffffff">
  <animateMotion begin="-4.268082140901046s" dur="5.51s" repeatCount="indefinite">
    <mpath xlink:href="#path4"></mpath>
  </animateMotion>
</circle><path id="path5" d="M 1604.5342447012597 1143.7151659111698
c 0 35.28602985267616 -8.633815815016506 10.135349000236769 -18.769164815253273 10.135349000236769
S 1566.995915070753 1179.001195763846 1566.995915070753 1143.7151659111698
s 8.633815815016506 -10.135349000236769 18.769164815253273 -10.135349000236769
S 1604.5342447012597 1108.4291360584937 1604.5342447012597 1143.7151659111698
z" fill="none" stroke="none"></path>
<circle cx="0" cy="0" r="3.4580841682278396" fill="#ffffff">
  <animateMotion begin="-3.2194095579333757s" dur="5.51s" repeatCount="indefinite">
    <mpath xlink:href="#path5"></mpath>
  </animateMotion>
</circle><path id="path6" d="M 859.5580179861241 651.1418602417597
c 0 30.448350893733636 -7.450128410168867 8.745802916285193 -16.195931326454062 8.745802916285193
S 827.1661553332159 681.5902111354933 827.1661553332159 651.1418602417597
s 7.450128410168867 -8.745802916285193 16.195931326454062 -8.745802916285193
S 859.5580179861241 620.693509348026 859.5580179861241 651.1418602417597
z" fill="none" stroke="none"></path>
<circle cx="0" cy="0" r="2.224460860322894" fill="#2d2d2d">
  <animateMotion begin="-2.0142985718257003s" dur="5.51s" repeatCount="indefinite">
    <mpath xlink:href="#path6"></mpath>
  </animateMotion>
</circle><path id="path7" d="M 1508.876030118413 1476.9320217341278
c 0 33.409958289430286 -8.174777028264856 9.596477381006572 -17.771254409271428 9.596477381006572
S 1473.33352129987 1510.341980023558 1473.33352129987 1476.9320217341278
s 8.174777028264856 -9.596477381006572 17.771254409271428 -9.596477381006572
S 1508.876030118413 1443.5220634446976 1508.876030118413 1476.9320217341278
z" fill="none" stroke="none"></path>
<circle cx="0" cy="0" r="2.414260268520258" fill="#ffffff">
  <animateMotion begin="-4.021763307580348s" dur="5.51s" repeatCount="indefinite">
    <mpath xlink:href="#path7"></mpath>
  </animateMotion>
</circle><path id="path8" d="M 1903.6400808583517 978.3292052388332
c 0 26.99225999338874 -6.604489147318521 7.753095955547829 -14.35758510286635 7.753095955547829
S 1874.924910652619 1005.321465232222 1874.924910652619 978.3292052388332
s 6.604489147318521 -7.753095955547829 14.35758510286635 -7.753095955547829
S 1903.6400808583517 951.3369452454444 1903.6400808583517 978.3292052388332
z" fill="none" stroke="none"></path>
<circle cx="0" cy="0" r="2.174272801966044" fill="#ffda00">
  <animateMotion begin="-4.062787874698279s" dur="5.51s" repeatCount="indefinite">
    <mpath xlink:href="#path8"></mpath>
  </animateMotion>
</circle><path id="path9" d="M 1440.4944917426353 46.63470929030887
c 0 18.85757962766381 -4.614088632300719 5.416538829222584 -10.030627461523302 5.416538829222584
S 1420.4332368195885 65.49228891797267 1420.4332368195885 46.63470929030887
s 4.614088632300719 -5.416538829222584 10.030627461523302 -5.416538829222584
S 1440.4944917426353 27.77712966264506 1440.4944917426353 46.63470929030887
z" fill="none" stroke="none"></path>
<circle cx="0" cy="0" r="3.2719901327634022" fill="#ffffff">
  <animateMotion begin="-3.2284887145967245s" dur="5.51s" repeatCount="indefinite">
    <mpath xlink:href="#path9"></mpath>
  </animateMotion>
</circle><path id="path10" d="M 1488.877343736133 1342.6127268337946
c 0 23.34692868591352 -5.712546380595861 6.706032707656012 -12.418579088251873 6.706032707656012
S 1464.0401855596294 1365.9596555197081 1464.0401855596294 1342.6127268337946
s 5.712546380595861 -6.706032707656012 12.418579088251873 -6.706032707656012
S 1488.877343736133 1319.265798147881 1488.877343736133 1342.6127268337946
z" fill="none" stroke="none"></path>
<circle cx="0" cy="0" r="3.2518849601240785" fill="#ffffff">
  <animateMotion begin="-4.0284855463817575s" dur="5.51s" repeatCount="indefinite">
    <mpath xlink:href="#path10"></mpath>
  </animateMotion>
</circle><path id="path11" d="M 1677.150800176778 587.6186271167974
c 0 23.27912036084955 -5.6959549819099955 6.686555848329126 -12.382510830239122 6.686555848329126
S 1652.3857785162995 610.8977474776469 1652.3857785162995 587.6186271167974
s 5.6959549819099955 -6.686555848329126 12.382510830239122 -6.686555848329126
S 1677.150800176778 564.3395067559478 1677.150800176778 587.6186271167974
z" fill="none" stroke="none"></path>
<circle cx="0" cy="0" r="3.8617280471987754" fill="#2d2d2d">
  <animateMotion begin="-3.045779540225489s" dur="5.51s" repeatCount="indefinite">
    <mpath xlink:href="#path11"></mpath>
  </animateMotion>
</circle><path id="path12" d="M 1266.5351724230204 1374.436520044262
c 0 27.444967672404726 -6.7152580475032835 7.883129012286465 -14.598387059789747 7.883129012286465
S 1237.338398303441 1401.8814877166667 1237.338398303441 1374.436520044262
s 6.7152580475032835 -7.883129012286465 14.598387059789747 -7.883129012286465
S 1266.5351724230204 1346.991552371857 1266.5351724230204 1374.436520044262
z" fill="none" stroke="none"></path>
<circle cx="0" cy="0" r="3.7587772872823177" fill="#ffda00">
  <animateMotion begin="-2.5202542001567214s" dur="5.51s" repeatCount="indefinite">
    <mpath xlink:href="#path12"></mpath>
  </animateMotion>
</circle><path id="path13" d="M 146.80963465512932 960.1367085193259
c 0 35.32712604610675 -8.643871266600586 10.147153226009385 -18.79102449260997 10.147153226009385
S 109.22758566990936 995.4638345654326 109.22758566990936 960.1367085193259
s 8.643871266600586 -10.147153226009385 18.79102449260997 -10.147153226009385
S 146.80963465512932 924.8095824732192 146.80963465512932 960.1367085193259
z" fill="none" stroke="none"></path>
<circle cx="0" cy="0" r="3.201699801750005" fill="#ffffff">
  <animateMotion begin="-5.126495829580604s" dur="5.51s" repeatCount="indefinite">
    <mpath xlink:href="#path13"></mpath>
  </animateMotion>
</circle><path id="path14" d="M 969.4652419279793 483.8178902331144
c 0 26.137560531647697 -6.395360555615925 7.507597173983913 -13.902957729599839 7.507597173983913
S 941.6593264687796 509.9554507647621 941.6593264687796 483.8178902331144
s 6.395360555615925 -7.507597173983913 13.902957729599839 -7.507597173983913
S 969.4652419279793 457.6803297014667 969.4652419279793 483.8178902331144
z" fill="none" stroke="none"></path>
<circle cx="0" cy="0" r="3.22675315068332" fill="#ffda00">
  <animateMotion begin="-4.21491668732533s" dur="5.51s" repeatCount="indefinite">
    <mpath xlink:href="#path14"></mpath>
  </animateMotion>
</circle><path id="path15" d="M 1655.038483647007 1402.548983131856
c 0 21.283264760463748 -5.207607335007087 6.113278175877886 -11.320885510884972 6.113278175877886
S 1632.3967126252373 1423.8322478923196 1632.3967126252373 1402.548983131856
s 5.207607335007087 -6.113278175877886 11.320885510884972 -6.113278175877886
S 1655.038483647007 1381.2657183713923 1655.038483647007 1402.548983131856
z" fill="none" stroke="none"></path>
<circle cx="0" cy="0" r="2.232377499553668" fill="#ffffff">
  <animateMotion begin="-4.247907164427643s" dur="5.51s" repeatCount="indefinite">
    <mpath xlink:href="#path15"></mpath>
  </animateMotion>
</circle><path id="path16" d="M 42.3438626133548 62.39643988550682
c 0 21.069821828240176 -5.155381936697064 6.0519700996009025 -11.207352036297966 6.0519700996009025
S 19.92915854075887 83.466261713747 19.92915854075887 62.39643988550682
s 5.155381936697064 -6.0519700996009025 11.207352036297966 -6.0519700996009025
S 42.3438626133548 41.32661805726664 42.3438626133548 62.39643988550682
z" fill="none" stroke="none"></path>
<circle cx="0" cy="0" r="3.494693615947573" fill="#2d2d2d">
  <animateMotion begin="-0.5214382977471672s" dur="5.51s" repeatCount="indefinite">
    <mpath xlink:href="#path16"></mpath>
  </animateMotion>
</circle><path id="path17" d="M 622.6435028220036 801.0288752347491
c 0 21.338130300635104 -5.221031882070291 6.129037426778168 -11.350069308848457 6.129037426778168
S 599.9433642043067 822.3670055353842 599.9433642043067 801.0288752347491
s 5.221031882070291 -6.129037426778168 11.350069308848457 -6.129037426778168
S 622.6435028220036 779.6907449341139 622.6435028220036 801.0288752347491
z" fill="none" stroke="none"></path>
<circle cx="0" cy="0" r="2.664638763888234" fill="#ffffff">
  <animateMotion begin="-5.2696392009797774s" dur="5.51s" repeatCount="indefinite">
    <mpath xlink:href="#path17"></mpath>
  </animateMotion>
</circle><path id="path18" d="M 2328.1715649958533 676.7795719223855
c 0 34.45558051613098 -8.430620764585239 9.89681568016528 -18.32743644475052 9.89681568016528
S 2291.516692106352 711.2351524385165 2291.516692106352 676.7795719223855
s 8.430620764585239 -9.89681568016528 18.32743644475052 -9.89681568016528
S 2328.1715649958533 642.3239914062544 2328.1715649958533 676.7795719223855
z" fill="none" stroke="none"></path>
<circle cx="0" cy="0" r="3.8549921827659923" fill="#2d2d2d">
  <animateMotion begin="-1.2046928508127912s" dur="5.51s" repeatCount="indefinite">
    <mpath xlink:href="#path18"></mpath>
  </animateMotion>
</circle><path id="path19" d="M 804.5841746839089 700.2388902578664
c 0 35.678186071756855 -8.729768932451146 10.247989616355692 -18.97775854880684 10.247989616355692
S 766.6286575862953 735.9170763296232 766.6286575862953 700.2388902578664
s 8.729768932451146 -10.247989616355692 18.97775854880684 -10.247989616355692
S 804.5841746839089 664.5607041861095 804.5841746839089 700.2388902578664
z" fill="none" stroke="none"></path>
<circle cx="0" cy="0" r="3.97634058118313" fill="#2d2d2d">
  <animateMotion begin="-1.5751969572513789s" dur="5.51s" repeatCount="indefinite">
    <mpath xlink:href="#path19"></mpath>
  </animateMotion>
</circle><path id="path20" d="M 1379.4717791702035 547.6562839587617
c 0 32.83369082692144 -8.033775415097798 9.430953748158286 -17.464729163256084 9.430953748158286
S 1344.5423208436912 580.4899747856832 1344.5423208436912 547.6562839587617
s 8.033775415097798 -9.430953748158286 17.464729163256084 -9.430953748158286
S 1379.4717791702035 514.8225931318402 1379.4717791702035 547.6562839587617
z" fill="none" stroke="none"></path>
<circle cx="0" cy="0" r="2.3982657904036535" fill="#2d2d2d">
  <animateMotion begin="-0.866250680727842s" dur="5.51s" repeatCount="indefinite">
    <mpath xlink:href="#path20"></mpath>
  </animateMotion>
</circle><path id="path21" d="M 1007.0884296155527 791.367338747225
c 0 20.329198678663204 -4.974165634140996 5.839237918339431 -10.813403552480427 5.839237918339431
S 985.461622510592 811.6965374258882 985.461622510592 791.367338747225
s 4.974165634140996 -5.839237918339431 10.813403552480427 -5.839237918339431
S 1007.0884296155527 771.0381400685617 1007.0884296155527 791.367338747225
z" fill="none" stroke="none"></path>
<circle cx="0" cy="0" r="2.1969520118479466" fill="#ffda00">
  <animateMotion begin="-0.8697097805098799s" dur="5.51s" repeatCount="indefinite">
    <mpath xlink:href="#path21"></mpath>
  </animateMotion>
</circle><path id="path22" d="M 2419.545976329002 237.24767304146565
c 0 20.334650799938252 -4.975499663814678 5.8408039531737534 -10.816303616988431 5.8408039531737534
S 2397.913369095025 257.5823238414039 2397.913369095025 237.24767304146565
s 4.975499663814678 -5.8408039531737534 10.816303616988431 -5.8408039531737534
S 2419.545976329002 216.9130222415274 2419.545976329002 237.24767304146565
z" fill="none" stroke="none"></path>
<circle cx="0" cy="0" r="3.920328504828952" fill="#ffda00">
  <animateMotion begin="-2.5817600280294357s" dur="5.51s" repeatCount="indefinite">
    <mpath xlink:href="#path22"></mpath>
  </animateMotion>
</circle><path id="path23" d="M 2438.3724540498697 1329.9631574944308
c 0 22.005111264604427 -5.3842293519776785 6.320617065365102 -11.70484641734278 6.320617065365102
S 2414.9627612151844 1351.9682687590353 2414.9627612151844 1329.9631574944308
s 5.3842293519776785 -6.320617065365102 11.70484641734278 -6.320617065365102
S 2438.3724540498697 1307.9580462298263 2438.3724540498697 1329.9631574944308
z" fill="none" stroke="none"></path>
<circle cx="0" cy="0" r="3.0362605841177865" fill="#ffffff">
  <animateMotion begin="-1.0109539937466208s" dur="5.51s" repeatCount="indefinite">
    <mpath xlink:href="#path23"></mpath>
  </animateMotion>
</circle><path id="path24" d="M 391.3138907860464 705.0124125777741
c 0 26.749298062277933 -6.545041015238217 7.683309017888343 -14.22835003312656 7.683309017888343
S 362.85719071979327 731.761710640052 362.85719071979327 705.0124125777741
s 6.545041015238217 -7.683309017888343 14.22835003312656 -7.683309017888343
S 391.3138907860464 678.2631145154961 391.3138907860464 705.0124125777741
z" fill="none" stroke="none"></path>
<circle cx="0" cy="0" r="2.7856670899381535" fill="#ffda00">
  <animateMotion begin="-3.2827674707522116s" dur="5.51s" repeatCount="indefinite">
    <mpath xlink:href="#path24"></mpath>
  </animateMotion>
</circle><path id="path25" d="M 146.232333594521 6.4397729990579595
c 0 19.046281390233993 -4.660260340163636 5.470740399322531 -10.131000739486167 5.470740399322531
S 125.97033211554869 25.48605438929195 125.97033211554869 6.4397729990579595
s 4.660260340163636 -5.470740399322531 10.131000739486167 -5.470740399322531
S 146.232333594521 -12.606508391176034 146.232333594521 6.4397729990579595
z" fill="none" stroke="none"></path>
<circle cx="0" cy="0" r="3.209433978938522" fill="#ffffff">
  <animateMotion begin="-4.6974165642302115s" dur="5.51s" repeatCount="indefinite">
    <mpath xlink:href="#path25"></mpath>
  </animateMotion>
</circle><path id="path26" d="M 1041.4815282247894 1139.2021559642415
c 0 19.3763300268384 -4.741016921460459 5.565541603453584 -10.306558524914042 5.565541603453584
S 1020.8684111749614 1158.5784859910798 1020.8684111749614 1139.2021559642415
s 4.741016921460459 -5.565541603453584 10.306558524914042 -5.565541603453584
S 1041.4815282247894 1119.8258259374031 1041.4815282247894 1139.2021559642415
z" fill="none" stroke="none"></path>
<circle cx="0" cy="0" r="3.455859187006216" fill="#ffffff">
  <animateMotion begin="-0.9382327903409237s" dur="5.51s" repeatCount="indefinite">
    <mpath xlink:href="#path26"></mpath>
  </animateMotion>
</circle><path id="path27" d="M 527.4350144931525 877.9755276993593
c 0 29.683107385104034 -7.262887977206305 8.525998929763924 -15.78888690697023 8.525998929763924
S 495.857240679212 907.6586350844633 495.857240679212 877.9755276993593
s 7.262887977206305 -8.525998929763924 15.78888690697023 -8.525998929763924
S 527.4350144931525 848.2924203142553 527.4350144931525 877.9755276993593
z" fill="none" stroke="none"></path>
<circle cx="0" cy="0" r="2.7166842500295068" fill="#ffda00">
  <animateMotion begin="-1.435258152302446s" dur="5.51s" repeatCount="indefinite">
    <mpath xlink:href="#path27"></mpath>
  </animateMotion>
</circle><path id="path28" d="M 1158.068053181341 566.9698668582316
c 0 35.264572361140274 -8.628565577725812 10.129185678199867 -18.75775125592568 10.129185678199867
S 1120.5525506694894 602.2344392193719 1120.5525506694894 566.9698668582316
s 8.628565577725812 -10.129185678199867 18.75775125592568 -10.129185678199867
S 1158.068053181341 531.7052944970914 1158.068053181341 566.9698668582316
z" fill="none" stroke="none"></path>
<circle cx="0" cy="0" r="3.455976178619673" fill="#ffffff">
  <animateMotion begin="-0.5407863680875253s" dur="5.51s" repeatCount="indefinite">
    <mpath xlink:href="#path28"></mpath>
  </animateMotion>
</circle><path id="path29" d="M 1764.082012011415 20.122099170766425
c 0 25.84324897330683 -6.323348153043161 7.4230608753115375 -13.746409028354698 7.4230608753115375
S 1736.5891939547055 45.96534814407326 1736.5891939547055 20.122099170766425
s 6.323348153043161 -7.4230608753115375 13.746409028354698 -7.4230608753115375
S 1764.082012011415 -5.721149802540406 1764.082012011415 20.122099170766425
z" fill="none" stroke="none"></path>
<circle cx="0" cy="0" r="2.7720511578807177" fill="#ffda00">
  <animateMotion begin="-2.4062765972893465s" dur="5.51s" repeatCount="indefinite">
    <mpath xlink:href="#path29"></mpath>
  </animateMotion>
</circle><path id="path30" d="M 351.57445895928913 682.6709347891617
c 0 23.485472972851458 -5.746445514633867 6.745827343265844 -12.49227285789971 6.745827343265844
S 326.5899132434897 706.1564077620131 326.5899132434897 682.6709347891617
s 5.746445514633867 -6.745827343265844 12.49227285789971 -6.745827343265844
S 351.57445895928913 659.1854618163103 351.57445895928913 682.6709347891617
z" fill="none" stroke="none"></path>
<circle cx="0" cy="0" r="3.7289986891756706" fill="#ffffff">
  <animateMotion begin="-4.398356966543231s" dur="5.51s" repeatCount="indefinite">
    <mpath xlink:href="#path30"></mpath>
  </animateMotion>
</circle><path id="path31" d="M 2081.085122236661 151.17288323958337
c 0 20.791850169724242 -5.087367594719761 5.972127176410155 -11.059494771129916 5.972127176410155
S 2058.9661326944015 171.9647334093076 2058.9661326944015 151.17288323958337
s 5.087367594719761 -5.972127176410155 11.059494771129916 -5.972127176410155
S 2081.085122236661 130.38103306985914 2081.085122236661 151.17288323958337
z" fill="none" stroke="none"></path>
<circle cx="0" cy="0" r="2.97994964003032" fill="#ffda00">
  <animateMotion begin="-0.5789480576075727s" dur="5.51s" repeatCount="indefinite">
    <mpath xlink:href="#path31"></mpath>
  </animateMotion>
</circle><path id="path32" d="M 2265.308278599035 524.2753897453458
c 0 34.22934362076687 -8.375264928485509 9.831832742135164 -18.207097670620673 9.831832742135164
S 2228.894083257793 558.5047333661126 2228.894083257793 524.2753897453458
s 8.375264928485509 -9.831832742135164 18.207097670620673 -9.831832742135164
S 2265.308278599035 490.04604612457894 2265.308278599035 524.2753897453458
z" fill="none" stroke="none"></path>
<circle cx="0" cy="0" r="3.5584913455237106" fill="#2d2d2d">
  <animateMotion begin="-1.5625300602643324s" dur="5.51s" repeatCount="indefinite">
    <mpath xlink:href="#path32"></mpath>
  </animateMotion>
</circle><path id="path33" d="M 1397.2594273513107 378.3904417436814
c 0 24.5088199575793 -5.996838925790679 7.039767434623841 -13.03660636041452 7.039767434623841
S 1371.1862146304818 402.8992617012607 1371.1862146304818 378.3904417436814
s 5.996838925790679 -7.039767434623841 13.03660636041452 -7.039767434623841
S 1397.2594273513107 353.8816217861021 1397.2594273513107 378.3904417436814
z" fill="none" stroke="none"></path>
<circle cx="0" cy="0" r="2.961452893029109" fill="#ffffff">
  <animateMotion begin="-2.8435465318941784s" dur="5.51s" repeatCount="indefinite">
    <mpath xlink:href="#path33"></mpath>
  </animateMotion>
</circle><path id="path34" d="M 2164.251313545127 351.66760740339527
c 0 28.809202761204908 -7.049060250082052 8.274983771835453 -15.324044021917505 8.274983771835453
S 2133.603225501292 380.4768101646002 2133.603225501292 351.66760740339527
s 7.049060250082052 -8.274983771835453 15.324044021917505 -8.274983771835453
S 2164.251313545127 322.85840464219035 2164.251313545127 351.66760740339527
z" fill="none" stroke="none"></path>
<circle cx="0" cy="0" r="3.6173449171795835" fill="#ffda00">
  <animateMotion begin="-4.414899977287211s" dur="5.51s" repeatCount="indefinite">
    <mpath xlink:href="#path34"></mpath>
  </animateMotion>
</circle><path id="path35" d="M 357.34340545179725 486.8599677346544
c 0 35.49025826138112 -8.683786595869849 10.194010351673302 -18.87779694754315 10.194010351673302
S 319.5878115567109 522.3502259960355 319.5878115567109 486.8599677346544
s 8.683786595869849 -10.194010351673302 18.87779694754315 -10.194010351673302
S 357.34340545179725 451.36970947327325 357.34340545179725 486.8599677346544
z" fill="none" stroke="none"></path>
<circle cx="0" cy="0" r="3.7436539549182117" fill="#ffda00">
  <animateMotion begin="-2.334224227275841s" dur="5.51s" repeatCount="indefinite">
    <mpath xlink:href="#path35"></mpath>
  </animateMotion>
</circle><path id="path36" d="M 669.4584434973734 509.75149095343227
c 0 22.55150327175592 -5.517921013301979 6.477559450397977 -11.995480463699957 6.477559450397977
S 645.4674825699734 532.3029942251882 645.4674825699734 509.75149095343227
s 5.517921013301979 -6.477559450397977 11.995480463699957 -6.477559450397977
S 669.4584434973734 487.19998768167636 669.4584434973734 509.75149095343227
z" fill="none" stroke="none"></path>
<circle cx="0" cy="0" r="2.359335802551403" fill="#ffffff">
  <animateMotion begin="-4.738270892926072s" dur="5.51s" repeatCount="indefinite">
    <mpath xlink:href="#path36"></mpath>
  </animateMotion>
</circle><path id="path37" d="M 685.626229874528 442.11782165037624
c 0 22.20579502741628 -5.433332825857175 6.3782602738323355 -11.81159309968951 6.3782602738323355
S 662.003043675149 464.32361667779253 662.003043675149 442.11782165037624
s 5.433332825857175 -6.3782602738323355 11.81159309968951 -6.3782602738323355
S 685.626229874528 419.91202662295996 685.626229874528 442.11782165037624
z" fill="none" stroke="none"></path>
<circle cx="0" cy="0" r="2.1858667409938244" fill="#2d2d2d">
  <animateMotion begin="-1.5109792393450177s" dur="5.51s" repeatCount="indefinite">
    <mpath xlink:href="#path37"></mpath>
  </animateMotion>
</circle><path id="path38" d="M 2294.390820473897 185.19343988067928
c 0 20.41513132651057 -4.9951917075504575 5.86392070016793 -10.859112407718388 5.86392070016793
S 2272.67259565846 205.60857120718984 2272.67259565846 185.19343988067928
s 4.9951917075504575 -5.86392070016793 10.859112407718388 -5.86392070016793
S 2294.390820473897 164.77830855416872 2294.390820473897 185.19343988067928
z" fill="none" stroke="none"></path>
<circle cx="0" cy="0" r="2.54900513554908" fill="#2d2d2d">
  <animateMotion begin="-3.270137413860367s" dur="5.51s" repeatCount="indefinite">
    <mpath xlink:href="#path38"></mpath>
  </animateMotion>
</circle><path id="path39" d="M 1720.1767706963906 1070.9149480756662
c 0 36.465982611534315 -8.922527660269033 10.474271601185388 -19.39679926145442 10.474271601185388
S 1681.3831721734819 1107.3809306872006 1681.3831721734819 1070.9149480756662
s 8.922527660269033 -10.474271601185388 19.39679926145442 -10.474271601185388
S 1720.1767706963906 1034.4489654641318 1720.1767706963906 1070.9149480756662
z" fill="none" stroke="none"></path>
<circle cx="0" cy="0" r="3.6899483120207934" fill="#2d2d2d">
  <animateMotion begin="-1.526694916931379s" dur="5.51s" repeatCount="indefinite">
    <mpath xlink:href="#path39"></mpath>
  </animateMotion>
</circle><path id="path40" d="M 1419.9540735990333 983.0886832364931
c 0 27.958445900300593 -6.840896337307591 8.030617439448044 -14.871513776755634 8.030617439448044
S 1390.2110460455222 1011.0471291367937 1390.2110460455222 983.0886832364931
s 6.840896337307591 -8.030617439448044 14.871513776755634 -8.030617439448044
S 1419.9540735990333 955.1302373361925 1419.9540735990333 983.0886832364931
z" fill="none" stroke="none"></path>
<circle cx="0" cy="0" r="2.905634104060503" fill="#ffda00">
  <animateMotion begin="-5.043566410216873s" dur="5.51s" repeatCount="indefinite">
    <mpath xlink:href="#path40"></mpath>
  </animateMotion>
</circle><path id="path41" d="M 2062.7105619024537 1112.0247560296868
c 0 25.94245212419704 -6.34762126443119 7.451555397375746 -13.799176661806936 7.451555397375746
S 2035.1122085788397 1137.9672081538838 2035.1122085788397 1112.0247560296868
s 6.34762126443119 -7.451555397375746 13.799176661806936 -7.451555397375746
S 2062.7105619024537 1086.0823039054899 2062.7105619024537 1112.0247560296868
z" fill="none" stroke="none"></path>
<circle cx="0" cy="0" r="2.978936529431095" fill="#ffda00">
  <animateMotion begin="-2.145822029788831s" dur="5.51s" repeatCount="indefinite">
    <mpath xlink:href="#path41"></mpath>
  </animateMotion>
</circle><path id="path42" d="M 93.28925155512292 1202.680806299807
c 0 28.3439093142287 -6.93521185348149 8.141335654086967 -15.076547507568456 8.141335654086967
S 63.13615653998601 1231.0247156140358 63.13615653998601 1202.680806299807
s 6.93521185348149 -8.141335654086967 15.076547507568456 -8.141335654086967
S 93.28925155512292 1174.3368969855783 93.28925155512292 1202.680806299807
z" fill="none" stroke="none"></path>
<circle cx="0" cy="0" r="2.736111017173546" fill="#ffda00">
  <animateMotion begin="-3.736089273576601s" dur="5.51s" repeatCount="indefinite">
    <mpath xlink:href="#path42"></mpath>
  </animateMotion>
</circle><path id="path43" d="M 1053.8161156546676 1641.0104450965755
c 0 19.311156507338406 -4.725070209242375 5.54682154998018 -10.271891759222555 5.54682154998018
S 1033.2723321362223 1660.321601603914 1033.2723321362223 1641.0104450965755
s 4.725070209242375 -5.54682154998018 10.271891759222555 -5.54682154998018
S 1053.8161156546676 1621.699288589237 1053.8161156546676 1641.0104450965755
z" fill="none" stroke="none"></path>
<circle cx="0" cy="0" r="3.852704752833652" fill="#ffda00">
  <animateMotion begin="-4.745976624507939s" dur="5.51s" repeatCount="indefinite">
    <mpath xlink:href="#path43"></mpath>
  </animateMotion>
</circle><path id="path44" d="M 1910.1157566770805 507.1472189662454
c 0 19.472586550825042 -4.764569049669957 5.5931897539603845 -10.357758803630341 5.5931897539603845
S 1889.40023906982 526.6198055170705 1889.40023906982 507.1472189662454
s 4.764569049669957 -5.5931897539603845 10.357758803630341 -5.5931897539603845
S 1910.1157566770805 487.6746324154204 1910.1157566770805 507.1472189662454
z" fill="none" stroke="none"></path>
<circle cx="0" cy="0" r="3.2501247322320057" fill="#ffffff">
  <animateMotion begin="-0.20466609985411643s" dur="5.51s" repeatCount="indefinite">
    <mpath xlink:href="#path44"></mpath>
  </animateMotion>
</circle><path id="path45" d="M 1974.3617452250296 1203.1033576418688
c 0 24.319653749725894 -5.950553577060591 6.98543246002765 -12.935986037088242 6.98543246002765
S 1948.4897731508531 1227.4230113915946 1948.4897731508531 1203.1033576418688
s 5.950553577060591 -6.98543246002765 12.935986037088242 -6.98543246002765
S 1974.3617452250296 1178.783703892143 1974.3617452250296 1203.1033576418688
z" fill="none" stroke="none"></path>
<circle cx="0" cy="0" r="3.0069573814516555" fill="#2d2d2d">
  <animateMotion begin="-5.304684299337853s" dur="5.51s" repeatCount="indefinite">
    <mpath xlink:href="#path45"></mpath>
  </animateMotion>
</circle><path id="path46" d="M 698.600552751245 234.69913032839355
c 0 36.84392891168693 -9.015003882646802 10.582830644846247 -19.59783452749305 10.582830644846247
S 659.4048836962588 271.5430592400805 659.4048836962588 234.69913032839355
s 9.015003882646802 -10.582830644846247 19.59783452749305 -10.582830644846247
S 698.600552751245 197.85520141670662 698.600552751245 234.69913032839355
z" fill="none" stroke="none"></path>
<circle cx="0" cy="0" r="2.378842918675562" fill="#ffda00">
  <animateMotion begin="-3.7505724845436292s" dur="5.51s" repeatCount="indefinite">
    <mpath xlink:href="#path46"></mpath>
  </animateMotion>
</circle><path id="path47" d="M 753.1503218387911 1447.698923404474
c 0 31.534206813883653 -7.715816560843872 9.057697701860198 -16.77351426270407 9.057697701860198
S 719.6032933133829 1479.2331302183577 719.6032933133829 1447.698923404474
s 7.715816560843872 -9.057697701860198 16.77351426270407 -9.057697701860198
S 753.1503218387911 1416.1647165905904 753.1503218387911 1447.698923404474
z" fill="none" stroke="none"></path>
<circle cx="0" cy="0" r="3.88692485693118" fill="#ffda00">
  <animateMotion begin="-2.0635174020354934s" dur="5.51s" repeatCount="indefinite">
    <mpath xlink:href="#path47"></mpath>
  </animateMotion>
</circle><path id="path48" d="M 1548.179375600873 1045.8758114867035
c 0 32.546856815394676 -7.963592625043377 9.348565255485704 -17.31215788052908 9.348565255485704
S 1513.5550598398147 1078.4226683020981 1513.5550598398147 1045.8758114867035
s 7.963592625043377 -9.348565255485704 17.31215788052908 -9.348565255485704
S 1548.179375600873 1013.3289546713088 1548.179375600873 1045.8758114867035
z" fill="none" stroke="none"></path>
<circle cx="0" cy="0" r="2.7809395007485818" fill="#ffffff">
  <animateMotion begin="-4.944641840812418s" dur="5.51s" repeatCount="indefinite">
    <mpath xlink:href="#path48"></mpath>
  </animateMotion>
</circle><path id="path49" d="M 1379.9646688687021 1318.514691551689
c 0 33.36094791015854 -8.162785126953684 9.582399931641284 -17.745185058594966 9.582399931641284
S 1344.4742987515124 1351.8756394618476 1344.4742987515124 1318.514691551689
s 8.162785126953684 -9.582399931641284 17.745185058594966 -9.582399931641284
S 1379.9646688687021 1285.1537436415306 1379.9646688687021 1318.514691551689
z" fill="none" stroke="none"></path>
<circle cx="0" cy="0" r="3.105710972320923" fill="#ffffff">
  <animateMotion begin="-0.8328511352433817s" dur="5.51s" repeatCount="indefinite">
    <mpath xlink:href="#path49"></mpath>
  </animateMotion>
</circle><path id="path50" d="M 1806.1241713764616 1381.314269815088
c 0 22.475872166035447 -5.499415529987395 6.4558356221591175 -11.955251152146513 6.4558356221591175
S 1782.2136690721686 1403.7901419811235 1782.2136690721686 1381.314269815088
s 5.499415529987395 -6.4558356221591175 11.955251152146513 -6.4558356221591175
S 1806.1241713764616 1358.8383976490525 1806.1241713764616 1381.314269815088
z" fill="none" stroke="none"></path>
<circle cx="0" cy="0" r="3.590343191556824" fill="#2d2d2d">
  <animateMotion begin="-5.415049103617128s" dur="5.51s" repeatCount="indefinite">
    <mpath xlink:href="#path50"></mpath>
  </animateMotion>
</circle><path id="path51" d="M 1256.1001810972907 678.0915823687918
c 0 29.06381848207742 -7.111359841359368 8.34811807463926 -15.459477915998628 8.34811807463926
S 1225.1812252652935 707.1554008508692 1225.1812252652935 678.0915823687918
s 7.111359841359368 -8.34811807463926 15.459477915998628 -8.34811807463926
S 1256.1001810972907 649.0277638867144 1256.1001810972907 678.0915823687918
z" fill="none" stroke="none"></path>
<circle cx="0" cy="0" r="3.017403351255413" fill="#ffffff">
  <animateMotion begin="-2.6950549155098913s" dur="5.51s" repeatCount="indefinite">
    <mpath xlink:href="#path51"></mpath>
  </animateMotion>
</circle><path id="path52" d="M 901.1290794013541 643.0006097889773
c 0 25.044971456484706 -6.1280249308420025 7.193768397075395 -13.321793327917398 7.193768397075395
S 874.4854927455194 668.045581245462 874.4854927455194 643.0006097889773
s 6.1280249308420025 -7.193768397075395 13.321793327917398 -7.193768397075395
S 901.1290794013541 617.9556383324925 901.1290794013541 643.0006097889773
z" fill="none" stroke="none"></path>
<circle cx="0" cy="0" r="3.8202229950884394" fill="#ffda00">
  <animateMotion begin="-0.6332376471853712s" dur="5.51s" repeatCount="indefinite">
    <mpath xlink:href="#path52"></mpath>
  </animateMotion>
</circle><path id="path53" d="M 285.9913760466471 1402.9958194514086
c 0 34.432172760414176 -8.424893334994957 9.890092175863646 -18.314985510858605 9.890092175863646
S 249.36140502492987 1437.4279922118228 249.36140502492987 1402.9958194514086
s 8.424893334994957 -9.890092175863646 18.314985510858605 -9.890092175863646
S 285.9913760466471 1368.5636466909943 285.9913760466471 1402.9958194514086
z" fill="none" stroke="none"></path>
<circle cx="0" cy="0" r="2.6756724103189042" fill="#2d2d2d">
  <animateMotion begin="-4.038685365431531s" dur="5.51s" repeatCount="indefinite">
    <mpath xlink:href="#path53"></mpath>
  </animateMotion>
</circle><path id="path54" d="M 1167.8835744995422 660.6852323540181
c 0 21.81404255765448 -5.3374784981495 6.2657356282624574 -11.603214126411958 6.2657356282624574
S 1144.6771462467182 682.4992749116726 1144.6771462467182 660.6852323540181
s 5.3374784981495 -6.2657356282624574 11.603214126411958 -6.2657356282624574
S 1167.8835744995422 638.8711897963636 1167.8835744995422 660.6852323540181
z" fill="none" stroke="none"></path>
<circle cx="0" cy="0" r="2.092522343363252" fill="#2d2d2d">
  <animateMotion begin="-0.5893689850886896s" dur="5.51s" repeatCount="indefinite">
    <mpath xlink:href="#path54"></mpath>
  </animateMotion>
</circle><path id="path55" d="M 2375.0328016125195 388.9214977976112
c 0 29.861242107727392 -7.306474132741808 8.577165286262124 -15.883639419003933 8.577165286262124
S 2343.2655227745117 418.7827399053386 2343.2655227745117 388.9214977976112
s 7.306474132741808 -8.577165286262124 15.883639419003933 -8.577165286262124
S 2375.0328016125195 359.06025568988383 2375.0328016125195 388.9214977976112
z" fill="none" stroke="none"></path>
<circle cx="0" cy="0" r="2.1626447324028075" fill="#ffda00">
  <animateMotion begin="-2.668845628960695s" dur="5.51s" repeatCount="indefinite">
    <mpath xlink:href="#path55"></mpath>
  </animateMotion>
</circle><path id="path56" d="M 1147.6764746800563 1634.9798290653462
c 0 24.643625277595604 -6.0298232062201995 7.078488111649801 -13.108311317870001 7.078488111649801
S 1121.4598520443164 1659.6234543429418 1121.4598520443164 1634.9798290653462
s 6.0298232062201995 -7.078488111649801 13.108311317870001 -7.078488111649801
S 1147.6764746800563 1610.3362037877505 1147.6764746800563 1634.9798290653462
z" fill="none" stroke="none"></path>
<circle cx="0" cy="0" r="3.684553820805505" fill="#ffffff">
  <animateMotion begin="-1.3142398939114723s" dur="5.51s" repeatCount="indefinite">
    <mpath xlink:href="#path56"></mpath>
  </animateMotion>
</circle><path id="path57" d="M 500.2983461776366 774.7086716305082
c 0 29.313273818755285 -7.172396785440123 8.41977013942971 -15.592166924869833 8.41977013942971
S 469.1140123278969 804.0219454492635 469.1140123278969 774.7086716305082
s 7.172396785440123 -8.41977013942971 15.592166924869833 -8.41977013942971
S 500.2983461776366 745.3953978117529 500.2983461776366 774.7086716305082
z" fill="none" stroke="none"></path>
<circle cx="0" cy="0" r="3.622926875811484" fill="#2d2d2d">
  <animateMotion begin="-1.0215155731550294s" dur="5.51s" repeatCount="indefinite">
    <mpath xlink:href="#path57"></mpath>
  </animateMotion>
</circle><path id="path58" d="M 2195.181417025009 967.7306780672264
c 0 26.01082608938719 -6.3643510644245245 7.471194727802704 -13.83554579222723 7.471194727802704
S 2167.510325440555 993.7415041566136 2167.510325440555 967.7306780672264
s 6.3643510644245245 -7.471194727802704 13.83554579222723 -7.471194727802704
S 2195.181417025009 941.7198519778393 2195.181417025009 967.7306780672264
z" fill="none" stroke="none"></path>
<circle cx="0" cy="0" r="3.015373036556119" fill="#ffda00">
  <animateMotion begin="-5.4238777128223035s" dur="5.51s" repeatCount="indefinite">
    <mpath xlink:href="#path58"></mpath>
  </animateMotion>
</circle><path id="path59" d="M 2466.828513714615 121.31302054473261
c 0 22.125620689339584 -5.413715700583088 6.35523147459754 -11.768947175180628 6.35523147459754
S 2443.290619364254 143.43864123407218 2443.290619364254 121.31302054473261
s 5.413715700583088 -6.35523147459754 11.768947175180628 -6.35523147459754
S 2466.828513714615 99.18739985539302 2466.828513714615 121.31302054473261
z" fill="none" stroke="none"></path>
<circle cx="0" cy="0" r="3.5441086857088213" fill="#2d2d2d">
  <animateMotion begin="-2.117390208039058s" dur="5.51s" repeatCount="indefinite">
    <mpath xlink:href="#path59"></mpath>
  </animateMotion>
</circle><path id="path60" d="M 1951.9778711442875 960.0361718881119
c 0 31.125824081767494 -7.615893126389918 8.940396278805556 -16.556289405195475 8.940396278805556
S 1918.8652923338966 991.1619959698794 1918.8652923338966 960.0361718881119
s 7.615893126389918 -8.940396278805556 16.556289405195475 -8.940396278805556
S 1951.9778711442875 928.9103478063444 1951.9778711442875 960.0361718881119
z" fill="none" stroke="none"></path>
<circle cx="0" cy="0" r="2.028706089147388" fill="#ffffff">
  <animateMotion begin="-1.8701895665995745s" dur="5.51s" repeatCount="indefinite">
    <mpath xlink:href="#path60"></mpath>
  </animateMotion>
</circle><path id="path61" d="M 924.0790528625324 685.6758011826297
c 0 34.19790654844794 -8.367572878875558 9.822802944766961 -18.19037582364252 9.822802944766961
S 887.6983012152474 719.8737077310776 887.6983012152474 685.6758011826297
s 8.367572878875558 -9.822802944766961 18.19037582364252 -9.822802944766961
S 924.0790528625324 651.4778946341818 924.0790528625324 685.6758011826297
z" fill="none" stroke="none"></path>
<circle cx="0" cy="0" r="2.4986785108744383" fill="#ffffff">
  <animateMotion begin="-1.5642007696168967s" dur="5.51s" repeatCount="indefinite">
    <mpath xlink:href="#path61"></mpath>
  </animateMotion>
</circle><path id="path62" d="M 1552.66161383312 1241.3707833207957
c 0 32.928378161796175 -8.056943592779914 9.458151174132945 -17.51509476691286 9.458151174132945
S 1517.6314242992944 1274.299161482592 1517.6314242992944 1241.3707833207957
s 8.056943592779914 -9.458151174132945 17.51509476691286 -9.458151174132945
S 1552.66161383312 1208.4424051589995 1552.66161383312 1241.3707833207957
z" fill="none" stroke="none"></path>
<circle cx="0" cy="0" r="2.0247160165916176" fill="#ffda00">
  <animateMotion begin="-1.1744626059914705s" dur="5.51s" repeatCount="indefinite">
    <mpath xlink:href="#path62"></mpath>
  </animateMotion>
</circle><path id="path63" d="M 1519.8245788075888 1275.7323879207304
c 0 29.719824746520946 -7.271872012446614 8.536545405915591 -15.808417418362204 8.536545405915591
S 1488.2077439708642 1305.4522126672514 1488.2077439708642 1275.7323879207304
s 7.271872012446614 -8.536545405915591 15.808417418362204 -8.536545405915591
S 1519.8245788075888 1246.0125631742094 1519.8245788075888 1275.7323879207304
z" fill="none" stroke="none"></path>
<circle cx="0" cy="0" r="3.127496911454022" fill="#ffda00">
  <animateMotion begin="-1.4579653313532237s" dur="5.51s" repeatCount="indefinite">
    <mpath xlink:href="#path63"></mpath>
  </animateMotion>
</circle><path id="path64" d="M 1702.1841581143556 1034.4192152921287
c 0 35.66954493479658 -8.727654611705546 10.24550758765434 -18.973162199359884 10.24550758765434
S 1664.2378337156358 1070.0887602269252 1664.2378337156358 1034.4192152921287
s 8.727654611705546 -10.24550758765434 18.973162199359884 -10.24550758765434
S 1702.1841581143556 998.7496703573321 1702.1841581143556 1034.4192152921287
z" fill="none" stroke="none"></path>
<circle cx="0" cy="0" r="3.468968466917526" fill="#ffda00">
  <animateMotion begin="-2.7525475524866994s" dur="5.51s" repeatCount="indefinite">
    <mpath xlink:href="#path64"></mpath>
  </animateMotion>
</circle><path id="path65" d="M 1451.1043217225247 863.8897432867283
c 0 21.297881464307448 -5.211183762543311 6.117476590811713 -11.328660353355025 6.117476590811713
S 1428.4470010158147 885.1876247510357 1428.4470010158147 863.8897432867283
s 5.211183762543311 -6.117476590811713 11.328660353355025 -6.117476590811713
S 1451.1043217225247 842.5918618224208 1451.1043217225247 863.8897432867283
z" fill="none" stroke="none"></path>
<circle cx="0" cy="0" r="3.138148765230914" fill="#ffffff">
  <animateMotion begin="-4.333438738026799s" dur="5.51s" repeatCount="indefinite">
    <mpath xlink:href="#path65"></mpath>
  </animateMotion>
</circle><path id="path66" d="M 2199.89145270676 1517.27545236349
c 0 29.01332046376042 -7.099003943260527 8.333613324697142 -15.432617267957669 8.333613324697142
S 2169.026218170845 1546.2887728272506 2169.026218170845 1517.27545236349
s 7.099003943260527 -8.333613324697142 15.432617267957669 -8.333613324697142
S 2199.89145270676 1488.2621318997296 2199.89145270676 1517.27545236349
z" fill="none" stroke="none"></path>
<circle cx="0" cy="0" r="3.1901398368752645" fill="#ffda00">
  <animateMotion begin="-1.553765352989635s" dur="5.51s" repeatCount="indefinite">
    <mpath xlink:href="#path66"></mpath>
  </animateMotion>
</circle><path id="path67" d="M 1439.4853865526325 1354.4924226387345
c 0 19.716012582020603 -4.824130738153977 5.663109996963366 -10.487240735117343 5.663109996963366
S 1418.5109050823976 1374.208435220755 1418.5109050823976 1354.4924226387345
s 4.824130738153977 -5.663109996963366 10.487240735117343 -5.663109996963366
S 1439.4853865526325 1334.776410056714 1439.4853865526325 1354.4924226387345
z" fill="none" stroke="none"></path>
<circle cx="0" cy="0" r="3.516092092611441" fill="#ffffff">
  <animateMotion begin="-5.041787287771877s" dur="5.51s" repeatCount="indefinite">
    <mpath xlink:href="#path67"></mpath>
  </animateMotion>
</circle><path id="path68" d="M 1503.5292150230878 1198.060041690997
c 0 29.327377361175532 -7.175847652202523 8.423821156933398 -15.59966880913592 8.423821156933398
S 1472.329877404816 1227.3874190521724 1472.329877404816 1198.060041690997
s 7.175847652202523 -8.423821156933398 15.59966880913592 -8.423821156933398
S 1503.5292150230878 1168.7326643298215 1503.5292150230878 1198.060041690997
z" fill="none" stroke="none"></path>
<circle cx="0" cy="0" r="3.423686619052611" fill="#ffffff">
  <animateMotion begin="-4.625751762621071s" dur="5.51s" repeatCount="indefinite">
    <mpath xlink:href="#path68"></mpath>
  </animateMotion>
</circle><path id="path69" d="M 2146.885340569589 836.2980217602377
c 0 29.3224582769976 -7.174644046499412 8.422408228499311 -15.597052274998724 8.422408228499311
S 2115.691236019592 865.6204800372353 2115.691236019592 836.2980217602377
s 7.174644046499412 -8.422408228499311 15.597052274998724 -8.422408228499311
S 2146.885340569589 806.9755634832401 2146.885340569589 836.2980217602377
z" fill="none" stroke="none"></path>
<circle cx="0" cy="0" r="3.073828689489755" fill="#ffda00">
  <animateMotion begin="-3.468902485976117s" dur="5.51s" repeatCount="indefinite">
    <mpath xlink:href="#path69"></mpath>
  </animateMotion>
</circle><path id="path70" d="M 1312.0395511105173 1020.937263933796
c 0 29.578590800061104 -7.237314770227716 8.49597820852819 -15.733292978755905 8.49597820852819
S 1280.5729651530057 1050.5158547338572 1280.5729651530057 1020.937263933796
s 7.237314770227716 -8.49597820852819 15.733292978755905 -8.49597820852819
S 1312.0395511105173 991.3586731337349 1312.0395511105173 1020.937263933796
z" fill="none" stroke="none"></path>
<circle cx="0" cy="0" r="3.5878135765370995" fill="#ffffff">
  <animateMotion begin="-3.3672267995696923s" dur="5.51s" repeatCount="indefinite">
    <mpath xlink:href="#path70"></mpath>
  </animateMotion>
</circle><path id="path71" d="M 1374.2848905708759 667.5046241053375
c 0 25.705875959831943 -6.289735607192922 7.383602669313431 -13.673338276506353 7.383602669313431
S 1346.938214017863 693.2105000651694 1346.938214017863 667.5046241053375
s 6.289735607192922 -7.383602669313431 13.673338276506353 -7.383602669313431
S 1374.2848905708759 641.7987481455056 1374.2848905708759 667.5046241053375
z" fill="none" stroke="none"></path>
<circle cx="0" cy="0" r="2.491918115518504" fill="#ffffff">
  <animateMotion begin="-5.079155537978026s" dur="5.51s" repeatCount="indefinite">
    <mpath xlink:href="#path71"></mpath>
  </animateMotion>
</circle><path id="path72" d="M 1260.4024692640537 785.5426864277971
c 0 25.35057902972575 -6.202801251954172 7.28154929577229 -13.484350547726462 7.28154929577229
S 1233.4337681686006 810.8932654575228 1233.4337681686006 785.5426864277971
s 6.202801251954172 -7.28154929577229 13.484350547726462 -7.28154929577229
S 1260.4024692640537 760.1921073980714 1260.4024692640537 785.5426864277971
z" fill="none" stroke="none"></path>
<circle cx="0" cy="0" r="3.7618762163995343" fill="#ffffff">
  <animateMotion begin="-3.427020467833076s" dur="5.51s" repeatCount="indefinite">
    <mpath xlink:href="#path72"></mpath>
  </animateMotion>
</circle><path id="path73" d="M 2479.472040759968 1168.1299240696594
c 0 32.419081068807145 -7.9323283466230246 9.311863711253118 -17.24419205787614 9.311863711253118
S 2444.9836566442154 1200.5490051384666 2444.9836566442154 1168.1299240696594
s 7.9323283466230246 -9.311863711253118 17.24419205787614 -9.311863711253118
S 2479.472040759968 1135.7108430008523 2479.472040759968 1168.1299240696594
z" fill="none" stroke="none"></path>
<circle cx="0" cy="0" r="2.7763030332540573" fill="#ffda00">
  <animateMotion begin="-3.0148634223490185s" dur="5.51s" repeatCount="indefinite">
    <mpath xlink:href="#path73"></mpath>
  </animateMotion>
</circle><path id="path74" d="M 366.2838869178166 745.2293017185466
c 0 25.991286615781846 -6.35957012939343 7.465582325809679 -13.82515245520311 7.465582325809679
S 338.6335820074103 771.2205883343285 338.6335820074103 745.2293017185466
s 6.35957012939343 -7.465582325809679 13.82515245520311 -7.465582325809679
S 366.2838869178166 719.2380151027647 366.2838869178166 745.2293017185466
z" fill="none" stroke="none"></path>
<circle cx="0" cy="0" r="2.6490922884491064" fill="#ffda00">
  <animateMotion begin="-2.760472053940232s" dur="5.51s" repeatCount="indefinite">
    <mpath xlink:href="#path74"></mpath>
  </animateMotion>
</circle><path id="path75" d="M 489.38291136623803 1535.0985520505808
c 0 26.060632762103815 -6.376537803493485 7.485500899753223 -13.862038703246709 7.485500899753223
S 461.65883395974464 1561.1591848126845 461.65883395974464 1535.0985520505808
s 6.376537803493485 -7.485500899753223 13.862038703246709 -7.485500899753223
S 489.38291136623803 1509.037919288477 489.38291136623803 1535.0985520505808
z" fill="none" stroke="none"></path>
<circle cx="0" cy="0" r="2.1763260104241158" fill="#2d2d2d">
  <animateMotion begin="-3.063001211937598s" dur="5.51s" repeatCount="indefinite">
    <mpath xlink:href="#path75"></mpath>
  </animateMotion>
</circle><path id="path76" d="M 1801.4043727918145 349.1230500599015
c 0 34.137549947435815 -8.352804774372592 9.80546647426348 -18.15827124863607 9.80546647426348
S 1765.0878302945423 383.2606000073373 1765.0878302945423 349.1230500599015
s 8.352804774372592 -9.80546647426348 18.15827124863607 -9.80546647426348
S 1801.4043727918145 314.98550011246573 1801.4043727918145 349.1230500599015
z" fill="none" stroke="none"></path>
<circle cx="0" cy="0" r="2.4982455539016346" fill="#ffffff">
  <animateMotion begin="-3.219444030350771s" dur="5.51s" repeatCount="indefinite">
    <mpath xlink:href="#path76"></mpath>
  </animateMotion>
</circle><path id="path77" d="M 899.4897141905686 303.40369919462034
c 0 35.59286590153596 -8.708892720588585 10.22348275895182 -18.932375479540404 10.22348275895182
S 861.6249632314879 338.9965650961563 861.6249632314879 303.40369919462034
s 8.708892720588585 -10.22348275895182 18.932375479540404 -10.22348275895182
S 899.4897141905686 267.8108332930844 899.4897141905686 303.40369919462034
z" fill="none" stroke="none"></path>
<circle cx="0" cy="0" r="2.8919191560821105" fill="#2d2d2d">
  <animateMotion begin="-1.8266047915141592s" dur="5.51s" repeatCount="indefinite">
    <mpath xlink:href="#path77"></mpath>
  </animateMotion>
</circle><path id="path78" d="M 1780.443301383275 985.6303309677149
c 0 21.43690879837353 -5.245201088963735 6.157409974000908 -11.402611062964642 6.157409974000908
S 1757.6380792573455 1007.0672397660885 1757.6380792573455 985.6303309677149
s 5.245201088963735 -6.157409974000908 11.402611062964642 -6.157409974000908
S 1780.443301383275 964.1934221693414 1780.443301383275 985.6303309677149
z" fill="none" stroke="none"></path>
<circle cx="0" cy="0" r="2.3746559314149986" fill="#2d2d2d">
  <animateMotion begin="-2.350011710265542s" dur="5.51s" repeatCount="indefinite">
    <mpath xlink:href="#path78"></mpath>
  </animateMotion>
</circle><path id="path79" d="M 2047.6351642388825 794.3101900379344
c 0 24.253180126457305 -5.9342887543459355 6.966338972493055 -12.90062772683899 6.966338972493055
S 2021.8339087852044 818.5633701643917 2021.8339087852044 794.3101900379344
s 5.9342887543459355 -6.966338972493055 12.90062772683899 -6.966338972493055
S 2047.6351642388825 770.057009911477 2047.6351642388825 794.3101900379344
z" fill="none" stroke="none"></path>
<circle cx="0" cy="0" r="2.036711239856627" fill="#ffffff">
  <animateMotion begin="-2.2581682541717867s" dur="5.51s" repeatCount="indefinite">
    <mpath xlink:href="#path79"></mpath>
  </animateMotion>
</circle><path id="path80" d="M 1083.383890415579 1105.5679407981931
c 0 29.418162739562632 -7.198061095850431 8.449897808172246 -15.647958904022676 8.449897808172246
S 1052.0879726075334 1134.9861035377558 1052.0879726075334 1105.5679407981931
s 7.198061095850431 -8.449897808172246 15.647958904022676 -8.449897808172246
S 1083.383890415579 1076.1497780586305 1083.383890415579 1105.5679407981931
z" fill="none" stroke="none"></path>
<circle cx="0" cy="0" r="2.966424217804266" fill="#ffffff">
  <animateMotion begin="-0.753637496185055s" dur="5.51s" repeatCount="indefinite">
    <mpath xlink:href="#path80"></mpath>
  </animateMotion>
</circle><path id="path81" d="M 1865.8275716185392 237.5800028381009
c 0 33.73822196553497 -8.255096863907491 9.690765883717491 -17.945862747624982 9.690765883717491
S 1829.9358461232894 271.31822480363587 1829.9358461232894 237.5800028381009
s 8.255096863907491 -9.690765883717491 17.945862747624982 -9.690765883717491
S 1865.8275716185392 203.84178087256595 1865.8275716185392 237.5800028381009
z" fill="none" stroke="none"></path>
<circle cx="0" cy="0" r="3.8804756409090735" fill="#ffda00">
  <animateMotion begin="-2.2672128489223304s" dur="5.51s" repeatCount="indefinite">
    <mpath xlink:href="#path81"></mpath>
  </animateMotion>
</circle><path id="path82" d="M 2031.2519402913913 907.4844672471914
c 0 21.717865703628807 -5.313945863653856 6.238110361680614 -11.552056225334471 6.238110361680614
S 2008.1478278407221 929.2023329508203 2008.1478278407221 907.4844672471914
s 5.313945863653856 -6.238110361680614 11.552056225334471 -6.238110361680614
S 2031.2519402913913 885.7666015435626 2031.2519402913913 907.4844672471914
z" fill="none" stroke="none"></path>
<circle cx="0" cy="0" r="2.096971663434658" fill="#2d2d2d">
  <animateMotion begin="-1.244430393897915s" dur="5.51s" repeatCount="indefinite">
    <mpath xlink:href="#path82"></mpath>
  </animateMotion>
</circle><path id="path83" d="M 913.7469983274462 362.23844533901786
c 0 31.74416169684376 -7.767188500291558 9.118003891646612 -16.88519239193817 9.118003891646612
S 879.9766135435699 393.98260703586163 879.9766135435699 362.23844533901786
s 7.767188500291558 -9.118003891646612 16.88519239193817 -9.118003891646612
S 913.7469983274462 330.4942836421741 913.7469983274462 362.23844533901786
z" fill="none" stroke="none"></path>
<circle cx="0" cy="0" r="2.931974275897962" fill="#ffffff">
  <animateMotion begin="-3.241014685697654s" dur="5.51s" repeatCount="indefinite">
    <mpath xlink:href="#path83"></mpath>
  </animateMotion>
</circle><path id="path84" d="M 1748.371052436787 200.11307847497477
c 0 34.82490653432369 -8.520987769036646 10.002898685390846 -18.52388645442749 10.002898685390846
S 1711.3232795279323 234.93798500929847 1711.3232795279323 200.11307847497477
s 8.520987769036646 -10.002898685390846 18.52388645442749 -10.002898685390846
S 1748.371052436787 165.28817194065107 1748.371052436787 200.11307847497477
z" fill="none" stroke="none"></path>
<circle cx="0" cy="0" r="2.856223349039448" fill="#2d2d2d">
  <animateMotion begin="-4.325172071065082s" dur="5.51s" repeatCount="indefinite">
    <mpath xlink:href="#path84"></mpath>
  </animateMotion>
</circle><path id="path85" d="M 458.96641522676936 527.1764977149777
c 0 31.442745540887262 -7.6934377387277335 9.031426910680384 -16.72486464940812 9.031426910680384
S 425.5166859279531 558.619243255865 425.5166859279531 527.1764977149777
s 7.6934377387277335 -9.031426910680384 16.72486464940812 -9.031426910680384
S 458.96641522676936 495.73375217409045 458.96641522676936 527.1764977149777
z" fill="none" stroke="none"></path>
<circle cx="0" cy="0" r="2.2799069573669124" fill="#ffda00">
  <animateMotion begin="-3.57019812433645s" dur="5.51s" repeatCount="indefinite">
    <mpath xlink:href="#path85"></mpath>
  </animateMotion>
</circle><path id="path86" d="M 17.32090842265857 1263.5090609738304
c 0 20.132127201663955 -4.925946017428414 5.7826322813290085 -10.708578298757423 5.7826322813290085
S -4.096248174856277 1283.6411881754943 -4.096248174856277 1263.5090609738304
s 4.925946017428414 -5.7826322813290085 10.708578298757423 -5.7826322813290085
S 17.32090842265857 1243.3769337721665 17.32090842265857 1263.5090609738304
z" fill="none" stroke="none"></path>
<circle cx="0" cy="0" r="3.705948629843193" fill="#2d2d2d">
  <animateMotion begin="-3.7537539871884884s" dur="5.51s" repeatCount="indefinite">
    <mpath xlink:href="#path86"></mpath>
  </animateMotion>
</circle><path id="path87" d="M 2287.620642231039 573.1625671530757
c 0 32.10514437359101 -7.855514048857373 9.221690405180397 -17.07720445403777 9.221690405180397
S 2253.4662333229635 605.2677115266666 2253.4662333229635 573.1625671530757
s 7.855514048857373 -9.221690405180397 17.07720445403777 -9.221690405180397
S 2287.620642231039 541.0574227794847 2287.620642231039 573.1625671530757
z" fill="none" stroke="none"></path>
<circle cx="0" cy="0" r="3.2144247851411847" fill="#ffffff">
  <animateMotion begin="-1.0630018748541268s" dur="5.51s" repeatCount="indefinite">
    <mpath xlink:href="#path87"></mpath>
  </animateMotion>
</circle><path id="path88" d="M 780.9679630236934 1589.3816468571977
c 0 25.81931694947665 -6.317492445084712 7.416186783360314 -13.733679228445027 7.416186783360314
S 753.5006045668034 1615.2009638066743 753.5006045668034 1589.3816468571977
s 6.317492445084712 -7.416186783360314 13.733679228445027 -7.416186783360314
S 780.9679630236934 1563.562329907721 780.9679630236934 1589.3816468571977
z" fill="none" stroke="none"></path>
<circle cx="0" cy="0" r="2.1106494335362247" fill="#ffda00">
  <animateMotion begin="-4.295413849815741s" dur="5.51s" repeatCount="indefinite">
    <mpath xlink:href="#path88"></mpath>
  </animateMotion>
</circle><path id="path89" d="M 1471.621905154451 1603.5757647789999
c 0 25.279778815366488 -6.185477795249247 7.261213063988247 -13.446690859237494 7.261213063988247
S 1444.7285234359758 1628.8555435943663 1444.7285234359758 1603.5757647789999
s 6.185477795249247 -7.261213063988247 13.446690859237494 -7.261213063988247
S 1471.621905154451 1578.2959859636335 1471.621905154451 1603.5757647789999
z" fill="none" stroke="none"></path>
<circle cx="0" cy="0" r="2.0807117299702553" fill="#ffffff">
  <animateMotion begin="-1.127919513943712s" dur="5.51s" repeatCount="indefinite">
    <mpath xlink:href="#path89"></mpath>
  </animateMotion>
</circle><path id="path90" d="M 1987.994720088451 282.9217653955389
c 0 36.117129428422096 -8.83716996652881 10.374069091142518 -19.211239057671328 10.374069091142518
S 1949.5722419731085 319.038894823961 1949.5722419731085 282.9217653955389
s 8.83716996652881 -10.374069091142518 19.211239057671328 -10.374069091142518
S 1987.994720088451 246.8046359671168 1987.994720088451 282.9217653955389
z" fill="none" stroke="none"></path>
<circle cx="0" cy="0" r="2.0352058197345047" fill="#2d2d2d">
  <animateMotion begin="-2.9248172001300055s" dur="5.51s" repeatCount="indefinite">
    <mpath xlink:href="#path90"></mpath>
  </animateMotion>
</circle><path id="path91" d="M 1599.538834533489 1514.5626809349706
c 0 29.72390130560947 -7.2728694683938055 8.537716332462296 -15.810585800856101 8.537716332462296
S 1567.9176629317767 1544.28658224058 1567.9176629317767 1514.5626809349706
s 7.2728694683938055 -8.537716332462296 15.810585800856101 -8.537716332462296
S 1599.538834533489 1484.8387796293612 1599.538834533489 1514.5626809349706
z" fill="none" stroke="none"></path>
<circle cx="0" cy="0" r="2.1136536188623625" fill="#2d2d2d">
  <animateMotion begin="-0.9666724216276502s" dur="5.51s" repeatCount="indefinite">
    <mpath xlink:href="#path91"></mpath>
  </animateMotion>
</circle><path id="path92" d="M 2243.4045133913787 1604.6251075642222
c 0 29.49074274900294 -7.215820034330506 8.470745257692334 -15.686565292022841 8.470745257692334
S 2212.031382807333 1634.115850313225 2212.031382807333 1604.6251075642222
s 7.215820034330506 -8.470745257692334 15.686565292022841 -8.470745257692334
S 2243.4045133913787 1575.1343648152192 2243.4045133913787 1604.6251075642222
z" fill="none" stroke="none"></path>
<circle cx="0" cy="0" r="2.1396099575392244" fill="#ffda00">
  <animateMotion begin="-3.695526353132222s" dur="5.51s" repeatCount="indefinite">
    <mpath xlink:href="#path92"></mpath>
  </animateMotion>
</circle><path id="path93" d="M 1900.9453698903567 979.6643366889696
c 0 24.1679539122366 -5.913435531717465 6.941859102450938 -12.855294634168404 6.941859102450938
S 1875.23478062202 1003.8322906012062 1875.23478062202 979.6643366889696
s 5.913435531717465 -6.941859102450938 12.855294634168404 -6.941859102450938
S 1900.9453698903567 955.496382776733 1900.9453698903567 979.6643366889696
z" fill="none" stroke="none"></path>
<circle cx="0" cy="0" r="2.616552189530032" fill="#2d2d2d">
  <animateMotion begin="-5.322702902796367s" dur="5.51s" repeatCount="indefinite">
    <mpath xlink:href="#path93"></mpath>
  </animateMotion>
</circle><path id="path94" d="M 344.3027638069538 631.4211324884114
c 0 19.256834541387455 -4.711778664382036 5.531218432100652 -10.24299709648269 5.531218432100652
S 323.81676961398847 650.6779670297989 323.81676961398847 631.4211324884114
s 4.711778664382036 -5.531218432100652 10.24299709648269 -5.531218432100652
S 344.3027638069538 612.164297947024 344.3027638069538 631.4211324884114
z" fill="none" stroke="none"></path>
<circle cx="0" cy="0" r="3.3016998585361113" fill="#ffffff">
  <animateMotion begin="-2.645639038325486s" dur="5.51s" repeatCount="indefinite">
    <mpath xlink:href="#path94"></mpath>
  </animateMotion>
</circle><path id="path95" d="M 336.9661257774257 1612.7281356364224
c 0 22.35862541662737 -5.47072749555776 6.422158364350415 -11.892885859908176 6.422158364350415
S 313.18035405760935 1635.0867610530497 313.18035405760935 1612.7281356364224
s 5.47072749555776 -6.422158364350415 11.892885859908176 -6.422158364350415
S 336.9661257774257 1590.369510219795 336.9661257774257 1612.7281356364224
z" fill="none" stroke="none"></path>
<circle cx="0" cy="0" r="3.1323123789408895" fill="#ffffff">
  <animateMotion begin="-1.470936318064939s" dur="5.51s" repeatCount="indefinite">
    <mpath xlink:href="#path95"></mpath>
  </animateMotion>
</circle><path id="path96" d="M 2346.875855210153 10.245978334991904
c 0 19.27716324344178 -4.716752708501711 5.537057527371575 -10.253810235873287 5.537057527371575
S 2326.368234738407 29.523141578433684 2326.368234738407 10.245978334991904
s 4.716752708501711 -5.537057527371575 10.253810235873287 -5.537057527371575
S 2346.875855210153 -9.031184908449877 2346.875855210153 10.245978334991904
z" fill="none" stroke="none"></path>
<circle cx="0" cy="0" r="3.7615065816988253" fill="#ffffff">
  <animateMotion begin="-4.273696459806292s" dur="5.51s" repeatCount="indefinite">
    <mpath xlink:href="#path96"></mpath>
  </animateMotion>
</circle><path id="path97" d="M 1095.4373427823443 405.0065001269689
c 0 22.29083367029137 -5.454140153369164 6.402686266998585 -11.85682642036775 6.402686266998585
S 1071.7236899416089 427.29733379726025 1071.7236899416089 405.0065001269689
s 5.454140153369164 -6.402686266998585 11.85682642036775 -6.402686266998585
S 1095.4373427823443 382.7156664566775 1095.4373427823443 405.0065001269689
z" fill="none" stroke="none"></path>
<circle cx="0" cy="0" r="2.0640482265814724" fill="#ffda00">
  <animateMotion begin="-2.114117569512946s" dur="5.51s" repeatCount="indefinite">
    <mpath xlink:href="#path97"></mpath>
  </animateMotion>
</circle><path id="path98" d="M 249.54372335453797 376.92146778368993
c 0 25.504840695703212 -6.240546127672062 7.3258584977019865 -13.566404625374048 7.3258584977019865
S 222.41091410378988 402.42630847939313 222.41091410378988 376.92146778368993
s 6.240546127672062 -7.3258584977019865 13.566404625374048 -7.3258584977019865
S 249.54372335453797 351.41662708798674 249.54372335453797 376.92146778368993
z" fill="none" stroke="none"></path>
<circle cx="0" cy="0" r="2.5193511892526317" fill="#ffffff">
  <animateMotion begin="-2.837356728499303s" dur="5.51s" repeatCount="indefinite">
    <mpath xlink:href="#path98"></mpath>
  </animateMotion>
</circle><path id="path99" d="M 2306.4555621377935 1638.3100743972143
c 0 26.601617416678565 -6.508906389187308 7.64089010904597 -14.149796498233279 7.64089010904597
S 2278.155969141327 1664.911691813893 2278.155969141327 1638.3100743972143
s 6.508906389187308 -7.64089010904597 14.149796498233279 -7.64089010904597
S 2306.4555621377935 1611.7084569805356 2306.4555621377935 1638.3100743972143
z" fill="none" stroke="none"></path>
<circle cx="0" cy="0" r="3.9728079948863106" fill="#ffda00">
  <animateMotion begin="-1.8436062886130093s" dur="5.51s" repeatCount="indefinite">
    <mpath xlink:href="#path99"></mpath>
  </animateMotion>
</circle></g>
</svg>