<?xml version="1.0" encoding="UTF-8"?>
<svg viewBox="0 0 193 169" xmlns="http://www.w3.org/2000/svg">
<path d="m191.05 166.58c-0.337 0.47-0.677 0.936-1.013 1.399-0.967 0.665-2.114 1.02-3.289 1.018h-180.91c-1.122 1e-3 -2.2202-0.323-3.1616-0.933-0.31244-0.411-0.62136-0.826-0.9338-1.241l0.31244-0.171 91.584-50.693c0.8126-0.449 1.7258-0.685 2.6545-0.686 0.9286-1e-3 1.8424 0.232 2.6562 0.679l91.79 50.457 0.309 0.171z" fill="#FFDA00"/>
<path d="m186.74 59.99-79.373-45.774c-3.338-1.9253-7.125-2.9398-10.98-2.9416-3.8551-0.0019-7.6429 1.0088-10.983 2.9308l-79.573 45.785c-1.5471 0.0021-3.0302 0.6168-4.1241 1.7092-1.094 1.0924-1.7095 2.5734-1.7117 4.1183v97.355c0.0018025 1.545 0.61722 3.026 1.7113 4.119 1.094 1.092 2.5773 1.707 4.1245 1.709h180.91c1.547-3e-3 3.03-0.618 4.124-1.71s1.71-2.573 1.712-4.118v-97.355c-2e-3 -1.5449-0.617-3.0259-1.711-4.1183s-2.577-1.7071-4.125-1.7092zm5.15 103.18c-4e-3 1.363-0.547 2.669-1.512 3.633-0.965 0.963-2.273 1.506-3.638 1.509h-180.91c-1.3649-2e-3 -2.6732-0.545-3.6384-1.509-0.96513-0.963-1.5084-2.27-1.5109-3.633v-97.355c0.001661-1.3632 0.54471-2.6701 1.51-3.6341 0.96531-0.9639 2.2741-1.5062 3.6392-1.5078l79.573-45.785c3.3403-1.922 7.1281-2.9327 10.983-2.9309 3.8551 0.0019 7.6421 1.0164 10.98 2.9417l79.373 45.774c1.366 0.0016 2.674 0.5439 3.64 1.5078 0.965 0.964 1.508 2.2709 1.51 3.6341v97.355z" fill="#3F3D56"/>
<path d="m96.394 115.07c-0.5979 2e-3 -1.1918-0.098-1.7563-0.294l-0.1038-0.037-0.0211-0.231c-0.0647 0.032-0.1299 0.063-0.1953 0.091l-0.0691 0.031-0.0691-0.031c-0.1447-0.063-0.2883-0.135-0.4269-0.213l-63.2-35.464v-72.41c0.0019-1.6814 0.6716-3.2933 1.8622-4.4822 1.1906-1.1889 2.8048-1.8577 4.4885-1.8596h118.78c1.684 0.001887 3.298 0.67064 4.489 1.8596 1.191 1.1889 1.86 2.8009 1.862 4.4822v72.503l-0.087 0.0492-62.907 35.322c-0.8076 0.45-1.7171 0.685-2.6416 0.684z" fill="#fff"/>
<path d="m96.394 115.24c-0.6173 2e-3 -1.2305-0.101-1.8132-0.304l-0.2079-0.073-0.0089-0.098-0.1156 0.051-0.1381-0.061c-0.1499-0.065-0.2986-0.14-0.4421-0.221l-63.287-35.512v-72.511c2e-3 -1.7268 0.6898-3.3823 1.9125-4.6034 1.2228-1.221 2.8806-1.9079 4.6099-1.9098h118.78c1.73 0.0019616 3.388 0.6888 4.61 1.9098 1.223 1.221 1.911 2.8766 1.913 4.6034v72.603l-63.082 35.421c-0.8332 0.464-1.7717 0.707-2.7257 0.705zm-1.3778-0.883c1.2621 0.362 2.6163 0.211 3.7673-0.42l62.731-35.224v-72.202c-2e-3 -1.545-0.617-3.0263-1.711-4.1188-1.094-1.0925-2.577-1.707-4.125-1.7088h-118.78c-1.5473 0.001732-3.0306 0.61626-4.1247 1.7088-1.094 1.0925-1.7094 2.5738-1.7111 4.1188v72.109l4.1158 2.3082 58.822 33.008c0.0801 0.045 0.1613 0.087 0.2438 0.127 0.0824-0.04 0.1636-0.082 0.2434-0.127l0.4623-0.26 0.0619 0.68z" fill="#3F3D56"/>
<path d="m191.06 62.52-29.203 16.396-62.906 35.322c-0.7818 0.435-1.6624 0.663-2.5576 0.661-0.5784 2e-3 -1.1529-0.094-1.6991-0.284-0.152-0.049-0.301-0.106-0.4464-0.172-0.1406-0.061-0.2779-0.13-0.4118-0.205l-58.821-33.008-4.291-2.4065-29.152-16.358c-0.07926-0.0454-0.13741-0.1202-0.16182-0.2081-0.02442-0.0879-0.01313-0.1819 0.03142-0.2616 0.04466-0.079 0.11891-0.1371 0.20643-0.1615s0.18116-0.0132 0.26038 0.0313l28.815 16.17 4.291 2.4065 59.158 33.197c0.1962 0.11 0.4005 0.205 0.611 0.284 0.0893 0.035 0.182 0.066 0.2747 0.093 0.5876 0.18 1.2056 0.24 1.8168 0.175s1.2029-0.253 1.7396-0.552l92.109-51.715c0.039-0.0221 0.082-0.0362 0.127-0.0416s0.09-2e-3 0.133 0.0101c0.044 0.0121 0.084 0.0326 0.12 0.0604 0.035 0.0277 0.065 0.0621 0.087 0.1013s0.036 0.0823 0.042 0.1269c5e-3 0.0447 1e-3 0.0899-0.011 0.1332s-0.032 0.0838-0.06 0.1191c-0.028 0.0354-0.062 0.065-0.102 0.087z" fill="#3F3D56"/>
<path d="m126.51 49.538c-0.263 6.101-1.782 10.951-4.557 14.55-2.752 3.5748-6.46 5.3623-11.126 5.3623-2.057 0-3.84-0.4409-5.347-1.3227-1.484-0.8818-2.608-2.1449-3.374-3.7894-2.3922 3.3365-5.5145 5.0048-9.3665 5.0048-3.4932 0-6.1967-1.4657-8.1108-4.397-1.914-2.9314-2.6318-6.8042-2.1533-11.618 0.4307-3.9323 1.4236-7.4238 2.9787-10.474 1.5791-3.0744 3.5649-5.4338 5.9575-7.0782 2.3925-1.6444 4.9765-2.4666 7.7519-2.4666 3.4215 0 6.3405 0.7864 8.7565 2.3594l2.261 1.5371-1.83 20.663c-0.239 1.8827-0.036 3.3246 0.61 4.3255 0.67 1.001 1.723 1.5015 3.158 1.5015 2.201 0 4.044-1.2751 5.527-3.8251 1.483-2.5739 2.297-5.9343 2.44-10.081 0.407-8.3175-1.28-14.704-5.06-19.161-3.756-4.4805-9.331-6.7207-16.724-6.7207-4.6176 0-8.7328 1.1678-12.346 3.5034-3.6128 2.3355-6.4599 5.6601-8.5414 9.9738-2.0816 4.2898-3.2539 9.2112-3.5171 14.764-0.3828 8.4366 1.3159 14.955 5.0962 19.554 3.7802 4.6235 9.4386 6.9352 16.975 6.9352 1.9858 0 4.0676-0.2264 6.2446-0.6792 2.177-0.429 4.055-1.0129 5.634-1.7517l1.364 5.5053c-1.459 0.9533-3.433 1.7159-5.921 2.2879-2.465 0.5958-4.953 0.8937-7.4651 0.8937-6.3164 0-11.7-1.275-16.15-3.8251-4.4501-2.5262-7.7758-6.2679-9.9769-11.225-2.1772-4.9333-3.1223-10.832-2.8352-17.696 0.2871-6.5777 1.7944-12.476 4.5219-17.696s6.436-9.2469 11.125-12.083c4.7133-2.8599 10.025-4.2898 15.934-4.2898 6.0053 0 11.173 1.2869 15.503 3.8608 4.331 2.5501 7.573 6.2084 9.726 10.975 2.153 4.7665 3.099 10.308 2.835 16.623zm-36.067 3.7893c-0.2632 3.1459 0.012 5.541 0.8254 7.1854 0.8135 1.6206 2.1294 2.4309 3.9478 2.4309 1.1723 0 2.2848-0.5124 3.3376-1.5372 1.0527-1.0247 1.9256-2.5023 2.6196-4.4328l1.508-16.909c-0.934-0.3098-1.891-0.4647-2.8715-0.4647-2.7515 0-4.8928 1.1678-6.424 3.5033-1.5074 2.3356-2.4883 5.7436-2.9429 10.224z" fill="#FFDA00"/>
</svg>
