<?xml version="1.0" encoding="UTF-8"?>
<svg fill="none" viewBox="0 0 282 44" xmlns="http://www.w3.org/2000/svg">
<circle cx="81" cy="22" r="21" stroke="#FFDA00"/>
<circle cx="22" cy="22" r="21" stroke="#FFDA00"/>
<circle cx="140" cy="22" r="21" stroke="#FFDA00"/>
<circle cx="200" cy="22" r="21" stroke="#FFDA00"/>
<path d="m270.99 30.999v-8e-4h5e-3v-7.1447c0-3.4953-0.797-6.1878-5.124-6.1878-2.08 0-3.476 1.078-4.046 2.0999h-0.06v-1.7736h-4.103v13.006h4.272v-6.4402c0-1.6956 0.341-3.3353 2.564-3.3353 2.192 0 2.224 1.9351 2.224 3.4441v6.3322h4.268z" fill="#FFDA00"/>
<path d="m251 17.666h5v13.333h-5v-13.333z" fill="#FFDA00"/>
<path d="m253.5 11c-1.38 0-2.5 1.1147-2.5 2.4883 0 1.3737 1.12 2.5117 2.5 2.5117s2.5-1.138 2.5-2.5117c-1e-3 -1.3736-1.121-2.4883-2.5-2.4883z" fill="#FFDA00"/>
<circle cx="260" cy="22" r="21" stroke="#FFDA00"/>
<path d="m140 10c-3.259 0-3.667 0.014-4.947 0.072-4.358 0.2-6.78 2.618-6.98 6.98-0.059 1.281-0.073 1.689-0.073 4.948s0.014 3.668 0.072 4.948c0.2 4.358 2.618 6.78 6.98 6.98 1.281 0.058 1.689 0.072 4.948 0.072s3.668-0.014 4.948-0.072c4.354-0.2 6.782-2.618 6.979-6.98 0.059-1.28 0.073-1.689 0.073-4.948s-0.014-3.667-0.072-4.947c-0.196-4.354-2.617-6.78-6.979-6.98-1.281-0.059-1.69-0.073-4.949-0.073zm0 2.163c3.204 0 3.584 0.012 4.85 0.07 3.252 0.148 4.771 1.691 4.919 4.919 0.058 1.265 0.069 1.645 0.069 4.849 0 3.205-0.012 3.584-0.069 4.849-0.149 3.225-1.664 4.771-4.919 4.919-1.266 0.058-1.644 0.07-4.85 0.07-3.204 0-3.584-0.012-4.849-0.07-3.26-0.149-4.771-1.699-4.919-4.92-0.058-1.265-0.07-1.644-0.07-4.849 0-3.204 0.013-3.583 0.07-4.849 0.149-3.227 1.664-4.771 4.919-4.919 1.266-0.057 1.645-0.069 4.849-0.069zm-6.162 9.837c0-3.403 2.759-6.162 6.162-6.162s6.162 2.759 6.162 6.162c0 3.404-2.759 6.163-6.162 6.163s-6.162-2.76-6.162-6.163zm6.162 4c-2.209 0-4-1.79-4-4 0-2.209 1.791-4 4-4s4 1.791 4 4c0 2.21-1.791 4-4 4zm4.965-10.405c0-0.795 0.645-1.44 1.441-1.44 0.795 0 1.439 0.645 1.439 1.44s-0.644 1.44-1.439 1.44c-0.796 0-1.441-0.645-1.441-1.44z" clip-rule="evenodd" fill="#FFDA00" fill-rule="evenodd"/>
<path d="m93 15.309c-0.883 0.392-1.832 0.656-2.828 0.775 1.017-0.609 1.798-1.574 2.165-2.724-0.951 0.564-2.005 0.974-3.127 1.195-0.897-0.957-2.178-1.555-3.594-1.555-3.179 0-5.515 2.966-4.797 6.045-4.091-0.205-7.719-2.165-10.148-5.144-1.29 2.213-0.669 5.108 1.523 6.574-0.806-0.026-1.566-0.247-2.229-0.616-0.054 2.281 1.581 4.415 3.949 4.89-0.693 0.188-1.452 0.232-2.224 0.084 0.626 1.956 2.444 3.379 4.6 3.419-2.07 1.623-4.678 2.348-7.29 2.04 2.179 1.397 4.768 2.212 7.548 2.212 9.142 0 14.307-7.721 13.995-14.646 0.962-0.695 1.797-1.562 2.457-2.549z" clip-rule="evenodd" fill="#FFDA00" fill-rule="evenodd"/>
<path d="m200 10c-6.628 0-12 5.373-12 12s5.372 12 12 12 12-5.373 12-12-5.372-12-12-12zm9.885 11.441c-2.575-0.422-4.943-0.445-7.103-0.073-0.244-0.563-0.497-1.125-0.767-1.68 2.31-1 4.165-2.358 5.548-4.082 1.35 1.594 2.197 3.619 2.322 5.835zm-8.828-3.602c2.118-0.897 3.781-2.126 4.986-3.68-1.675-1.293-3.768-2.072-6.043-2.072-0.84 0-1.652 0.117-2.431 0.314 1.31 1.762 2.472 3.577 3.488 5.438zm-5.53-4.673c1.331 1.742 2.511 3.538 3.537 5.381-2.43 0.715-5.331 1.082-8.684 1.105 0.692-2.835 2.601-5.193 5.147-6.486zm-5.427 8.578-0.013 0.256c0 2.407 0.864 4.615 2.296 6.334 2.172-3.258 4.957-5.423 8.337-6.48-0.214-0.48-0.437-0.957-0.67-1.432-2.781 0.874-6.101 1.317-9.95 1.322zm3.816 8.066c1.969-3.088 4.482-5.098 7.598-6.027 0.928 2.42 1.609 4.91 2.043 7.46-3.349 1.291-6.953 0.666-9.641-1.433zm9.666-6.467c0.84 2.244 1.482 4.544 1.92 6.897 2.251-1.509 3.842-3.915 4.279-6.701-2.259-0.392-4.323-0.461-6.199-0.196z" clip-rule="evenodd" fill="#FFDA00" fill-rule="evenodd"/>
<path d="M19 18H16V22H19V34H24V22H27.642L28 18H24V16.333C24 15.378 24.192 15 25.115 15H28V10H24.192C20.596 10 19 11.583 19 14.615V18Z" clip-rule="evenodd" fill="#FFDA00" fill-rule="evenodd"/>
</svg>
