<?xml version="1.0" encoding="UTF-8"?>
<svg viewBox="0 0 65 65" xmlns="http://www.w3.org/2000/svg">
<path d="m12.265 65c-6.7735 0-12.264-5.4909-12.264-12.264v-40.472c0-6.773 5.4904-12.264 12.264-12.264h40.471c6.7735 0 12.264 5.491 12.264 12.264v40.472c0 6.7731-5.4904 12.264-12.264 12.264h-40.471z" clip-rule="evenodd" fill="#ECCA01" fill-rule="evenodd"/>
<path d="m15.348 34.387v8.2012h7.4678c1.3334 0 2.3723-0.1809 3.1147-0.5426 1.3478-0.6681 2.0216-1.9473 2.0216-3.84 0-1.5995-0.6534-2.6988-1.9592-3.297-0.7291-0.3341-1.7537-0.5078-3.0739-0.5216h-7.571zm0-11.874v6.7821h7.4759c1.3358 0 2.4199-0.2541 3.2527-0.7619s1.2497-1.4087 1.2497-2.7027c0-1.4329-0.5506-2.379-1.6523-2.8378-0.9499-0.3202-2.162-0.4797-3.6344-0.4797h-6.6916zm16.702-2.0663c0.9409 1.3082 1.412 2.873 1.412 4.6952 0 1.8784-0.4749 3.388-1.4248 4.5282-0.5307 0.6401-1.3126 1.225-2.3457 1.7532 1.5695 0.5706 2.754 1.4749 3.553 2.7127 0.7986 1.2387 1.1983 2.7412 1.1983 4.5077 0 1.8227-0.4568 3.4574-1.3696 4.9042-0.5811 0.9599-1.3073 1.767-2.1782 2.4209-0.9822 0.751-2.1406 1.2663-3.4759 1.5443-1.3345 0.2784-2.7831 0.4173-4.3464 0.4173h-13.86v-30.76h14.865c3.7506 0.0557 6.408 1.1474 7.9718 3.2761z" clip-rule="evenodd" fill="#FFFFFE" fill-rule="evenodd"/>
<path d="m43.057 30.628c-0.8119 0.8366-1.3215 1.9697-1.53 3.3993h9.893c-0.1047-1.5243-0.6144-2.6807-1.5295-3.4703-0.9157-0.789-2.0512-1.1835-3.406-1.1835-1.4739 0-2.6165 0.4183-3.4275 1.2545zm8.59-4.9608c1.5319 0.6867 2.7973 1.7694 3.7953 3.2489 0.8999 1.305 1.4829 2.8188 1.7499 4.5406 0.1546 1.0089 0.2174 2.4618 0.1894 4.3588h-15.995c0.0885 2.2029 0.8547 3.7477 2.2966 4.6338 0.8771 0.5511 1.9322 0.8262 3.1657 0.8262 1.3083 0 2.3714-0.3355 3.189-1.0075 0.4454-0.3626 0.8395-0.8661 1.1817-1.511h5.8621c-0.1542 1.3035-0.8638 2.6265-2.1282 3.969-1.9674 2.1364-4.7214 3.2043-8.2626 3.2043-2.923 0-5.5014-0.9009-7.7357-2.7022-2.2344-1.8017-3.3513-4.7323-3.3513-8.7932 0-3.8044 1.0084-6.7216 3.0253-8.7513 2.0169-2.0302 4.6348-3.0458 7.8537-3.0458 1.9113 0 3.6331 0.3436 5.1645 1.0294z" clip-rule="evenodd" fill="#FFFFFE" fill-rule="evenodd"/>
<path d="m39.064 22.801h14.863v-4.6324h-14.863v4.6324z" clip-rule="evenodd" fill="#FFFFFE" fill-rule="evenodd"/>
<path d="m47.33 50.932c-6.8439 0-13.398-1.2478-19.444-3.5274 1.1398-0.2946 2.142-0.7738 3.0082-1.4353 0.8709-0.6539 1.5971-1.461 2.1782-2.4209 0.9127-1.4467 1.3696-3.0815 1.3696-4.9042 0-1.7665-0.3998-3.2689-1.1983-4.5077-0.7991-1.2378-1.9836-2.142-3.5531-2.7126 1.0332-0.5283 1.8151-1.1132 2.3457-1.7533 0.9499-1.1402 1.4249-2.6498 1.4249-4.5282 0-1.8222-0.4712-3.387-1.412-4.6952-1.5638-2.1287-4.2212-3.2204-7.9718-3.2761h-14.865v18.455c-3.5607-3.4098-6.6654-7.2927-9.2124-11.547v-11.815-0.0091c0.059487-6.7787 5.5728-12.255 12.366-12.255h40.269c6.8281 0 12.364 5.5362 12.364 12.365v35.674c-5.5466 1.876-11.489 2.8925-17.669 2.8925zm-0.8476-26.294c-3.219 0-5.8369 1.0155-7.8537 3.0457-2.0169 2.0297-3.0253 4.947-3.0253 8.7514 0 4.0608 1.1169 6.9914 3.3513 8.7932 2.2343 1.8013 4.8127 2.7022 7.7357 2.7022 3.5411 0 6.2952-1.068 8.2625-3.2043 1.2645-1.3425 1.9741-2.6655 2.1283-3.969h-5.8622c-0.3421 0.6448-0.7362 1.1484-1.1816 1.511-0.8176 0.672-1.8808 1.0075-3.189 1.0075-1.2335 0-2.2886-0.2751-3.1657-0.8262-1.442-0.8861-2.2082-2.4309-2.2967-4.6338h15.995c0.0281-1.897-0.0347-3.3499-0.1894-4.3588-0.2669-1.7218-0.8499-3.2357-1.7498-4.5406-0.998-1.4796-2.2634-2.5622-3.7953-3.249-1.5315-0.6857-3.2533-1.0293-5.1645-1.0293zm-7.4183-1.8365h14.863v-4.6325h-14.863v4.6325zm-16.249 19.786h-4.6562c-0.9565-0.5977-1.8955-1.2255-2.8116-1.8793v-6.3219h7.5711c1.3201 0.0138 2.3447 0.1875 3.0738 0.5216 1.3059 0.5982 1.9593 1.6975 1.9593 3.297 0 1.8927-0.6739 3.1719-2.0216 3.8401-0.7424 0.3617-1.7813 0.5425-3.1148 0.5425zm0.0081-13.293h-7.4759v-6.782h6.6916c1.4725 0 2.6846 0.1594 3.6345 0.4797 1.1017 0.4587 1.6523 1.4048 1.6523 2.8378 0 1.2939-0.4169 2.1948-1.2497 2.7026-0.8329 0.5078-1.9169 0.7619-3.2528 0.7619z" clip-rule="evenodd" fill="#FFDA00" fill-rule="evenodd"/>
<path d="m27.887 47.404c-3.4175-1.2887-6.6717-2.9063-9.7269-4.8161h4.6562c1.3334 0 2.3723-0.1809 3.1147-0.5425 1.3478-0.6682 2.0216-1.9474 2.0216-3.8401 0-1.5995-0.6534-2.6988-1.9592-3.297-0.7291-0.3341-1.7537-0.5078-3.0739-0.5216h-7.571v6.3218c-2.1677-1.5466-4.2165-3.2451-6.1353-5.0826v-18.455h14.865c3.7506 0.0557 6.408 1.1474 7.9718 3.2761 0.9409 1.3082 1.412 2.873 1.412 4.6952 0 1.8784-0.4749 3.388-1.4248 4.5282-0.5307 0.6401-1.3126 1.225-2.3457 1.7532 1.5695 0.5706 2.754 1.4749 3.553 2.7127 0.7986 1.2387 1.1983 2.7412 1.1983 4.5077 0 1.8227-0.4568 3.4574-1.3696 4.9042-0.5811 0.9599-1.3073 1.767-2.1782 2.4209-0.8661 0.6615-1.8684 1.1407-3.0081 1.4353zm-12.538-24.891v6.7821h7.4759c1.3358 0 2.4199-0.2541 3.2527-0.7619s1.2497-1.4087 1.2497-2.7027c0-1.4329-0.5506-2.379-1.6523-2.8378-0.9499-0.3202-2.162-0.4797-3.6344-0.4797h-6.6916z" clip-rule="evenodd" fill="#FFFFFE" fill-rule="evenodd"/>
<path d="m51.42 34.027h-9.893c0.2085-1.4296 0.7182-2.5628 1.5301-3.3994 0.8109-0.8361 1.9535-1.2545 3.4274-1.2545 1.3549 0 2.4904 0.3946 3.406 1.1836 0.9151 0.7895 1.4248 1.946 1.5295 3.4703z" clip-rule="evenodd" fill="#FFDA00" fill-rule="evenodd"/>
<path d="m46.69 47.931c-2.923 0-5.5014-0.9009-7.7357-2.7022-2.2344-1.8017-3.3513-4.7323-3.3513-8.7932 0-3.8044 1.0084-6.7216 3.0253-8.7513 2.0169-2.0302 4.6348-3.0458 7.8537-3.0458 1.9113 0 3.6331 0.3436 5.1645 1.0294 1.5319 0.6867 2.7973 1.7694 3.7953 3.2489 0.8999 1.305 1.4829 2.8188 1.7499 4.5406 0.1546 1.0089 0.2174 2.4618 0.1894 4.3588h-15.995c0.0885 2.2029 0.8547 3.7477 2.2966 4.6338 0.8771 0.5511 1.9322 0.8262 3.1657 0.8262 1.3083 0 2.3714-0.3355 3.189-1.0075 0.4454-0.3626 0.8395-0.8661 1.1817-1.511h5.8621c-0.1542 1.3035-0.8638 2.6265-2.1282 3.969-1.9674 2.1364-4.7214 3.2043-8.2626 3.2043zm-3.6335-17.302c-0.8119 0.8366-1.3215 1.9697-1.53 3.3993h9.893c-0.1047-1.5243-0.6144-2.6807-1.5295-3.4703-0.9157-0.789-2.0512-1.1835-3.406-1.1835-1.4739 0-2.6165 0.4183-3.4275 1.2545z" clip-rule="evenodd" fill="#FFFFFE" fill-rule="evenodd"/>
<path d="m39.064 22.801h14.863v-4.6324h-14.863v4.6324z" clip-rule="evenodd" fill="#FFFFFE" fill-rule="evenodd"/>
</svg>
