<svg xmlns="http://www.w3.org/2000/svg" xmlns:xlink="http://www.w3.org/1999/xlink" style="margin:auto;background:#2a2a2a;display:block;z-index:1;position:relative" width="2466" height="1668" preserveAspectRatio="xMidYMid" viewBox="0 0 2466 1668">
<g transform="translate(1233,834) scale(1,1) translate(-1233,-834)"><path id="path0" d="M 867.7548747498322 1476.784694769905
c 0 27.62196243256807 -6.758565276053888 7.933967932758914 -14.692533208812801 7.933967932758914
S 838.3698083322065 1504.406657202473 838.3698083322065 1476.784694769905
s 6.758565276053888 -7.933967932758914 14.692533208812801 -7.933967932758914
S 867.7548747498322 1449.1627323373368 867.7548747498322 1476.784694769905
z" fill="none" stroke="none"></path>
<circle cx="0" cy="0" r="1.6158901575620255" fill="#f2f2f2">
  <animateMotion begin="-2.103664984876509s" dur="4.88s" repeatCount="indefinite">
    <mpath xlink:href="#path0"></mpath>
  </animateMotion>
</circle><path id="path1" d="M 1682.7653618375787 1453.2395979397502
c 0 21.713267914947085 -5.312820872806201 6.236789720250759 -11.549610593056961 6.236789720250759
S 1659.6661406514647 1474.9528658546972 1659.6661406514647 1453.2395979397502
s 5.312820872806201 -6.236789720250759 11.549610593056961 -6.236789720250759
S 1682.7653618375787 1431.5263300248032 1682.7653618375787 1453.2395979397502
z" fill="none" stroke="none"></path>
<circle cx="0" cy="0" r="1.7210278604741491" fill="#727272">
  <animateMotion begin="-0.4472301697643623s" dur="4.88s" repeatCount="indefinite">
    <mpath xlink:href="#path1"></mpath>
  </animateMotion>
</circle><path id="path2" d="M 1838.486266280507 1130.9150748052484
c 0 22.96282922618266 -5.618564597895756 6.595706267095019 -12.214270864990775 6.595706267095019
S 1814.0577245505253 1153.8779040314312 1814.0577245505253 1130.9150748052484
s 5.618564597895756 -6.595706267095019 12.214270864990775 -6.595706267095019
S 1838.486266280507 1107.9522455790657 1838.486266280507 1130.9150748052484
z" fill="none" stroke="none"></path>
<circle cx="0" cy="0" r="2.2361771452057915" fill="#f2f2f2">
  <animateMotion begin="-1.9903549451201494s" dur="4.88s" repeatCount="indefinite">
    <mpath xlink:href="#path2"></mpath>
  </animateMotion>
</circle><path id="path3" d="M 1038.6766275286025 92.1228348667921
c 0 34.230283501895904 -8.37549489940006 9.832102707991377 -18.20759760739144 9.832102707991377
S 1002.2614323138196 126.353118368688 1002.2614323138196 92.1228348667921
s 8.37549489940006 -9.832102707991377 18.20759760739144 -9.832102707991377
S 1038.6766275286025 57.8925513648962 1038.6766275286025 92.1228348667921
z" fill="none" stroke="none"></path>
<circle cx="0" cy="0" r="1.9837142659518905" fill="#727272">
  <animateMotion begin="-4.391245079711384s" dur="4.88s" repeatCount="indefinite">
    <mpath xlink:href="#path3"></mpath>
  </animateMotion>
</circle><path id="path4" d="M 1029.5095015016761 250.10295243644097
c 0 24.213312643727953 -5.924533944741945 6.9548876742622845 -12.87942161900423 6.9548876742622845
S 1003.7506582636678 274.31626508016893 1003.7506582636678 250.10295243644097
s 5.924533944741945 -6.9548876742622845 12.87942161900423 -6.9548876742622845
S 1029.5095015016761 225.889639792713 1029.5095015016761 250.10295243644097
z" fill="none" stroke="none"></path>
<circle cx="0" cy="0" r="1.8801890487991884" fill="#727272">
  <animateMotion begin="-1.8255586774068997s" dur="4.88s" repeatCount="indefinite">
    <mpath xlink:href="#path4"></mpath>
  </animateMotion>
</circle><path id="path5" d="M 1892.370710830013 1159.8453744868284
c 0 19.84821106382203 -4.856477175190496 5.701081901310584 -10.557559076501079 5.701081901310584
S 1871.2555926770108 1179.6935855506504 1871.2555926770108 1159.8453744868284
s 4.856477175190496 -5.701081901310584 10.557559076501079 -5.701081901310584
S 1892.370710830013 1139.9971634230064 1892.370710830013 1159.8453744868284
z" fill="none" stroke="none"></path>
<circle cx="0" cy="0" r="1.884231259644105" fill="#f2f2f2">
  <animateMotion begin="-1.5082198131717488s" dur="4.88s" repeatCount="indefinite">
    <mpath xlink:href="#path5"></mpath>
  </animateMotion>
</circle><path id="path6" d="M 947.8099466301858 242.46889224648027
c 0 29.405146410748134 -7.194876249438373 8.446159075427655 -15.641035324866028 8.446159075427655
S 916.5278759804537 271.8740386572284 916.5278759804537 242.46889224648027
s 7.194876249438373 -8.446159075427655 15.641035324866028 -8.446159075427655
S 947.8099466301858 213.06374583573213 947.8099466301858 242.46889224648027
z" fill="none" stroke="none"></path>
<circle cx="0" cy="0" r="1.934182846182074" fill="#727272">
  <animateMotion begin="-1.692874326899847s" dur="4.88s" repeatCount="indefinite">
    <mpath xlink:href="#path6"></mpath>
  </animateMotion>
</circle><path id="path7" d="M 1433.032831099223 1598.2402400157303
c 0 30.096412849703185 -7.364015910033757 8.644714329170064 -16.00873023920382 8.644714329170064
S 1401.0153706208155 1628.3366528654335 1401.0153706208155 1598.2402400157303
s 7.364015910033757 -8.644714329170064 16.00873023920382 -8.644714329170064
S 1433.032831099223 1568.143827166027 1433.032831099223 1598.2402400157303
z" fill="none" stroke="none"></path>
<circle cx="0" cy="0" r="1.9967140711977018" fill="#f2f2f2">
  <animateMotion begin="-4.312550607513681s" dur="4.88s" repeatCount="indefinite">
    <mpath xlink:href="#path7"></mpath>
  </animateMotion>
</circle><path id="path8" d="M 1655.721418761047 1106.9953371902322
c 0 30.247919187210197 -7.401086609636537 8.688232106964632 -16.08931871660117 8.688232106964632
S 1623.5427813278448 1137.2432563774425 1623.5427813278448 1106.9953371902322
s 7.401086609636537 -8.688232106964632 16.08931871660117 -8.688232106964632
S 1655.721418761047 1076.747418003022 1655.721418761047 1106.9953371902322
z" fill="none" stroke="none"></path>
<circle cx="0" cy="0" r="2.3245506025162794" fill="#f2f2f2">
  <animateMotion begin="-1.8667790724283213s" dur="4.88s" repeatCount="indefinite">
    <mpath xlink:href="#path8"></mpath>
  </animateMotion>
</circle><path id="path9" d="M 2211.4355303873 391.90660181265605
c 0 33.914242583859156 -8.298165738603835 9.741324997491459 -18.039490736095296 9.741324997491459
S 2175.3565489151097 425.8208443965152 2175.3565489151097 391.90660181265605
s 8.298165738603835 -9.741324997491459 18.039490736095296 -9.741324997491459
S 2211.4355303873 357.9923592287969 2211.4355303873 391.90660181265605
z" fill="none" stroke="none"></path>
<circle cx="0" cy="0" r="2.5751468676826264" fill="#727272">
  <animateMotion begin="-4.358220047649925s" dur="4.88s" repeatCount="indefinite">
    <mpath xlink:href="#path9"></mpath>
  </animateMotion>
</circle><path id="path10" d="M 1374.0818992865056 249.67110343643503
c 0 20.829201898483205 -5.096506847501209 5.9828558644579415 -11.079362711959151 5.9828558644579415
S 1351.9231738625872 270.50030533491827 1351.9231738625872 249.67110343643503
s 5.096506847501209 -5.9828558644579415 11.079362711959151 -5.9828558644579415
S 1374.0818992865056 228.84190153795183 1374.0818992865056 249.67110343643503
z" fill="none" stroke="none"></path>
<circle cx="0" cy="0" r="2.751659732562218" fill="#f2f2f2">
  <animateMotion begin="-2.3215660868454466s" dur="4.88s" repeatCount="indefinite">
    <mpath xlink:href="#path10"></mpath>
  </animateMotion>
</circle><path id="path11" d="M 2320.707445899564 1532.4313112593807
c 0 36.74928941409591 -8.991847409831976 10.555646959367975 -19.547494369199953 10.555646959367975
S 2281.6124571611645 1569.1806006734766 2281.6124571611645 1532.4313112593807
s 8.991847409831976 -10.555646959367975 19.547494369199953 -10.555646959367975
S 2320.707445899564 1495.6820218452847 2320.707445899564 1532.4313112593807
z" fill="none" stroke="none"></path>
<circle cx="0" cy="0" r="2.47379883651956" fill="#f2f2f2">
  <animateMotion begin="-0.2735225826948769s" dur="4.88s" repeatCount="indefinite">
    <mpath xlink:href="#path11"></mpath>
  </animateMotion>
</circle><path id="path12" d="M 1682.0485560252157 988.75043124014
c 0 31.21318530788371 -7.637268745546013 8.96548939694532 -16.602758142491332 8.96548939694532
S 1648.8430397402328 1019.9636165480237 1648.8430397402328 988.75043124014
s 7.637268745546013 -8.96548939694532 16.602758142491332 -8.96548939694532
S 1682.0485560252157 957.5372459322563 1682.0485560252157 988.75043124014
z" fill="none" stroke="none"></path>
<circle cx="0" cy="0" r="1.9869580187251663" fill="#727272">
  <animateMotion begin="-4.062929713589877s" dur="4.88s" repeatCount="indefinite">
    <mpath xlink:href="#path12"></mpath>
  </animateMotion>
</circle><path id="path13" d="M 997.1000950008272 360.99749443077246
c 0 37.10999127405771 -9.080104247907737 10.659252812761258 -19.739357060668997 10.659252812761258
S 957.6213808794892 398.1074857048302 957.6213808794892 360.99749443077246
s 9.080104247907737 -10.659252812761258 19.739357060668997 -10.659252812761258
S 997.1000950008272 323.88750315671473 997.1000950008272 360.99749443077246
z" fill="none" stroke="none"></path>
<circle cx="0" cy="0" r="2.881649273914758" fill="#f2f2f2">
  <animateMotion begin="-1.283906069529381s" dur="4.88s" repeatCount="indefinite">
    <mpath xlink:href="#path13"></mpath>
  </animateMotion>
</circle><path id="path14" d="M 1433.974735400382 428.68055158296255
c 0 29.52737385402947 -7.224782964283805 8.481266958072295 -15.706049922356101 8.481266958072295
S 1402.56263555567 458.207925436992 1402.56263555567 428.68055158296255
s 7.224782964283805 -8.481266958072295 15.706049922356101 -8.481266958072295
S 1433.974735400382 399.1531777289331 1433.974735400382 428.68055158296255
z" fill="none" stroke="none"></path>
<circle cx="0" cy="0" r="2.145089322508425" fill="#727272">
  <animateMotion begin="-3.0169927526427944s" dur="4.88s" repeatCount="indefinite">
    <mpath xlink:href="#path14"></mpath>
  </animateMotion>
</circle><path id="path15" d="M 1353.245273889327 240.6099213496035
c 0 19.29436958670796 -4.720962771215777 5.541999774905478 -10.262962546121255 5.541999774905478
S 1332.7193487970844 259.90429093631144 1332.7193487970844 240.6099213496035
s 4.720962771215777 -5.541999774905478 10.262962546121255 -5.541999774905478
S 1353.245273889327 221.31555176289555 1353.245273889327 240.6099213496035
z" fill="none" stroke="none"></path>
<circle cx="0" cy="0" r="1.8452037416143905" fill="#727272">
  <animateMotion begin="-1.8840750679817255s" dur="4.88s" repeatCount="indefinite">
    <mpath xlink:href="#path15"></mpath>
  </animateMotion>
</circle><path id="path16" d="M 1652.5867476118756 1359.3411813610164
c 0 29.967587739458658 -7.332494872420734 8.607711371972169 -15.940206244392902 8.607711371972169
S 1620.70633512309 1389.308769100475 1620.70633512309 1359.3411813610164
s 7.332494872420734 -8.607711371972169 15.940206244392902 -8.607711371972169
S 1652.5867476118756 1329.3735936215578 1652.5867476118756 1359.3411813610164
z" fill="none" stroke="none"></path>
<circle cx="0" cy="0" r="1.78133970460543" fill="#f2f2f2">
  <animateMotion begin="-4.7635531302152625s" dur="4.88s" repeatCount="indefinite">
    <mpath xlink:href="#path16"></mpath>
  </animateMotion>
</circle><path id="path17" d="M 849.9251628299504 1125.39582083783
c 0 35.59551649067325 -8.709541268994517 10.22424409838487 -18.933785367379386 10.22424409838487
S 812.0575920951916 1160.991337328503 812.0575920951916 1125.39582083783
s 8.709541268994517 -10.22424409838487 18.933785367379386 -10.22424409838487
S 849.9251628299504 1089.8003043471567 849.9251628299504 1125.39582083783
z" fill="none" stroke="none"></path>
<circle cx="0" cy="0" r="2.011950646906039" fill="#f2f2f2">
  <animateMotion begin="-2.6804909728270867s" dur="4.88s" repeatCount="indefinite">
    <mpath xlink:href="#path17"></mpath>
  </animateMotion>
</circle><path id="path18" d="M 1675.3158297596858 510.38253056989805
c 0 20.3377193208795 -4.976250472130091 5.841685336848368 -10.817935808978458 5.841685336848368
S 1653.6799581417288 530.7202498907775 1653.6799581417288 510.38253056989805
s 4.976250472130091 -5.841685336848368 10.817935808978458 -5.841685336848368
S 1675.3158297596858 490.04481124901855 1675.3158297596858 510.38253056989805
z" fill="none" stroke="none"></path>
<circle cx="0" cy="0" r="1.8019970488062929" fill="#f2f2f2">
  <animateMotion begin="-1.4545538484386622s" dur="4.88s" repeatCount="indefinite">
    <mpath xlink:href="#path18"></mpath>
  </animateMotion>
</circle><path id="path19" d="M 1222.4615856945304 275.5664412762518
c 0 18.840872524734323 -4.610000724137121 5.411739980508795 -10.021740704645916 5.411739980508795
S 1202.4181042852385 294.4073138009861 1202.4181042852385 275.5664412762518
s 4.610000724137121 -5.411739980508795 10.021740704645916 -5.411739980508795
S 1222.4615856945304 256.72556875151747 1222.4615856945304 275.5664412762518
z" fill="none" stroke="none"></path>
<circle cx="0" cy="0" r="2.491949321105033" fill="#f2f2f2">
  <animateMotion begin="-2.4274530949862085s" dur="4.88s" repeatCount="indefinite">
    <mpath xlink:href="#path19"></mpath>
  </animateMotion>
</circle><path id="path20" d="M 672.4516089450743 231.5936616947048
c 0 26.487930987945983 -6.481089497050612 7.608235496537676 -14.089324993588288 7.608235496537676
S 644.2729589578977 258.08159268265075 644.2729589578977 231.5936616947048
s 6.481089497050612 -7.608235496537676 14.089324993588288 -7.608235496537676
S 672.4516089450743 205.1057307067588 672.4516089450743 231.5936616947048
z" fill="none" stroke="none"></path>
<circle cx="0" cy="0" r="1.779219788644531" fill="#727272">
  <animateMotion begin="-4.0033272757665825s" dur="4.88s" repeatCount="indefinite">
    <mpath xlink:href="#path20"></mpath>
  </animateMotion>
</circle><path id="path21" d="M 1409.9916788257517 1647.1265777801245
c 0 32.305826025752154 -7.904617006301058 9.279333007396897 -17.183950013697956 9.279333007396897
S 1375.6237787983557 1679.4324038058767 1375.6237787983557 1647.1265777801245
s 7.904617006301058 -9.279333007396897 17.183950013697956 -9.279333007396897
S 1409.9916788257517 1614.8207517543724 1409.9916788257517 1647.1265777801245
z" fill="none" stroke="none"></path>
<circle cx="0" cy="0" r="2.0553005733105203" fill="#f2f2f2">
  <animateMotion begin="-4.316815960864147s" dur="4.88s" repeatCount="indefinite">
    <mpath xlink:href="#path21"></mpath>
  </animateMotion>
</circle><path id="path22" d="M 769.5934878551222 736.2833848851037
c 0 22.11563239147929 -5.411271755361954 6.352362495424903 -11.763634250786856 6.352362495424903
S 746.0662193535486 758.399017276583 746.0662193535486 736.2833848851037
s 5.411271755361954 -6.352362495424903 11.763634250786856 -6.352362495424903
S 769.5934878551222 714.1677524936244 769.5934878551222 736.2833848851037
z" fill="none" stroke="none"></path>
<circle cx="0" cy="0" r="2.0432470485029266" fill="#727272">
  <animateMotion begin="-1.3797697078438098s" dur="4.88s" repeatCount="indefinite">
    <mpath xlink:href="#path22"></mpath>
  </animateMotion>
</circle><path id="path23" d="M 1242.7537518495533 1204.642331655926
c 0 21.947369949855016 -5.370101157943248 6.304031794107292 -11.67413295205054 6.304031794107292
S 1219.4054859454523 1226.589701605781 1219.4054859454523 1204.642331655926
s 5.370101157943248 -6.304031794107292 11.67413295205054 -6.304031794107292
S 1242.7537518495533 1182.694961706071 1242.7537518495533 1204.642331655926
z" fill="none" stroke="none"></path>
<circle cx="0" cy="0" r="1.52472119349031" fill="#f2f2f2">
  <animateMotion begin="-3.2297548322684833s" dur="4.88s" repeatCount="indefinite">
    <mpath xlink:href="#path23"></mpath>
  </animateMotion>
</circle><path id="path24" d="M 1912.7893271560283 183.0075405929164
c 0 29.294662870499362 -7.167843042781757 8.414424441526412 -15.58226748430817 8.414424441526412
S 1881.624792187412 212.30220346341576 1881.624792187412 183.0075405929164
s 7.167843042781757 -8.414424441526412 15.58226748430817 -8.414424441526412
S 1912.7893271560283 153.71287772241703 1912.7893271560283 183.0075405929164
z" fill="none" stroke="none"></path>
<circle cx="0" cy="0" r="2.0203468391805353" fill="#727272">
  <animateMotion begin="-1.0994712842713703s" dur="4.88s" repeatCount="indefinite">
    <mpath xlink:href="#path24"></mpath>
  </animateMotion>
</circle><path id="path25" d="M 599.5335105526119 698.7667035190751
c 0 32.872991323092 -8.043391493948041 9.442242188547702 -17.485633682495745 9.442242188547702
S 564.5622431876204 731.6396948421672 564.5622431876204 698.7667035190751
s 8.043391493948041 -9.442242188547702 17.485633682495745 -9.442242188547702
S 599.5335105526119 665.8937121959831 599.5335105526119 698.7667035190751
z" fill="none" stroke="none"></path>
<circle cx="0" cy="0" r="2.575468327870049" fill="#f2f2f2">
  <animateMotion begin="-0.4526542420556344s" dur="4.88s" repeatCount="indefinite">
    <mpath xlink:href="#path25"></mpath>
  </animateMotion>
</circle><path id="path26" d="M 1396.9480839141816 432.50497071686175
c 0 28.634185474945166 -7.006236871529136 8.224712849186378 -15.230949720715515 8.224712849186378
S 1366.4861844727507 461.13915619180693 1366.4861844727507 432.50497071686175
s 7.006236871529136 -8.224712849186378 15.230949720715515 -8.224712849186378
S 1396.9480839141816 403.87078524191656 1396.9480839141816 432.50497071686175
z" fill="none" stroke="none"></path>
<circle cx="0" cy="0" r="1.8821550813920496" fill="#727272">
  <animateMotion begin="-3.029398984213742s" dur="4.88s" repeatCount="indefinite">
    <mpath xlink:href="#path26"></mpath>
  </animateMotion>
</circle><path id="path27" d="M 974.7803109660259 1390.567399163912
c 0 27.31790005802174 -6.684167035473403 7.846630867729648 -14.530797903203052 7.846630867729648
S 945.7187151596198 1417.8852992219336 945.7187151596198 1390.567399163912
s 6.684167035473403 -7.846630867729648 14.530797903203052 -7.846630867729648
S 974.7803109660259 1363.2494991058902 974.7803109660259 1390.567399163912
z" fill="none" stroke="none"></path>
<circle cx="0" cy="0" r="2.1627869493054335" fill="#f2f2f2">
  <animateMotion begin="-4.56814903603568s" dur="4.88s" repeatCount="indefinite">
    <mpath xlink:href="#path27"></mpath>
  </animateMotion>
</circle><path id="path28" d="M 1230.2208507633375 865.7868883464973
c 0 36.13223982493598 -8.840867191207739 10.378409311417782 -19.21927650262552 10.378409311417782
S 1191.7822977580865 901.9191281714333 1191.7822977580865 865.7868883464973
s 8.840867191207739 -10.378409311417782 19.21927650262552 -10.378409311417782
S 1230.2208507633375 829.6546485215614 1230.2208507633375 865.7868883464973
z" fill="none" stroke="none"></path>
<circle cx="0" cy="0" r="2.354825689482583" fill="#727272">
  <animateMotion begin="-2.549899365257863s" dur="4.88s" repeatCount="indefinite">
    <mpath xlink:href="#path28"></mpath>
  </animateMotion>
</circle><path id="path29" d="M 646.2623880689293 403.20414927162517
c 0 34.350084527957605 -8.404807916415157 9.8665136410091 -18.271321557424255 9.8665136410091
S 609.7197449540809 437.5542337995828 609.7197449540809 403.20414927162517
s 8.404807916415157 -9.8665136410091 18.271321557424255 -9.8665136410091
S 646.2623880689293 368.85406474366755 646.2623880689293 403.20414927162517
z" fill="none" stroke="none"></path>
<circle cx="0" cy="0" r="2.6691139199596963" fill="#f2f2f2">
  <animateMotion begin="-3.675550955835971s" dur="4.88s" repeatCount="indefinite">
    <mpath xlink:href="#path29"></mpath>
  </animateMotion>
</circle><path id="path30" d="M 1231.2880736968946 950.7302701652126
c 0 21.410202880345466 -5.2386666622121885 6.149739125205613 -11.3884057874178 6.149739125205613
S 1208.5112621220592 972.140473045558 1208.5112621220592 950.7302701652126
s 5.2386666622121885 -6.149739125205613 11.3884057874178 -6.149739125205613
S 1231.2880736968946 929.3200672848672 1231.2880736968946 950.7302701652126
z" fill="none" stroke="none"></path>
<circle cx="0" cy="0" r="2.9305122567615167" fill="#727272">
  <animateMotion begin="-3.3127122102965365s" dur="4.88s" repeatCount="indefinite">
    <mpath xlink:href="#path30"></mpath>
  </animateMotion>
</circle><path id="path31" d="M 1250.3632375579773 1119.8743848382342
c 0 28.37815066406118 -6.943590056100076 8.15117093542183 -15.094760991521905 8.15117093542183
S 1220.1737155749333 1148.2525355022954 1220.1737155749333 1119.8743848382342
s 6.943590056100076 -8.15117093542183 15.094760991521905 -8.15117093542183
S 1250.3632375579773 1091.496234174173 1250.3632375579773 1119.8743848382342
z" fill="none" stroke="none"></path>
<circle cx="0" cy="0" r="1.5971214570103258" fill="#f2f2f2">
  <animateMotion begin="-3.8684459938919113s" dur="4.88s" repeatCount="indefinite">
    <mpath xlink:href="#path31"></mpath>
  </animateMotion>
</circle><path id="path32" d="M 1746.3044819245267 1291.5371498879128
c 0 37.0634699620626 -9.068721373696167 10.645890308252024 -19.714611681948192 10.645890308252024
S 1706.8752585606305 1328.6006198499754 1706.8752585606305 1291.5371498879128
s 9.068721373696167 -10.645890308252024 19.714611681948192 -10.645890308252024
S 1746.3044819245267 1254.4736799258503 1746.3044819245267 1291.5371498879128
z" fill="none" stroke="none"></path>
<circle cx="0" cy="0" r="2.639539952922352" fill="#727272">
  <animateMotion begin="-4.691489346154973s" dur="4.88s" repeatCount="indefinite">
    <mpath xlink:href="#path32"></mpath>
  </animateMotion>
</circle><path id="path33" d="M 2166.6445603064944 974.0902698703026
c 0 24.702041756686338 -6.044116600040273 7.0952673130907575 -13.13938391313103 7.0952673130907575
S 2140.3657924802324 998.7923116269889 2140.3657924802324 974.0902698703026
s 6.044116600040273 -7.0952673130907575 13.13938391313103 -7.0952673130907575
S 2166.6445603064944 949.3882281136163 2166.6445603064944 974.0902698703026
z" fill="none" stroke="none"></path>
<circle cx="0" cy="0" r="2.088114648443427" fill="#727272">
  <animateMotion begin="-4.2466504048521365s" dur="4.88s" repeatCount="indefinite">
    <mpath xlink:href="#path33"></mpath>
  </animateMotion>
</circle><path id="path34" d="M 1104.8155175386498 1192.9378244510792
c 0 31.120346986691157 -7.6145529861052825 8.938823070645332 -16.553376056750615 8.938823070645332
S 1071.7087654251484 1224.0581714377704 1071.7087654251484 1192.9378244510792
s 7.6145529861052825 -8.938823070645332 16.553376056750615 -8.938823070645332
S 1104.8155175386498 1161.817477464388 1104.8155175386498 1192.9378244510792
z" fill="none" stroke="none"></path>
<circle cx="0" cy="0" r="2.4687216968192107" fill="#727272">
  <animateMotion begin="-2.1759858347868977s" dur="4.88s" repeatCount="indefinite">
    <mpath xlink:href="#path34"></mpath>
  </animateMotion>
</circle><path id="path35" d="M 1600.4495625913048 1401.6451453331076
c 0 37.12647860220863 -9.084138381391472 10.663988534676948 -19.748126916068422 10.663988534676948
S 1560.9533087591678 1438.7716239353163 1560.9533087591678 1401.6451453331076
s 9.084138381391472 -10.663988534676948 19.748126916068422 -10.663988534676948
S 1600.4495625913048 1364.518666730899 1600.4495625913048 1401.6451453331076
z" fill="none" stroke="none"></path>
<circle cx="0" cy="0" r="2.4993943986559604" fill="#f2f2f2">
  <animateMotion begin="-0.1471819864876927s" dur="4.88s" repeatCount="indefinite">
    <mpath xlink:href="#path35"></mpath>
  </animateMotion>
</circle><path id="path36" d="M 683.4951036687706 919.9384126851381
c 0 35.32864186726457 -8.644242159011544 10.147588621448334 -18.791830780459875 10.147588621448334
S 645.9114421078508 955.2670545524027 645.9114421078508 919.9384126851381
s 8.644242159011544 -10.147588621448334 18.791830780459875 -10.147588621448334
S 683.4951036687706 884.6097708178736 683.4951036687706 919.9384126851381
z" fill="none" stroke="none"></path>
<circle cx="0" cy="0" r="2.958768091406819" fill="#727272">
  <animateMotion begin="-1.2086115545333345s" dur="4.88s" repeatCount="indefinite">
    <mpath xlink:href="#path36"></mpath>
  </animateMotion>
</circle><path id="path37" d="M 463.36984470550027 878.9162929300624
c 0 21.324896742920213 -5.217793883906009 6.125236298498359 -11.343030182404368 6.125236298498359
S 440.6837843406915 900.2411896729826 440.6837843406915 878.9162929300624
s 5.217793883906009 -6.125236298498359 11.343030182404368 -6.125236298498359
S 463.36984470550027 857.5913961871421 463.36984470550027 878.9162929300624
z" fill="none" stroke="none"></path>
<circle cx="0" cy="0" r="2.593628116727508" fill="#f2f2f2">
  <animateMotion begin="-0.21492703382225206s" dur="4.88s" repeatCount="indefinite">
    <mpath xlink:href="#path37"></mpath>
  </animateMotion>
</circle><path id="path38" d="M 721.4303306577175 657.9337837043265
c 0 28.212695289269654 -6.903106294182999 8.103646519258305 -15.006752813441304 8.103646519258305
S 691.416825030835 686.1464789935961 691.416825030835 657.9337837043265
s 6.903106294182999 -8.103646519258305 15.006752813441304 -8.103646519258305
S 721.4303306577175 629.7210884150569 721.4303306577175 657.9337837043265
z" fill="none" stroke="none"></path>
<circle cx="0" cy="0" r="2.8884436582925623" fill="#f2f2f2">
  <animateMotion begin="-1.1039833719683925s" dur="4.88s" repeatCount="indefinite">
    <mpath xlink:href="#path38"></mpath>
  </animateMotion>
</circle><path id="path39" d="M 2273.3104367641417 80.77660304452723
c 0 26.692919550244675 -6.531246272932207 7.667115189963896 -14.198361462896102 7.667115189963896
S 2244.9137138383494 107.46952259477192 2244.9137138383494 80.77660304452723
s 6.531246272932207 -7.667115189963896 14.198361462896102 -7.667115189963896
S 2273.3104367641417 54.08368349428256 2273.3104367641417 80.77660304452723
z" fill="none" stroke="none"></path>
<circle cx="0" cy="0" r="2.6769063509451363" fill="#727272">
  <animateMotion begin="-0.6002668715040667s" dur="4.88s" repeatCount="indefinite">
    <mpath xlink:href="#path39"></mpath>
  </animateMotion>
</circle><path id="path40" d="M 42.94410542622887 795.1362803635244
c 0 37.57997305438179 -9.195099789901926 10.794247579450088 -19.989347369352014 10.794247579450088
S 2.965410687524848 832.7162534179062 2.965410687524848 795.1362803635244
s 9.195099789901926 -10.794247579450088 19.989347369352014 -10.794247579450088
S 42.94410542622887 757.5563073091427 42.94410542622887 795.1362803635244
z" fill="none" stroke="none"></path>
<circle cx="0" cy="0" r="1.7480950242600364" fill="#f2f2f2">
  <animateMotion begin="-2.0078337111038s" dur="4.88s" repeatCount="indefinite">
    <mpath xlink:href="#path40"></mpath>
  </animateMotion>
</circle><path id="path41" d="M 645.6481805271982 195.9460572799286
c 0 20.429731559128946 -4.998764104893252 5.868114384005123 -10.866878488898376 5.868114384005123
S 623.9144235494015 216.37578883905755 623.9144235494015 195.9460572799286
s 4.998764104893252 -5.868114384005123 10.866878488898376 -5.868114384005123
S 645.6481805271982 175.51632572079964 645.6481805271982 195.9460572799286
z" fill="none" stroke="none"></path>
<circle cx="0" cy="0" r="1.7377334254980075" fill="#f2f2f2">
  <animateMotion begin="-1.7333489290922401s" dur="4.88s" repeatCount="indefinite">
    <mpath xlink:href="#path41"></mpath>
  </animateMotion>
</circle><path id="path42" d="M 128.60954909572936 244.20364087916366
c 0 22.35440297956842 -5.469694346064613 6.420945536684546 -11.89063988274916 6.420945536684546
S 104.82826933023104 266.55804385873205 104.82826933023104 244.20364087916366
s 5.469694346064613 -6.420945536684546 11.89063988274916 -6.420945536684546
S 128.60954909572936 221.84923789959524 128.60954909572936 244.20364087916366
z" fill="none" stroke="none"></path>
<circle cx="0" cy="0" r="1.8520515610103938" fill="#f2f2f2">
  <animateMotion begin="-2.479658862457692s" dur="4.88s" repeatCount="indefinite">
    <mpath xlink:href="#path42"></mpath>
  </animateMotion>
</circle><path id="path43" d="M 2232.909042777908 519.041004847577
c 0 36.57592011411884 -8.949427261965246 10.505849394480943 -19.45527665644619 10.505849394480943
S 2193.9984894650156 555.6169249616959 2193.9984894650156 519.041004847577
s 8.949427261965246 -10.505849394480943 19.45527665644619 -10.505849394480943
S 2232.909042777908 482.4650847334582 2232.909042777908 519.041004847577
z" fill="none" stroke="none"></path>
<circle cx="0" cy="0" r="1.9067636860472104" fill="#727272">
  <animateMotion begin="-3.2538293665997893s" dur="4.88s" repeatCount="indefinite">
    <mpath xlink:href="#path43"></mpath>
  </animateMotion>
</circle><path id="path44" d="M 2087.745931511901 1649.8711865008775
c 0 32.487299926750474 -7.949020194843201 9.33145848959854 -17.280478684441743 9.33145848959854
S 2053.1849741430174 1682.358486427628 2053.1849741430174 1649.8711865008775
s 7.949020194843201 -9.33145848959854 17.280478684441743 -9.33145848959854
S 2087.745931511901 1617.383886574127 2087.745931511901 1649.8711865008775
z" fill="none" stroke="none"></path>
<circle cx="0" cy="0" r="2.616847317167315" fill="#727272">
  <animateMotion begin="-1.8117545319292965s" dur="4.88s" repeatCount="indefinite">
    <mpath xlink:href="#path44"></mpath>
  </animateMotion>
</circle><path id="path45" d="M 2086.18729143318 1023.4119530034791
c 0 20.379846796697077 -4.986558258766306 5.853785782030012 -10.840344040796317 5.853785782030012
S 2064.506603351587 1043.7917998001762 2064.506603351587 1023.4119530034791
s 4.986558258766306 -5.853785782030012 10.840344040796317 -5.853785782030012
S 2086.18729143318 1003.032106206782 2086.18729143318 1023.4119530034791
z" fill="none" stroke="none"></path>
<circle cx="0" cy="0" r="2.1121854374697246" fill="#f2f2f2">
  <animateMotion begin="-2.462908854525222s" dur="4.88s" repeatCount="indefinite">
    <mpath xlink:href="#path45"></mpath>
  </animateMotion>
</circle><path id="path46" d="M 250.44431421893162 1388.448331461161
c 0 36.75111089302087 -8.992293090845532 10.556170150123016 -19.548463240968548 10.556170150123016
S 211.34738773699453 1425.1994423541819 211.34738773699453 1388.448331461161
s 8.992293090845532 -10.556170150123016 19.548463240968548 -10.556170150123016
S 250.44431421893162 1351.69722056814 250.44431421893162 1388.448331461161
z" fill="none" stroke="none"></path>
<circle cx="0" cy="0" r="2.7176613599955965" fill="#f2f2f2">
  <animateMotion begin="-1.2299265487022721s" dur="4.88s" repeatCount="indefinite">
    <mpath xlink:href="#path46"></mpath>
  </animateMotion>
</circle><path id="path47" d="M 1270.9964770925153 86.06646408980986
c 0 32.650178328221116 -7.9888734207349525 9.378242711297554 -17.367116132032507 9.378242711297554
S 1236.26224482845 118.71664241803097 1236.26224482845 86.06646408980986
s 7.9888734207349525 -9.378242711297554 17.367116132032507 -9.378242711297554
S 1270.9964770925153 53.41628576158874 1270.9964770925153 86.06646408980986
z" fill="none" stroke="none"></path>
<circle cx="0" cy="0" r="2.8308066358524737" fill="#f2f2f2">
  <animateMotion begin="-0.29354638933856964s" dur="4.88s" repeatCount="indefinite">
    <mpath xlink:href="#path47"></mpath>
  </animateMotion>
</circle><path id="path48" d="M 341.61584938952 129.94196773738085
c 0 21.503663948648057 -5.2615347959458 6.176584325675506 -11.438119121621305 6.176584325675506
S 318.7396111462774 151.44563168602892 318.7396111462774 129.94196773738085
s 5.2615347959458 -6.176584325675506 11.438119121621305 -6.176584325675506
S 341.61584938952 108.4383037887328 341.61584938952 129.94196773738085
z" fill="none" stroke="none"></path>
<circle cx="0" cy="0" r="2.9855117995291236" fill="#f2f2f2">
  <animateMotion begin="-4.443541494467277s" dur="4.88s" repeatCount="indefinite">
    <mpath xlink:href="#path48"></mpath>
  </animateMotion>
</circle><path id="path49" d="M 1454.5365096860064 980.3123117466873
c 0 27.560627579798712 -6.743557812078408 7.916350475048567 -14.659908287126974 7.916350475048567
S 1425.2166931117526 1007.8729393264861 1425.2166931117526 980.3123117466873
s 6.743557812078408 -7.916350475048567 14.659908287126974 -7.916350475048567
S 1454.5365096860064 952.7516841668886 1454.5365096860064 980.3123117466873
z" fill="none" stroke="none"></path>
<circle cx="0" cy="0" r="1.758603218690972" fill="#f2f2f2">
  <animateMotion begin="-2.353767010748546s" dur="4.88s" repeatCount="indefinite">
    <mpath xlink:href="#path49"></mpath>
  </animateMotion>
</circle><path id="path50" d="M 1564.2587228000962 1448.2549650285011
c 0 29.12724248799284 -7.12687848110463 8.366335608253264 -15.493214089357894 8.366335608253264
S 1533.2722946213803 1477.382207516494 1533.2722946213803 1448.2549650285011
s 7.12687848110463 -8.366335608253264 15.493214089357894 -8.366335608253264
S 1564.2587228000962 1419.1277225405083 1564.2587228000962 1448.2549650285011
z" fill="none" stroke="none"></path>
<circle cx="0" cy="0" r="1.7221781422860947" fill="#f2f2f2">
  <animateMotion begin="-1.500222582434845s" dur="4.88s" repeatCount="indefinite">
    <mpath xlink:href="#path50"></mpath>
  </animateMotion>
</circle><path id="path51" d="M 2263.2778420576324 139.34723181728216
c 0 31.723952338945157 -7.7622436574014735 9.112199076079992 -16.874442733481466 9.112199076079992
S 2229.5289565906696 171.07118415622733 2229.5289565906696 139.34723181728216
s 7.7622436574014735 -9.112199076079992 16.874442733481466 -9.112199076079992
S 2263.2778420576324 107.62327947833701 2263.2778420576324 139.34723181728216
z" fill="none" stroke="none"></path>
<circle cx="0" cy="0" r="2.6819938012521405" fill="#727272">
  <animateMotion begin="-2.7003213606648218s" dur="4.88s" repeatCount="indefinite">
    <mpath xlink:href="#path51"></mpath>
  </animateMotion>
</circle><path id="path52" d="M 2047.0988216456608 257.73621018937314
c 0 28.223149954818304 -6.90566435064703 8.106649455107386 -15.012313805754417 8.106649455107386
S 2017.0741940341518 285.95936014419146 2017.0741940341518 257.73621018937314
s 6.90566435064703 -8.106649455107386 15.012313805754417 -8.106649455107386
S 2047.0988216456608 229.51306023455484 2047.0988216456608 257.73621018937314
z" fill="none" stroke="none"></path>
<circle cx="0" cy="0" r="1.9792659325804975" fill="#727272">
  <animateMotion begin="-3.0746328664608913s" dur="4.88s" repeatCount="indefinite">
    <mpath xlink:href="#path52"></mpath>
  </animateMotion>
</circle><path id="path53" d="M 87.4759001081666 1334.4238346822924
c 0 19.346742831296343 -4.733777501274637 5.557043153670227 -10.290820654944863 5.557043153670227
S 66.89425879827687 1353.7705775135887 66.89425879827687 1334.4238346822924
s 4.733777501274637 -5.557043153670227 10.290820654944863 -5.557043153670227
S 87.4759001081666 1315.077091850996 87.4759001081666 1334.4238346822924
z" fill="none" stroke="none"></path>
<circle cx="0" cy="0" r="1.9450751210780615" fill="#f2f2f2">
  <animateMotion begin="-1.3689133031285527s" dur="4.88s" repeatCount="indefinite">
    <mpath xlink:href="#path53"></mpath>
  </animateMotion>
</circle><path id="path54" d="M 1407.174881913461 427.2171852992638
c 0 27.30959943319246 -6.682136031525814 7.844246645704218 -14.526382677230032 7.844246645704218
S 1378.122116559001 454.52678473245624 1378.122116559001 427.2171852992638
s 6.682136031525814 -7.844246645704218 14.526382677230032 -7.844246645704218
S 1407.174881913461 399.9075858660714 1407.174881913461 427.2171852992638
z" fill="none" stroke="none"></path>
<circle cx="0" cy="0" r="2.4329394993353386" fill="#f2f2f2">
  <animateMotion begin="-2.4516105784609112s" dur="4.88s" repeatCount="indefinite">
    <mpath xlink:href="#path54"></mpath>
  </animateMotion>
</circle><path id="path55" d="M 2452.9058423312713 819.992940548958
c 0 19.48005552248933 -4.766396564013346 5.595335096885233 -10.36173166089858 5.595335096885233
S 2432.1823790094745 839.4729960714474 2432.1823790094745 819.992940548958
s 4.766396564013346 -5.595335096885233 10.36173166089858 -5.595335096885233
S 2452.9058423312713 800.5128850264687 2452.9058423312713 819.992940548958
z" fill="none" stroke="none"></path>
<circle cx="0" cy="0" r="1.6180900485562313" fill="#727272">
  <animateMotion begin="-1.4068185430266573s" dur="4.88s" repeatCount="indefinite">
    <mpath xlink:href="#path55"></mpath>
  </animateMotion>
</circle><path id="path56" d="M 1266.2440400806408 27.351679992557244
c 0 29.528232965184092 -7.224993172332277 8.48151372404224 -15.706506896374517 8.48151372404224
S 1234.8310262878917 56.87991295774134 1234.8310262878917 27.351679992557244
s 7.224993172332277 -8.48151372404224 15.706506896374517 -8.48151372404224
S 1266.2440400806408 -2.1765529726268475 1266.2440400806408 27.351679992557244
z" fill="none" stroke="none"></path>
<circle cx="0" cy="0" r="2.467759328631752" fill="#727272">
  <animateMotion begin="-3.928472634570764s" dur="4.88s" repeatCount="indefinite">
    <mpath xlink:href="#path56"></mpath>
  </animateMotion>
</circle><path id="path57" d="M 360.19707731068235 592.5572507628697
c 0 30.479953760035574 -7.457861026391683 8.754880335329368 -16.21274136172105 8.754880335329368
S 327.77159458724026 623.0372045229052 327.77159458724026 592.5572507628697
s 7.457861026391683 -8.754880335329368 16.21274136172105 -8.754880335329368
S 360.19707731068235 562.0772970028341 360.19707731068235 592.5572507628697
z" fill="none" stroke="none"></path>
<circle cx="0" cy="0" r="1.9440721497557125" fill="#727272">
  <animateMotion begin="-1.1284427913636712s" dur="4.88s" repeatCount="indefinite">
    <mpath xlink:href="#path57"></mpath>
  </animateMotion>
</circle><path id="path58" d="M 362.15976317732236 281.82490142009664
c 0 32.224965723694226 -7.884832038776246 9.256107175954725 -17.14093921473097 9.256107175954725
S 327.87788474786043 314.04986714379083 327.87788474786043 281.82490142009664
s 7.884832038776246 -9.256107175954725 17.14093921473097 -9.256107175954725
S 362.15976317732236 249.5999356964024 362.15976317732236 281.82490142009664
z" fill="none" stroke="none"></path>
<circle cx="0" cy="0" r="2.557998465761758" fill="#727272">
  <animateMotion begin="-3.1277320889955833s" dur="4.88s" repeatCount="indefinite">
    <mpath xlink:href="#path58"></mpath>
  </animateMotion>
</circle><path id="path59" d="M 1372.9475094664465 377.12663101380934
c 0 35.37958463076925 -8.656706877741412 10.162221117348615 -18.81892799509003 10.162221117348615
S 1335.3096534762665 412.5062156445786 1335.3096534762665 377.12663101380934
s 8.656706877741412 -10.162221117348615 18.81892799509003 -10.162221117348615
S 1372.9475094664465 341.7470463830401 1372.9475094664465 377.12663101380934
z" fill="none" stroke="none"></path>
<circle cx="0" cy="0" r="1.9913347452276757" fill="#f2f2f2">
  <animateMotion begin="-2.084978881279262s" dur="4.88s" repeatCount="indefinite">
    <mpath xlink:href="#path59"></mpath>
  </animateMotion>
</circle><path id="path60" d="M 1522.4841819931787 345.2263794835816
c 0 34.36479583582429 -8.408407491744239 9.870739229438891 -18.27914672118313 9.870739229438891
S 1485.9258885508123 379.59117531940586 1485.9258885508123 345.2263794835816
s 8.408407491744239 -9.870739229438891 18.27914672118313 -9.870739229438891
S 1522.4841819931787 310.8615836477573 1522.4841819931787 345.2263794835816
z" fill="none" stroke="none"></path>
<circle cx="0" cy="0" r="1.6570293076095466" fill="#727272">
  <animateMotion begin="-3.000011088865539s" dur="4.88s" repeatCount="indefinite">
    <mpath xlink:href="#path60"></mpath>
  </animateMotion>
</circle><path id="path61" d="M 703.9320768687751 324.6352825356515
c 0 26.688769837182484 -6.5302309176084785 7.665923251105607 -14.196154168714086 7.665923251105607
S 675.5397685313469 351.324052372834 675.5397685313469 324.6352825356515
s 6.5302309176084785 -7.665923251105607 14.196154168714086 -7.665923251105607
S 703.9320768687751 297.94651269846906 703.9320768687751 324.6352825356515
z" fill="none" stroke="none"></path>
<circle cx="0" cy="0" r="1.8563160938183865" fill="#727272">
  <animateMotion begin="-2.9280634891607775s" dur="4.88s" repeatCount="indefinite">
    <mpath xlink:href="#path61"></mpath>
  </animateMotion>
</circle><path id="path62" d="M 121.9170388375423 765.7165661698585
c 0 20.963310019529718 -5.129320536693442 6.021376282205345 -11.150696818898787 6.021376282205345
S 99.6156451997447 786.6798761893882 99.6156451997447 765.7165661698585
s 5.129320536693442 -6.021376282205345 11.150696818898787 -6.021376282205345
S 121.9170388375423 744.7532561503289 121.9170388375423 765.7165661698585
z" fill="none" stroke="none"></path>
<circle cx="0" cy="0" r="1.799709066216682" fill="#f2f2f2">
  <animateMotion begin="-1.517469471370182s" dur="4.88s" repeatCount="indefinite">
    <mpath xlink:href="#path62"></mpath>
  </animateMotion>
</circle><path id="path63" d="M 1645.129833393454 1453.8608265748196
c 0 26.49752495202031 -6.483436956345394 7.610991209622855 -14.09442816596825 7.610991209622855
S 1616.9409770615173 1480.35835152684 1616.9409770615173 1453.8608265748196
s 6.483436956345394 -7.610991209622855 14.09442816596825 -7.610991209622855
S 1645.129833393454 1427.3633016227993 1645.129833393454 1453.8608265748196
z" fill="none" stroke="none"></path>
<circle cx="0" cy="0" r="2.6074945675052636" fill="#727272">
  <animateMotion begin="-2.865846800326944s" dur="4.88s" repeatCount="indefinite">
    <mpath xlink:href="#path63"></mpath>
  </animateMotion>
</circle><path id="path64" d="M 2123.1665099460593 1594.4274742285531
c 0 19.11768966888479 -4.677732578556916 5.491251287871163 -10.168983866428078 5.491251287871163
S 2102.8285422132035 1613.545163897438 2102.8285422132035 1594.4274742285531
s 4.677732578556916 -5.491251287871163 10.168983866428078 -5.491251287871163
S 2123.1665099460593 1575.3097845596683 2123.1665099460593 1594.4274742285531
z" fill="none" stroke="none"></path>
<circle cx="0" cy="0" r="2.681043879123835" fill="#f2f2f2">
  <animateMotion begin="-4.65532443149473s" dur="4.88s" repeatCount="indefinite">
    <mpath xlink:href="#path64"></mpath>
  </animateMotion>
</circle><path id="path65" d="M 1479.6010957668836 1575.923609312183
c 0 31.849030869242508 -7.792847978644442 9.148125887973912 -16.940973866618354 9.148125887973912
S 1445.719148033647 1607.7726401814257 1445.719148033647 1575.923609312183
s 7.792847978644442 -9.148125887973912 16.940973866618354 -9.148125887973912
S 1479.6010957668836 1544.0745784429405 1479.6010957668836 1575.923609312183
z" fill="none" stroke="none"></path>
<circle cx="0" cy="0" r="2.1532190002274163" fill="#f2f2f2">
  <animateMotion begin="-1.9621646571095541s" dur="4.88s" repeatCount="indefinite">
    <mpath xlink:href="#path65"></mpath>
  </animateMotion>
</circle><path id="path66" d="M 1559.0719659468198 886.4062358412469
c 0 25.09110092429533 -6.139311928285027 7.207018350595467 -13.346330278880494 7.207018350595467
S 1532.3793053890588 911.4973367655423 1532.3793053890588 886.4062358412469
s 6.139311928285027 -7.207018350595467 13.346330278880494 -7.207018350595467
S 1559.0719659468198 861.3151349169516 1559.0719659468198 886.4062358412469
z" fill="none" stroke="none"></path>
<circle cx="0" cy="0" r="1.6323669390999278" fill="#f2f2f2">
  <animateMotion begin="-0.0748399576098582s" dur="4.88s" repeatCount="indefinite">
    <mpath xlink:href="#path66"></mpath>
  </animateMotion>
</circle><path id="path67" d="M 2193.304264352668 958.1327660119414
c 0 31.867212511455755 -7.797296678334917 9.15334827456708 -16.950644952901996 9.15334827456708
S 2159.4029744468635 989.9999785233971 2159.4029744468635 958.1327660119414
s 7.797296678334917 -9.15334827456708 16.950644952901996 -9.15334827456708
S 2193.304264352668 926.2655535004857 2193.304264352668 958.1327660119414
z" fill="none" stroke="none"></path>
<circle cx="0" cy="0" r="1.8329353520733953" fill="#f2f2f2">
  <animateMotion begin="-2.0316589505001588s" dur="4.88s" repeatCount="indefinite">
    <mpath xlink:href="#path67"></mpath>
  </animateMotion>
</circle><path id="path68" d="M 270.42749572048683 179.36587305481092
c 0 31.42784136538146 -7.689790972380569 9.02714592409893 -16.7169368964795 9.02714592409893
S 236.99362192752784 210.79371442019237 236.99362192752784 179.36587305481092
s 7.689790972380569 -9.02714592409893 16.7169368964795 -9.02714592409893
S 270.42749572048683 147.93803168942947 270.42749572048683 179.36587305481092
z" fill="none" stroke="none"></path>
<circle cx="0" cy="0" r="1.7125348191222018" fill="#f2f2f2">
  <animateMotion begin="-3.750710577461114s" dur="4.88s" repeatCount="indefinite">
    <mpath xlink:href="#path68"></mpath>
  </animateMotion>
</circle><path id="path69" d="M 848.7540748566025 208.6258259166011
c 0 26.93690217614443 -6.590944149482146 7.737195305913826 -14.328139455395972 7.737195305913826
S 820.0977959458105 235.56272809274552 820.0977959458105 208.6258259166011
s 6.590944149482146 -7.737195305913826 14.328139455395972 -7.737195305913826
S 848.7540748566025 181.68892374045666 848.7540748566025 208.6258259166011
z" fill="none" stroke="none"></path>
<circle cx="0" cy="0" r="2.714816276051189" fill="#727272">
  <animateMotion begin="-1.8726574444440456s" dur="4.88s" repeatCount="indefinite">
    <mpath xlink:href="#path69"></mpath>
  </animateMotion>
</circle><path id="path70" d="M 950.3344891914529 1629.37090163265
c 0 24.12769881399727 -5.903585880020608 6.9302964678502805 -12.833882347870889 6.9302964678502805
S 924.666724495711 1653.4986004466473 924.666724495711 1629.37090163265
s 5.903585880020608 -6.9302964678502805 12.833882347870889 -6.9302964678502805
S 950.3344891914529 1605.2432028186527 950.3344891914529 1629.37090163265
z" fill="none" stroke="none"></path>
<circle cx="0" cy="0" r="2.5194517290849645" fill="#727272">
  <animateMotion begin="-2.0576021897214476s" dur="4.88s" repeatCount="indefinite">
    <mpath xlink:href="#path70"></mpath>
  </animateMotion>
</circle><path id="path71" d="M 986.9987628249049 844.7871988016371
c 0 29.382521071724106 -7.189340262230366 8.439660307835648 -15.629000570066014 8.439660307835648
S 955.7407616847728 874.1697198733613 955.7407616847728 844.7871988016371
s 7.189340262230366 -8.439660307835648 15.629000570066014 -8.439660307835648
S 986.9987628249049 815.404677729913 986.9987628249049 844.7871988016371
z" fill="none" stroke="none"></path>
<circle cx="0" cy="0" r="2.2118650246583416" fill="#f2f2f2">
  <animateMotion begin="-0.04169392695182731s" dur="4.88s" repeatCount="indefinite">
    <mpath xlink:href="#path71"></mpath>
  </animateMotion>
</circle><path id="path72" d="M 1805.7189613367095 861.8327534904868
c 0 27.48572257550549 -6.725229991879003 7.89483520785796 -14.620065199736963 7.89483520785796
S 1776.4788309372357 889.3184760659923 1776.4788309372357 861.8327534904868
s 6.725229991879003 -7.89483520785796 14.620065199736963 -7.89483520785796
S 1805.7189613367095 834.3470309149812 1805.7189613367095 861.8327534904868
z" fill="none" stroke="none"></path>
<circle cx="0" cy="0" r="2.257344318941252" fill="#727272">
  <animateMotion begin="-0.7483713050735689s" dur="4.88s" repeatCount="indefinite">
    <mpath xlink:href="#path72"></mpath>
  </animateMotion>
</circle><path id="path73" d="M 87.40745987736715 932.3109522695017
c 0 24.947417666007112 -6.104155386363442 7.165747627470129 -13.26990301383357 7.165747627470129
S 60.867653849700005 957.2583699355089 60.867653849700005 932.3109522695017
s 6.104155386363442 -7.165747627470129 13.26990301383357 -7.165747627470129
S 87.40745987736715 907.3635346034946 87.40745987736715 932.3109522695017
z" fill="none" stroke="none"></path>
<circle cx="0" cy="0" r="2.2850468524144523" fill="#f2f2f2">
  <animateMotion begin="-1.5667881397550292s" dur="4.88s" repeatCount="indefinite">
    <mpath xlink:href="#path73"></mpath>
  </animateMotion>
</circle><path id="path74" d="M 607.764557690876 994.1495668860954
c 0 35.283758725735474 -8.633260113743786 10.134696655264445 -18.767956769008233 10.134696655264445
S 570.2286441528595 1029.433325611831 570.2286441528595 994.1495668860954
s 8.633260113743786 -10.134696655264445 18.767956769008233 -10.134696655264445
S 607.764557690876 958.86580816036 607.764557690876 994.1495668860954
z" fill="none" stroke="none"></path>
<circle cx="0" cy="0" r="1.9361149238650355" fill="#f2f2f2">
  <animateMotion begin="-3.536850077668339s" dur="4.88s" repeatCount="indefinite">
    <mpath xlink:href="#path74"></mpath>
  </animateMotion>
</circle><path id="path75" d="M 2380.6857481489455 177.0493846979643
c 0 36.5672440277687 -8.94730438977319 10.503357327125052 -19.450661716898242 10.503357327125052
S 2341.7844247151493 213.61662872573302 2341.7844247151493 177.0493846979643
s 8.94730438977319 -10.503357327125052 19.450661716898242 -10.503357327125052
S 2380.6857481489455 140.4821406701956 2380.6857481489455 177.0493846979643
z" fill="none" stroke="none"></path>
<circle cx="0" cy="0" r="2.883187192949581" fill="#727272">
  <animateMotion begin="-2.77047066912129s" dur="4.88s" repeatCount="indefinite">
    <mpath xlink:href="#path75"></mpath>
  </animateMotion>
</circle><path id="path76" d="M 2397.567668142509 549.3910739990072
c 0 33.86623158847868 -8.286418367393718 9.727534605201324 -18.013952972595042 9.727534605201324
S 2361.5397621973184 583.2573055874859 2361.5397621973184 549.3910739990072
s 8.286418367393718 -9.727534605201324 18.013952972595042 -9.727534605201324
S 2397.567668142509 515.5248424105284 2397.567668142509 549.3910739990072
z" fill="none" stroke="none"></path>
<circle cx="0" cy="0" r="2.2554079957220967" fill="#727272">
  <animateMotion begin="-2.259567593367321s" dur="4.88s" repeatCount="indefinite">
    <mpath xlink:href="#path76"></mpath>
  </animateMotion>
</circle><path id="path77" d="M 567.5692845455485 1399.3266514460654
c 0 28.809147303567958 -7.049046680660244 8.2749678425142 -15.324014523174444 8.2749678425142
S 536.9212554991996 1428.1357987496333 536.9212554991996 1399.3266514460654
s 7.049046680660244 -8.2749678425142 15.324014523174444 -8.2749678425142
S 567.5692845455485 1370.5175041424975 567.5692845455485 1399.3266514460654
z" fill="none" stroke="none"></path>
<circle cx="0" cy="0" r="2.814562723943581" fill="#f2f2f2">
  <animateMotion begin="-4.369283491487857s" dur="4.88s" repeatCount="indefinite">
    <mpath xlink:href="#path77"></mpath>
  </animateMotion>
</circle><path id="path78" d="M 1816.7432391954676 390.5818438686439
c 0 33.48374086493462 -8.192830211632938 9.617670248438667 -17.810500460071605 9.617670248438667
S 1781.1222382753244 424.0655847335785 1781.1222382753244 390.5818438686439
s 8.192830211632938 -9.617670248438667 17.810500460071605 -9.617670248438667
S 1816.7432391954676 357.0981030037093 1816.7432391954676 390.5818438686439
z" fill="none" stroke="none"></path>
<circle cx="0" cy="0" r="2.428782182769911" fill="#727272">
  <animateMotion begin="-2.7216501019254626s" dur="4.88s" repeatCount="indefinite">
    <mpath xlink:href="#path78"></mpath>
  </animateMotion>
</circle><path id="path79" d="M 1678.5349595949226 966.9310507707112
c 0 37.137296416463286 -9.086785293389951 10.6670957791969 -19.75388107258685 10.6670957791969
S 1639.0271974497489 1004.0683471871745 1639.0271974497489 966.9310507707112
s 9.086785293389951 -10.6670957791969 19.75388107258685 -10.6670957791969
S 1678.5349595949226 929.7937543542479 1678.5349595949226 966.9310507707112
z" fill="none" stroke="none"></path>
<circle cx="0" cy="0" r="2.1131226358377675" fill="#f2f2f2">
  <animateMotion begin="-3.9855168013625706s" dur="4.88s" repeatCount="indefinite">
    <mpath xlink:href="#path79"></mpath>
  </animateMotion>
</circle><path id="path80" d="M 424.1611966178694 1126.4551180714768
c 0 34.078136342045156 -8.338267402840836 9.78840086420446 -18.126668267045297 9.78840086420446
S 387.90786008377876 1160.533254413522 387.90786008377876 1126.4551180714768
s 8.338267402840836 -9.78840086420446 18.126668267045297 -9.78840086420446
S 424.1611966178694 1092.3769817294317 424.1611966178694 1126.4551180714768
z" fill="none" stroke="none"></path>
<circle cx="0" cy="0" r="2.025468518817024" fill="#f2f2f2">
  <animateMotion begin="-2.8226287699831167s" dur="4.88s" repeatCount="indefinite">
    <mpath xlink:href="#path80"></mpath>
  </animateMotion>
</circle><path id="path81" d="M 1319.7220228601782 110.93713398542504
c 0 34.14148816973658 -8.353768381956822 9.806597665775401 -18.160366047732225 9.806597665775401
S 1283.4012907647138 145.0786221551616 1283.4012907647138 110.93713398542504
s 8.353768381956822 -9.806597665775401 18.160366047732225 -9.806597665775401
S 1319.7220228601782 76.79564581568846 1319.7220228601782 110.93713398542504
z" fill="none" stroke="none"></path>
<circle cx="0" cy="0" r="2.380370101683847" fill="#727272">
  <animateMotion begin="-0.7890028238645428s" dur="4.88s" repeatCount="indefinite">
    <mpath xlink:href="#path81"></mpath>
  </animateMotion>
</circle><path id="path82" d="M 1552.3878647790589 83.18215224079512
c 0 33.021955068506806 -8.079840069953791 9.485029647337061 -17.56486971729085 9.485029647337061
S 1517.2581253444773 116.20410730930192 1517.2581253444773 83.18215224079512
s 8.079840069953791 -9.485029647337061 17.56486971729085 -9.485029647337061
S 1552.3878647790589 50.16019717228831 1552.3878647790589 83.18215224079512
z" fill="none" stroke="none"></path>
<circle cx="0" cy="0" r="2.336802469109127" fill="#727272">
  <animateMotion begin="-4.705357410895471s" dur="4.88s" repeatCount="indefinite">
    <mpath xlink:href="#path82"></mpath>
  </animateMotion>
</circle><path id="path83" d="M 1415.8132450044698 613.0064230609036
c 0 30.533281317283564 -7.470909258484276 8.770197825177194 -16.24110708366147 8.770197825177194
S 1383.3310308371467 643.5397043781871 1383.3310308371467 613.0064230609036
s 7.470909258484276 -8.770197825177194 16.24110708366147 -8.770197825177194
S 1415.8132450044698 582.47314174362 1415.8132450044698 613.0064230609036
z" fill="none" stroke="none"></path>
<circle cx="0" cy="0" r="1.7426318158629315" fill="#f2f2f2">
  <animateMotion begin="-4.097515498218359s" dur="4.88s" repeatCount="indefinite">
    <mpath xlink:href="#path83"></mpath>
  </animateMotion>
</circle><path id="path84" d="M 1299.4682328068652 1515.6055970188174
c 0 20.11809566270959 -4.9225127685353245 5.778601945671903 -10.701114714207227 5.778601945671903
S 1278.0660033784507 1535.723692681527 1278.0660033784507 1515.6055970188174
s 4.9225127685353245 -5.778601945671903 10.701114714207227 -5.778601945671903
S 1299.4682328068652 1495.487501356108 1299.4682328068652 1515.6055970188174
z" fill="none" stroke="none"></path>
<circle cx="0" cy="0" r="2.3690563447600548" fill="#727272">
  <animateMotion begin="-0.4564711787209034s" dur="4.88s" repeatCount="indefinite">
    <mpath xlink:href="#path84"></mpath>
  </animateMotion>
</circle><path id="path85" d="M 1851.720266132907 140.76726065504394
c 0 34.18924607935954 -8.365453827928397 9.820315363220294 -18.18576919114869 9.820315363220294
S 1815.3487277506097 174.9565067344035 1815.3487277506097 140.76726065504394
s 8.365453827928397 -9.820315363220294 18.18576919114869 -9.820315363220294
S 1851.720266132907 106.57801457568439 1851.720266132907 140.76726065504394
z" fill="none" stroke="none"></path>
<circle cx="0" cy="0" r="1.5369566770967997" fill="#727272">
  <animateMotion begin="-2.839410364488722s" dur="4.88s" repeatCount="indefinite">
    <mpath xlink:href="#path85"></mpath>
  </animateMotion>
</circle><path id="path86" d="M 2133.147721292641 16.79376269041117
c 0 35.25757956509032 -8.626854574436992 10.127177109121687 -18.75403168355868 10.127177109121687
S 2095.6396579255234 52.05134225550149 2095.6396579255234 16.79376269041117
s 8.626854574436992 -10.127177109121687 18.75403168355868 -10.127177109121687
S 2133.147721292641 -18.463816874679146 2133.147721292641 16.79376269041117
z" fill="none" stroke="none"></path>
<circle cx="0" cy="0" r="2.3670896687988137" fill="#f2f2f2">
  <animateMotion begin="-4.747637050332327s" dur="4.88s" repeatCount="indefinite">
    <mpath xlink:href="#path86"></mpath>
  </animateMotion>
</circle><path id="path87" d="M 964.9203555887019 21.658834050160635
c 0 26.185126195635036 -6.406998962761763 7.521259651937723 -13.928258614699487 7.521259651937723
S 937.0638383593028 47.84396024579567 937.0638383593028 21.658834050160635
s 6.406998962761763 -7.521259651937723 13.928258614699487 -7.521259651937723
S 964.9203555887019 -4.5262921454744 964.9203555887019 21.658834050160635
z" fill="none" stroke="none"></path>
<circle cx="0" cy="0" r="1.9596763900874943" fill="#727272">
  <animateMotion begin="-4.734544073908354s" dur="4.88s" repeatCount="indefinite">
    <mpath xlink:href="#path87"></mpath>
  </animateMotion>
</circle><path id="path88" d="M 623.7252129494974 629.2615843154015
c 0 24.833313055469226 -6.076236173146725 7.132972898911374 -13.2092090720581 7.132972898911374
S 597.3067948053812 654.0948973708707 597.3067948053812 629.2615843154015
s 6.076236173146725 -7.132972898911374 13.2092090720581 -7.132972898911374
S 623.7252129494974 604.4282712599322 623.7252129494974 629.2615843154015
z" fill="none" stroke="none"></path>
<circle cx="0" cy="0" r="2.92576041146295" fill="#f2f2f2">
  <animateMotion begin="-3.404788872418482s" dur="4.88s" repeatCount="indefinite">
    <mpath xlink:href="#path88"></mpath>
  </animateMotion>
</circle><path id="path89" d="M 1481.3930937536352 776.3102610803045
c 0 24.983153699130366 -6.112899309361684 7.176012232728936 -13.28891154209062 7.176012232728936
S 1454.815270669454 801.2934147794349 1454.815270669454 776.3102610803045
s 6.112899309361684 -7.176012232728936 13.28891154209062 -7.176012232728936
S 1481.3930937536352 751.3271073811741 1481.3930937536352 776.3102610803045
z" fill="none" stroke="none"></path>
<circle cx="0" cy="0" r="2.961910125378209" fill="#f2f2f2">
  <animateMotion begin="-4.687773526333008s" dur="4.88s" repeatCount="indefinite">
    <mpath xlink:href="#path89"></mpath>
  </animateMotion>
</circle><path id="path90" d="M 55.75053368130051 1609.8350878305826
c 0 28.76615633667617 -7.038527614293104 8.262619373300602 -15.301146987593706 8.262619373300602
S 25.148239706113102 1638.6012441672588 25.148239706113102 1609.8350878305826
s 7.038527614293104 -8.262619373300602 15.301146987593706 -8.262619373300602
S 55.75053368130051 1581.0689314939063 55.75053368130051 1609.8350878305826
z" fill="none" stroke="none"></path>
<circle cx="0" cy="0" r="2.2502457794034445" fill="#727272">
  <animateMotion begin="-0.8122260084679547s" dur="4.88s" repeatCount="indefinite">
    <mpath xlink:href="#path90"></mpath>
  </animateMotion>
</circle><path id="path91" d="M 1475.7383813512556 140.64123129304576
c 0 35.73677517036119 -8.744104562960716 10.264818399997365 -19.00892296295808 10.264818399997365
S 1437.7205354253397 176.37800646340696 1437.7205354253397 140.64123129304576
s 8.744104562960716 -10.264818399997365 19.00892296295808 -10.264818399997365
S 1475.7383813512556 104.90445612268456 1475.7383813512556 140.64123129304576
z" fill="none" stroke="none"></path>
<circle cx="0" cy="0" r="1.9546841383979023" fill="#727272">
  <animateMotion begin="-2.2901149141339374s" dur="4.88s" repeatCount="indefinite">
    <mpath xlink:href="#path91"></mpath>
  </animateMotion>
</circle><path id="path92" d="M 2114.086133775844 278.9552206977056
c 0 19.91467908472406 -4.872740627113333 5.720173779654783 -10.592914406768116 5.720173779654783
S 2092.9003049623075 298.8698997824297 2092.9003049623075 278.9552206977056
s 4.872740627113333 -5.720173779654783 10.592914406768116 -5.720173779654783
S 2114.086133775844 259.04054161298154 2114.086133775844 278.9552206977056
z" fill="none" stroke="none"></path>
<circle cx="0" cy="0" r="1.857066050781255" fill="#727272">
  <animateMotion begin="-1.9553522193231583s" dur="4.88s" repeatCount="indefinite">
    <mpath xlink:href="#path92"></mpath>
  </animateMotion>
</circle><path id="path93" d="M 921.0054698985217 117.63824898751959
c 0 32.03611297800525 -7.838623388235326 9.20186223836321 -17.040485626598535 9.20186223836321
S 886.9244986453247 149.67436196552484 886.9244986453247 117.63824898751959
s 7.838623388235326 -9.20186223836321 17.040485626598535 -9.20186223836321
S 921.0054698985217 85.60213600951434 921.0054698985217 117.63824898751959
z" fill="none" stroke="none"></path>
<circle cx="0" cy="0" r="2.0548340003831127" fill="#727272">
  <animateMotion begin="-1.5902243279043045s" dur="4.88s" repeatCount="indefinite">
    <mpath xlink:href="#path93"></mpath>
  </animateMotion>
</circle><path id="path94" d="M 2252.248292245876 1544.9833717343056
c 0 21.881782643891622 -5.3540532001011405 6.285192887075253 -11.639246087176394 6.285192887075253
S 2228.969800071523 1566.8651543781973 2228.969800071523 1544.9833717343056
s 5.3540532001011405 -6.285192887075253 11.639246087176394 -6.285192887075253
S 2252.248292245876 1523.1015890904139 2252.248292245876 1544.9833717343056
z" fill="none" stroke="none"></path>
<circle cx="0" cy="0" r="2.6718175917431948" fill="#727272">
  <animateMotion begin="-3.4915659288323093s" dur="4.88s" repeatCount="indefinite">
    <mpath xlink:href="#path94"></mpath>
  </animateMotion>
</circle><path id="path95" d="M 1418.8406865793 1080.3740233381745
c 0 26.773130126914893 -6.550872265096197 7.690154398156406 -14.241026663252603 7.690154398156406
S 1390.3586332527948 1107.1471534650893 1390.3586332527948 1080.3740233381745
s 6.550872265096197 -7.690154398156406 14.241026663252603 -7.690154398156406
S 1418.8406865793 1053.6008932112597 1418.8406865793 1080.3740233381745
z" fill="none" stroke="none"></path>
<circle cx="0" cy="0" r="2.4842164537982216" fill="#727272">
  <animateMotion begin="-4.797307104772796s" dur="4.88s" repeatCount="indefinite">
    <mpath xlink:href="#path95"></mpath>
  </animateMotion>
</circle><path id="path96" d="M 682.2566350476511 1244.6210078020563
c 0 21.867361884066604 -5.350524716314168 6.281050753934024 -11.631575470248192 6.281050753934024
S 658.9934841071547 1266.488369686123 658.9934841071547 1244.6210078020563
s 5.350524716314168 -6.281050753934024 11.631575470248192 -6.281050753934024
S 682.2566350476511 1222.7536459179896 682.2566350476511 1244.6210078020563
z" fill="none" stroke="none"></path>
<circle cx="0" cy="0" r="2.518194316485475" fill="#f2f2f2">
  <animateMotion begin="-3.581939188484733s" dur="4.88s" repeatCount="indefinite">
    <mpath xlink:href="#path96"></mpath>
  </animateMotion>
</circle><path id="path97" d="M 749.0165153688434 1563.3465480029424
c 0 20.24478005797306 -4.953510014184897 5.814990016651837 -10.768500030836734 5.814990016651837
S 727.4795153071699 1583.5913280609154 727.4795153071699 1563.3465480029424
s 4.953510014184897 -5.814990016651837 10.768500030836734 -5.814990016651837
S 749.0165153688434 1543.1017679449694 749.0165153688434 1563.3465480029424
z" fill="none" stroke="none"></path>
<circle cx="0" cy="0" r="2.6444624306091393" fill="#727272">
  <animateMotion begin="-0.7867950213666846s" dur="4.88s" repeatCount="indefinite">
    <mpath xlink:href="#path97"></mpath>
  </animateMotion>
</circle><path id="path98" d="M 1862.1496995325629 104.08267468224234
c 0 33.34682365812919 -8.159329192946503 9.578342965632851 -17.737672158579354 9.578342965632851
S 1826.6743552154044 137.42949834037154 1826.6743552154044 104.08267468224234
s 8.159329192946503 -9.578342965632851 17.737672158579354 -9.578342965632851
S 1862.1496995325629 70.73585102411315 1862.1496995325629 104.08267468224234
z" fill="none" stroke="none"></path>
<circle cx="0" cy="0" r="2.6556130129811475" fill="#f2f2f2">
  <animateMotion begin="-1.451994362730714s" dur="4.88s" repeatCount="indefinite">
    <mpath xlink:href="#path98"></mpath>
  </animateMotion>
</circle><path id="path99" d="M 1825.10153875297 749.9136453347379
c 0 19.00213673764306 -4.649458988997769 5.458060552301729 -10.1075195412995 5.458060552301729
S 1804.886499670371 768.9157820723809 1804.886499670371 749.9136453347379
s 4.649458988997769 -5.458060552301729 10.1075195412995 -5.458060552301729
S 1825.10153875297 730.9115085970949 1825.10153875297 749.9136453347379
z" fill="none" stroke="none"></path>
<circle cx="0" cy="0" r="1.875780315633417" fill="#727272">
  <animateMotion begin="-0.3927910823042787s" dur="4.88s" repeatCount="indefinite">
    <mpath xlink:href="#path99"></mpath>
  </animateMotion>
</circle></g>
</svg>