<svg xmlns="http://www.w3.org/2000/svg" xmlns:xlink="http://www.w3.org/1999/xlink" style="margin:auto;background:#2a2a2a;display:block;z-index:1;position:relative" width="2323" height="1668" preserveAspectRatio="xMidYMid" viewBox="0 0 2323 1668">
<g transform="translate(1161.5,834) scale(1,1) translate(-1161.5,-834)"><path id="path0" d="M 2003.411428585959 481.0863643230226
c 0 34.18638291417744 -8.364753266234906 9.819492964710543 -18.184246230945448 9.819492964710543
S 1967.0429361240679 515.2727472372001 1967.0429361240679 481.0863643230226
s 8.364753266234906 -9.819492964710543 18.184246230945448 -9.819492964710543
S 2003.411428585959 446.8999814088452 2003.411428585959 481.0863643230226
z" fill="none" stroke="none"></path>
<circle cx="0" cy="0" r="1.4188825050732576" fill="#ffffff">
  <animateMotion begin="-4.083733454881585s" dur="5.51s" repeatCount="indefinite">
    <mpath xlink:href="#path0"></mpath>
  </animateMotion>
</circle><path id="path1" d="M 428.17504330619636 1287.189576984181
c 0 19.4391100353705 -4.7563779873778875 5.583574159095782 -10.33995214647367 5.583574159095782
S 407.49513901324906 1306.6286870195515 407.49513901324906 1287.189576984181
s 4.7563779873778875 -5.583574159095782 10.33995214647367 -5.583574159095782
S 428.17504330619636 1267.7504669488105 428.17504330619636 1287.189576984181
z" fill="none" stroke="none"></path>
<circle cx="0" cy="0" r="2.117651605070589" fill="#ffffff">
  <animateMotion begin="-3.8606118200671466s" dur="5.51s" repeatCount="indefinite">
    <mpath xlink:href="#path1"></mpath>
  </animateMotion>
</circle><path id="path2" d="M 1942.367215863402 372.55902858953664
c 0 26.32555868416772 -6.441360103572952 7.561596643324771 -14.002956746897723 7.561596643324771
S 1914.3613023696064 398.88458727370437 1914.3613023696064 372.55902858953664
s 6.441360103572952 -7.561596643324771 14.002956746897723 -7.561596643324771
S 1942.367215863402 346.2334699053689 1942.367215863402 372.55902858953664
z" fill="none" stroke="none"></path>
<circle cx="0" cy="0" r="1.2957734227926165" fill="#ffffff">
  <animateMotion begin="-4.303986757333987s" dur="5.51s" repeatCount="indefinite">
    <mpath xlink:href="#path2"></mpath>
  </animateMotion>
</circle><path id="path3" d="M 2279.653581380393 123.81891510930905
c 0 24.11594693319363 -5.900710419823973 6.926920927619447 -12.82763134744342 6.926920927619447
S 2253.998318685506 147.9348620425027 2253.998318685506 123.81891510930905
s 5.900710419823973 -6.926920927619447 12.82763134744342 -6.926920927619447
S 2279.653581380393 99.70296817611542 2279.653581380393 123.81891510930905
z" fill="none" stroke="none"></path>
<circle cx="0" cy="0" r="1.8699983919505598" fill="#ffffff">
  <animateMotion begin="-2.0316190685477196s" dur="5.51s" repeatCount="indefinite">
    <mpath xlink:href="#path3"></mpath>
  </animateMotion>
</circle><path id="path4" d="M 105.80736157450704 807.7671677003945
c 0 34.745052541443094 -8.501449026097777 9.97996190020174 -18.481410926299517 9.97996190020174
S 68.844539721908 842.5122202418376 68.844539721908 807.7671677003945
s 8.501449026097777 -9.97996190020174 18.481410926299517 -9.97996190020174
S 105.80736157450704 773.0221151589514 105.80736157450704 807.7671677003945
z" fill="none" stroke="none"></path>
<circle cx="0" cy="0" r="2.3368687327770368" fill="#ffffff">
  <animateMotion begin="-4.9896505251990195s" dur="5.51s" repeatCount="indefinite">
    <mpath xlink:href="#path4"></mpath>
  </animateMotion>
</circle><path id="path5" d="M 429.21178434265215 429.1399026483312
c 0 24.727202859737428 -6.050273040148519 7.102494438435219 -13.152767478583737 7.102494438435219
S 402.9062493854847 453.8671055080686 402.9062493854847 429.1399026483312
s 6.050273040148519 -7.102494438435219 13.152767478583737 -7.102494438435219
S 429.21178434265215 404.4126997885938 429.21178434265215 429.1399026483312
z" fill="none" stroke="none"></path>
<circle cx="0" cy="0" r="1.3428978776628488" fill="#ffffff">
  <animateMotion begin="-3.503088430200835s" dur="5.51s" repeatCount="indefinite">
    <mpath xlink:href="#path5"></mpath>
  </animateMotion>
</circle><path id="path6" d="M 2144.8715125284243 1646.0269081553733
c 0 24.123809381509158 -5.902634210369261 6.929179290433481 -12.831813500802742 6.929179290433481
S 2119.207885526819 1670.1507175368824 2119.207885526819 1646.0269081553733
s 5.902634210369261 -6.929179290433481 12.831813500802742 -6.929179290433481
S 2144.8715125284243 1621.9030987738643 2144.8715125284243 1646.0269081553733
z" fill="none" stroke="none"></path>
<circle cx="0" cy="0" r="1.4048842631178935" fill="#ffffff">
  <animateMotion begin="-1.643458011319516s" dur="5.51s" repeatCount="indefinite">
    <mpath xlink:href="#path6"></mpath>
  </animateMotion>
</circle><path id="path7" d="M 1641.1938438796444 822.7019874609192
c 0 27.715176492006563 -6.7813729714484134 7.960742183874226 -14.74211515532264 7.960742183874226
S 1611.7096135689992 850.4171639529258 1611.7096135689992 822.7019874609192
s 6.7813729714484134 -7.960742183874226 14.74211515532264 -7.960742183874226
S 1641.1938438796444 794.9868109689127 1641.1938438796444 822.7019874609192
z" fill="none" stroke="none"></path>
<circle cx="0" cy="0" r="1.6564812195868814" fill="#8a8a8a">
  <animateMotion begin="-2.262191997968512s" dur="5.51s" repeatCount="indefinite">
    <mpath xlink:href="#path7"></mpath>
  </animateMotion>
</circle><path id="path8" d="M 597.6245187095998 348.0114692082588
c 0 24.402881657306157 -5.970917852319591 7.009338348375173 -12.980256200694765 7.009338348375173
S 571.6640063082103 372.414350865565 571.6640063082103 348.0114692082588
s 5.970917852319591 -7.009338348375173 12.980256200694765 -7.009338348375173
S 597.6245187095998 323.6085875509526 597.6245187095998 348.0114692082588
z" fill="none" stroke="none"></path>
<circle cx="0" cy="0" r="2.0077203874652114" fill="#8a8a8a">
  <animateMotion begin="-4.501953037413405s" dur="5.51s" repeatCount="indefinite">
    <mpath xlink:href="#path8"></mpath>
  </animateMotion>
</circle><path id="path9" d="M 195.00035177305537 975.2270483181353
c 0 29.919901968845735 -7.32082707748353 8.594014395306754 -15.914841472790284 8.594014395306754
S 163.17066882747483 1005.146950286981 163.17066882747483 975.2270483181353
s 7.32082707748353 -8.594014395306754 15.914841472790284 -8.594014395306754
S 195.00035177305537 945.3071463492896 195.00035177305537 975.2270483181353
z" fill="none" stroke="none"></path>
<circle cx="0" cy="0" r="1.9169220703568617" fill="#ffffff">
  <animateMotion begin="-2.426354399509472s" dur="5.51s" repeatCount="indefinite">
    <mpath xlink:href="#path9"></mpath>
  </animateMotion>
</circle><path id="path10" d="M 111.03313443115657 575.5423146222747
c 0 29.354110656902506 -7.182388777752741 8.431499869535827 -15.613888647288567 8.431499869535827
S 79.80535713657945 604.8964252791773 79.80535713657945 575.5423146222747
s 7.182388777752741 -8.431499869535827 15.613888647288567 -8.431499869535827
S 111.03313443115657 546.1882039653722 111.03313443115657 575.5423146222747
z" fill="none" stroke="none"></path>
<circle cx="0" cy="0" r="1.4176951283077763" fill="#ffffff">
  <animateMotion begin="-2.8728579254190607s" dur="5.51s" repeatCount="indefinite">
    <mpath xlink:href="#path10"></mpath>
  </animateMotion>
</circle><path id="path11" d="M 1874.0494076717903 243.54330739876042
c 0 19.3476667321765 -4.734003562128292 5.557308529454953 -10.291312091583244 5.557308529454953
S 1853.4667834886238 262.8909741309369 1853.4667834886238 243.54330739876042
s 4.734003562128292 -5.557308529454953 10.291312091583244 -5.557308529454953
S 1874.0494076717903 224.19564066658393 1874.0494076717903 243.54330739876042
z" fill="none" stroke="none"></path>
<circle cx="0" cy="0" r="2.3884913997536494" fill="#ffffff">
  <animateMotion begin="-5.428104844595466s" dur="5.51s" repeatCount="indefinite">
    <mpath xlink:href="#path11"></mpath>
  </animateMotion>
</circle><path id="path12" d="M 1067.691360595755 1042.3052004750045
c 0 32.47823724778118 -7.946802730840075 9.328855379681828 -17.275658110521903 9.328855379681828
S 1033.1400443747114 1074.7834377227857 1033.1400443747114 1042.3052004750045
s 7.946802730840075 -9.328855379681828 17.275658110521903 -9.328855379681828
S 1067.691360595755 1009.8269632272234 1067.691360595755 1042.3052004750045
z" fill="none" stroke="none"></path>
<circle cx="0" cy="0" r="2.160665997000261" fill="#ffffff">
  <animateMotion begin="-5.116245658979611s" dur="5.51s" repeatCount="indefinite">
    <mpath xlink:href="#path12"></mpath>
  </animateMotion>
</circle><path id="path13" d="M 1195.4521656166637 940.7368040116105
c 0 19.762357904881032 -4.835470551194295 5.676421951401999 -10.511892502596293 5.676421951401999
S 1174.428380611471 960.4991619164915 1174.428380611471 940.7368040116105
s 4.835470551194295 -5.676421951401999 10.511892502596293 -5.676421951401999
S 1195.4521656166637 920.9744461067295 1195.4521656166637 940.7368040116105
z" fill="none" stroke="none"></path>
<circle cx="0" cy="0" r="1.5907916114789553" fill="#8a8a8a">
  <animateMotion begin="-5.306206448959866s" dur="5.51s" repeatCount="indefinite">
    <mpath xlink:href="#path13"></mpath>
  </animateMotion>
</circle><path id="path14" d="M 2038.267026728966 720.1410930032916
c 0 27.990625137246738 -6.848769980390158 8.039860411762362 -14.88863039215252 8.039860411762362
S 2008.489765944661 748.1317181405384 2008.489765944661 720.1410930032916
s 6.848769980390158 -8.039860411762362 14.88863039215252 -8.039860411762362
S 2038.267026728966 692.1504678660449 2038.267026728966 720.1410930032916
z" fill="none" stroke="none"></path>
<circle cx="0" cy="0" r="1.55391458732824" fill="#ffffff">
  <animateMotion begin="-1.2991310882595923s" dur="5.51s" repeatCount="indefinite">
    <mpath xlink:href="#path14"></mpath>
  </animateMotion>
</circle><path id="path15" d="M 1667.1765643663764 1391.4383632966756
c 0 20.3813713899077 -4.986931297530607 5.854223697101148 -10.841154994631754 5.854223697101148
S 1645.4942543771128 1411.8197346865832 1645.4942543771128 1391.4383632966756
s 4.986931297530607 -5.854223697101148 10.841154994631754 -5.854223697101148
S 1667.1765643663764 1371.056991906768 1667.1765643663764 1391.4383632966756
z" fill="none" stroke="none"></path>
<circle cx="0" cy="0" r="2.255063741099568" fill="#ffffff">
  <animateMotion begin="-0.3920072722624938s" dur="5.51s" repeatCount="indefinite">
    <mpath xlink:href="#path15"></mpath>
  </animateMotion>
</circle><path id="path16" d="M 619.7540329579152 686.4189531140213
c 0 37.159685942532256 -9.092263581683422 10.673526813280542 -19.765790394963965 10.673526813280542
S 580.2224521679874 723.5786390565536 580.2224521679874 686.4189531140213
s 9.092263581683422 -10.673526813280542 19.765790394963965 -10.673526813280542
S 619.7540329579152 649.259267171489 619.7540329579152 686.4189531140213
z" fill="none" stroke="none"></path>
<circle cx="0" cy="0" r="1.847401799051309" fill="#ffffff">
  <animateMotion begin="-2.3335216452097365s" dur="5.51s" repeatCount="indefinite">
    <mpath xlink:href="#path16"></mpath>
  </animateMotion>
</circle><path id="path17" d="M 228.43176290017897 787.2497861666043
c 0 27.643104724042175 -6.763738389925212 7.940040718607858 -14.70377910853307 7.940040718607858
S 199.02420468311283 814.8928908906464 199.02420468311283 787.2497861666043
s 6.763738389925212 -7.940040718607858 14.70377910853307 -7.940040718607858
S 228.43176290017897 759.6066814425621 228.43176290017897 787.2497861666043
z" fill="none" stroke="none"></path>
<circle cx="0" cy="0" r="1.643778757724457" fill="#8a8a8a">
  <animateMotion begin="-5.122123267056845s" dur="5.51s" repeatCount="indefinite">
    <mpath xlink:href="#path17"></mpath>
  </animateMotion>
</circle><path id="path18" d="M 1095.7949470665037 1570.7341440893117
c 0 29.870925519886736 -7.308843478270158 8.57994669188236 -15.888790170152518 8.57994669188236
S 1064.0173667261986 1600.6050696091984 1064.0173667261986 1570.7341440893117
s 7.308843478270158 -8.57994669188236 15.888790170152518 -8.57994669188236
S 1095.7949470665037 1540.863218569425 1095.7949470665037 1570.7341440893117
z" fill="none" stroke="none"></path>
<circle cx="0" cy="0" r="1.7057693513145518" fill="#8a8a8a">
  <animateMotion begin="-0.9727865087793571s" dur="5.51s" repeatCount="indefinite">
    <mpath xlink:href="#path18"></mpath>
  </animateMotion>
</circle><path id="path19" d="M 46.69040760340188 731.125337667218
c 0 26.071140423942083 -6.379108827134764 7.488519057940811 -13.867627885075574 7.488519057940811
S 18.955151833250735 757.1964780911601 18.955151833250735 731.125337667218
s 6.379108827134764 -7.488519057940811 13.867627885075574 -7.488519057940811
S 46.69040760340188 705.0541972432759 46.69040760340188 731.125337667218
z" fill="none" stroke="none"></path>
<circle cx="0" cy="0" r="1.7689030598733462" fill="#ffffff">
  <animateMotion begin="-0.44078276656111254s" dur="5.51s" repeatCount="indefinite">
    <mpath xlink:href="#path19"></mpath>
  </animateMotion>
</circle><path id="path20" d="M 1629.9148116415267 1569.0560901744407
c 0 30.00501173740409 -7.341651808088234 8.618460818190536 -15.960112626278772 8.618460818190536
S 1597.9945863889693 1599.0611019118448 1597.9945863889693 1569.0560901744407
s 7.341651808088234 -8.618460818190536 15.960112626278772 -8.618460818190536
S 1629.9148116415267 1539.0510784370365 1629.9148116415267 1569.0560901744407
z" fill="none" stroke="none"></path>
<circle cx="0" cy="0" r="1.3584758956591716" fill="#ffffff">
  <animateMotion begin="-3.666928840190392s" dur="5.51s" repeatCount="indefinite">
    <mpath xlink:href="#path20"></mpath>
  </animateMotion>
</circle><path id="path21" d="M 2328.6861209342997 1615.2435800003852
c 0 33.0991389106056 -8.098725478126902 9.507199474322887 -17.605924952449787 9.507199474322887
S 2293.4742710294004 1648.342718910991 2293.4742710294004 1615.2435800003852
s 8.098725478126902 -9.507199474322887 17.605924952449787 -9.507199474322887
S 2328.6861209342997 1582.1444410897795 2328.6861209342997 1615.2435800003852
z" fill="none" stroke="none"></path>
<circle cx="0" cy="0" r="2.4292092789858497" fill="#8a8a8a">
  <animateMotion begin="-0.6305912056668378s" dur="5.51s" repeatCount="indefinite">
    <mpath xlink:href="#path21"></mpath>
  </animateMotion>
</circle><path id="path22" d="M 684.113525644947 937.4220124050684
c 0 27.48463875519617 -6.724964801803317 7.894523897769113 -14.619488699572429 7.894523897769113
S 654.8745482458021 964.9066511602646 654.8745482458021 937.4220124050684
s 6.724964801803317 -7.894523897769113 14.619488699572429 -7.894523897769113
S 684.113525644947 909.9373736498721 684.113525644947 937.4220124050684
z" fill="none" stroke="none"></path>
<circle cx="0" cy="0" r="1.6396860922905352" fill="#ffffff">
  <animateMotion begin="-2.8909601351821985s" dur="5.51s" repeatCount="indefinite">
    <mpath xlink:href="#path22"></mpath>
  </animateMotion>
</circle><path id="path23" d="M 304.6520644916616 1624.885910956801
c 0 29.999699810006444 -7.340352081171789 8.616935051810362 -15.957287132982149 8.616935051810362
S 272.73749022569723 1654.8856107668073 272.73749022569723 1624.885910956801
s 7.340352081171789 -8.616935051810362 15.957287132982149 -8.616935051810362
S 304.6520644916616 1594.8862111467945 304.6520644916616 1624.885910956801
z" fill="none" stroke="none"></path>
<circle cx="0" cy="0" r="1.4745152508010788" fill="#ffffff">
  <animateMotion begin="-1.0390850884118266s" dur="5.51s" repeatCount="indefinite">
    <mpath xlink:href="#path23"></mpath>
  </animateMotion>
</circle><path id="path24" d="M 1170.3014533304313 753.2977302980278
c 0 33.72836925527651 -8.252686094376168 9.68793584991985 -17.94062194429602 9.68793584991985
S 1134.4202094418392 787.0260995533043 1134.4202094418392 753.2977302980278
s 8.252686094376168 -9.68793584991985 17.94062194429602 -9.68793584991985
S 1170.3014533304313 719.5693610427512 1170.3014533304313 753.2977302980278
z" fill="none" stroke="none"></path>
<circle cx="0" cy="0" r="2.2585545996669447" fill="#8a8a8a">
  <animateMotion begin="-4.409046585419546s" dur="5.51s" repeatCount="indefinite">
    <mpath xlink:href="#path24"></mpath>
  </animateMotion>
</circle><path id="path25" d="M 568.6291315824276 1331.8792646807028
c 0 22.181057894440396 -5.427280123107756 6.371154927126497 -11.798435050234254 6.371154927126497
S 545.032261481959 1354.0603225751431 545.032261481959 1331.8792646807028
s 5.427280123107756 -6.371154927126497 11.798435050234254 -6.371154927126497
S 568.6291315824276 1309.6982067862625 568.6291315824276 1331.8792646807028
z" fill="none" stroke="none"></path>
<circle cx="0" cy="0" r="1.8525540535990155" fill="#ffffff">
  <animateMotion begin="-4.442279889678378s" dur="5.51s" repeatCount="indefinite">
    <mpath xlink:href="#path25"></mpath>
  </animateMotion>
</circle><path id="path26" d="M 891.2055829985397 1377.2443824884285
c 0 30.89527132143898 -7.5594812807776215 8.874173677434602 -16.433654958212223 8.874173677434602
S 858.3382730821154 1408.1396538098675 858.3382730821154 1377.2443824884285
s 7.5594812807776215 -8.874173677434602 16.433654958212223 -8.874173677434602
S 891.2055829985397 1346.3491111669896 891.2055829985397 1377.2443824884285
z" fill="none" stroke="none"></path>
<circle cx="0" cy="0" r="1.6230237050077645" fill="#ffffff">
  <animateMotion begin="-0.3943421323366496s" dur="5.51s" repeatCount="indefinite">
    <mpath xlink:href="#path26"></mpath>
  </animateMotion>
</circle><path id="path27" d="M 2247.50075140917 1239.3460323709935
c 0 35.078948494660324 -8.583146972097738 10.075868184636477 -18.659015156734217 10.075868184636477
S 2210.1827210957013 1274.4249808656539 2210.1827210957013 1239.3460323709935
s 8.583146972097738 -10.075868184636477 18.659015156734217 -10.075868184636477
S 2247.50075140917 1204.2670838763331 2247.50075140917 1239.3460323709935
z" fill="none" stroke="none"></path>
<circle cx="0" cy="0" r="1.81851515068532" fill="#ffffff">
  <animateMotion begin="-3.718186244864588s" dur="5.51s" repeatCount="indefinite">
    <mpath xlink:href="#path27"></mpath>
  </animateMotion>
</circle><path id="path28" d="M 1276.0275612165776 1151.8129717204124
c 0 30.758897674387846 -7.526113260754473 8.835002523494381 -16.361115784248852 8.835002523494381
S 1243.30532964808 1182.5718693948002 1243.30532964808 1151.8129717204124
s 7.526113260754473 -8.835002523494381 16.361115784248852 -8.835002523494381
S 1276.0275612165776 1121.0540740460247 1276.0275612165776 1151.8129717204124
z" fill="none" stroke="none"></path>
<circle cx="0" cy="0" r="1.7287417777064027" fill="#8a8a8a">
  <animateMotion begin="-2.683743861655984s" dur="5.51s" repeatCount="indefinite">
    <mpath xlink:href="#path28"></mpath>
  </animateMotion>
</circle><path id="path29" d="M 845.4347939263358 1350.4436138058804
c 0 36.64451827113946 -8.966211917406461 10.525553120433674 -19.491765037840135 10.525553120433674
S 806.4512638506557 1387.08813207702 806.4512638506557 1350.4436138058804
s 8.966211917406461 -10.525553120433674 19.491765037840135 -10.525553120433674
S 845.4347939263358 1313.799095534741 845.4347939263358 1350.4436138058804
z" fill="none" stroke="none"></path>
<circle cx="0" cy="0" r="2.3922607638263957" fill="#8a8a8a">
  <animateMotion begin="-5.236791595427959s" dur="5.51s" repeatCount="indefinite">
    <mpath xlink:href="#path29"></mpath>
  </animateMotion>
</circle><path id="path30" d="M 1010.6351544256416 1074.5959177612133
c 0 24.392953015321485 -5.968488503748873 7.006486504400852 -12.974975008149725 7.006486504400852
S 984.6852044093422 1098.9888707765347 984.6852044093422 1074.5959177612133
s 5.968488503748873 -7.006486504400852 12.974975008149725 -7.006486504400852
S 1010.6351544256416 1050.202964745892 1010.6351544256416 1074.5959177612133
z" fill="none" stroke="none"></path>
<circle cx="0" cy="0" r="1.7984011955180323" fill="#ffffff">
  <animateMotion begin="-2.999881165476585s" dur="5.51s" repeatCount="indefinite">
    <mpath xlink:href="#path30"></mpath>
  </animateMotion>
</circle><path id="path31" d="M 1707.8102568432307 339.4795777963515
c 0 22.353832516797294 -5.469554764748273 6.4207816803566695 -11.890336445104943 6.4207816803566695
S 1684.0295839530206 361.8334103131488 1684.0295839530206 339.4795777963515
s 5.469554764748273 -6.4207816803566695 11.890336445104943 -6.4207816803566695
S 1707.8102568432307 317.1257452795542 1707.8102568432307 339.4795777963515
z" fill="none" stroke="none"></path>
<circle cx="0" cy="0" r="1.5163642678816909" fill="#ffffff">
  <animateMotion begin="-4.810621185671482s" dur="5.51s" repeatCount="indefinite">
    <mpath xlink:href="#path31"></mpath>
  </animateMotion>
</circle><path id="path32" d="M 1466.1648827840374 241.72491607782104
c 0 32.25927549700282 -7.893226983309199 9.265962110841235 -17.159189094150435 9.265962110841235
S 1431.8465045957366 273.98419157482385 1431.8465045957366 241.72491607782104
s 7.893226983309199 -9.265962110841235 17.159189094150435 -9.265962110841235
S 1466.1648827840374 209.46564058081822 1466.1648827840374 241.72491607782104
z" fill="none" stroke="none"></path>
<circle cx="0" cy="0" r="2.499144825162296" fill="#ffffff">
  <animateMotion begin="-1.7986178701502986s" dur="5.51s" repeatCount="indefinite">
    <mpath xlink:href="#path32"></mpath>
  </animateMotion>
</circle><path id="path33" d="M 1815.3971989435433 1066.0675630143019
c 0 23.667636209949325 -5.791017370519515 6.79815082626204 -12.589168196781555 6.79815082626204
S 1790.21886254998 1089.7351992242511 1790.21886254998 1066.0675630143019
s 5.791017370519515 -6.79815082626204 12.589168196781555 -6.79815082626204
S 1815.3971989435433 1042.3999268043526 1815.3971989435433 1066.0675630143019
z" fill="none" stroke="none"></path>
<circle cx="0" cy="0" r="1.72744753136601" fill="#8a8a8a">
  <animateMotion begin="-2.1709797091275598s" dur="5.51s" repeatCount="indefinite">
    <mpath xlink:href="#path33"></mpath>
  </animateMotion>
</circle><path id="path34" d="M 2251.298579228015 1069.511057258359
c 0 35.845022388708195 -8.770590584471153 10.295910686118312 -19.066501270589463 10.295910686118312
S 2213.165576686836 1105.3560796470672 2213.165576686836 1069.511057258359
s 8.770590584471153 -10.295910686118312 19.066501270589463 -10.295910686118312
S 2251.298579228015 1033.6660348696507 2251.298579228015 1069.511057258359
z" fill="none" stroke="none"></path>
<circle cx="0" cy="0" r="2.0274785624236378" fill="#8a8a8a">
  <animateMotion begin="-0.40627278419310475s" dur="5.51s" repeatCount="indefinite">
    <mpath xlink:href="#path34"></mpath>
  </animateMotion>
</circle><path id="path35" d="M 2211.06467957078 226.68307029750414
c 0 37.17757368654279 -9.096640370111533 10.678664782304844 -19.77530515241638 10.678664782304844
S 2171.514069265947 263.86064398404693 2171.514069265947 226.68307029750414
s 9.096640370111533 -10.678664782304844 19.77530515241638 -10.678664782304844
S 2211.06467957078 189.50549661096136 2211.06467957078 226.68307029750414
z" fill="none" stroke="none"></path>
<circle cx="0" cy="0" r="1.6831975849544225" fill="#ffffff">
  <animateMotion begin="-1.4908156882839902s" dur="5.51s" repeatCount="indefinite">
    <mpath xlink:href="#path35"></mpath>
  </animateMotion>
</circle><path id="path36" d="M 1662.1263153558727 1400.8771160795934
c 0 30.915899679354368 -7.564528644948408 8.880098844069872 -16.44462748901828 8.880098844069872
S 1629.237060377836 1431.7930157589478 1629.237060377836 1400.8771160795934
s 7.564528644948408 -8.880098844069872 16.44462748901828 -8.880098844069872
S 1662.1263153558727 1369.961216400239 1662.1263153558727 1400.8771160795934
z" fill="none" stroke="none"></path>
<circle cx="0" cy="0" r="1.9448439077888962" fill="#ffffff">
  <animateMotion begin="-1.0707826921262833s" dur="5.51s" repeatCount="indefinite">
    <mpath xlink:href="#path36"></mpath>
  </animateMotion>
</circle><path id="path37" d="M 935.7786432756577 66.81284383787863
c 0 33.75886668473871 -8.260148231372238 9.69669574987176 -17.956843981244 9.69669574987176
S 899.8649553131697 100.57171052261734 899.8649553131697 66.81284383787863
s 8.260148231372238 -9.69669574987176 17.956843981244 -9.69669574987176
S 935.7786432756577 33.05397715313992 935.7786432756577 66.81284383787863
z" fill="none" stroke="none"></path>
<circle cx="0" cy="0" r="1.753713315510839" fill="#ffffff">
  <animateMotion begin="-1.6489030974681906s" dur="5.51s" repeatCount="indefinite">
    <mpath xlink:href="#path37"></mpath>
  </animateMotion>
</circle><path id="path38" d="M 310.5732478555404 1265.6034143787497
c 0 35.271343643394125 -8.630222380830476 10.13113062097491 -18.761353001805386 10.13113062097491
S 273.0505418519296 1300.8747580221439 273.0505418519296 1265.6034143787497
s 8.630222380830476 -10.13113062097491 18.761353001805386 -10.13113062097491
S 310.5732478555404 1230.3320707353555 310.5732478555404 1265.6034143787497
z" fill="none" stroke="none"></path>
<circle cx="0" cy="0" r="1.9548343664543542" fill="#ffffff">
  <animateMotion begin="-2.2092504966375843s" dur="5.51s" repeatCount="indefinite">
    <mpath xlink:href="#path38"></mpath>
  </animateMotion>
</circle><path id="path39" d="M 1826.8138398668298 730.8497139133682
c 0 30.589037541977046 -7.484551738994383 8.786212910993408 -16.27076464998779 8.786212910993408
S 1794.2723105668542 761.4387514553453 1794.2723105668542 730.8497139133682
s 7.484551738994383 -8.786212910993408 16.27076464998779 -8.786212910993408
S 1826.8138398668298 700.2606763713911 1826.8138398668298 730.8497139133682
z" fill="none" stroke="none"></path>
<circle cx="0" cy="0" r="1.3208603851428045" fill="#ffffff">
  <animateMotion begin="-0.5328349265150598s" dur="5.51s" repeatCount="indefinite">
    <mpath xlink:href="#path39"></mpath>
  </animateMotion>
</circle><path id="path40" d="M 830.2296519425015 706.1659976809186
c 0 23.46108233655405 -5.740477592986629 6.738821522201696 -12.479299115188326 6.738821522201696
S 805.2710537121247 729.6270800174726 805.2710537121247 706.1659976809186
s 5.740477592986629 -6.738821522201696 12.479299115188326 -6.738821522201696
S 830.2296519425015 682.7049153443646 830.2296519425015 706.1659976809186
z" fill="none" stroke="none"></path>
<circle cx="0" cy="0" r="1.5572731945150917" fill="#8a8a8a">
  <animateMotion begin="-3.32806525128282s" dur="5.51s" repeatCount="indefinite">
    <mpath xlink:href="#path40"></mpath>
  </animateMotion>
</circle><path id="path41" d="M 481.41333804046127 1105.5081987714777
c 0 27.700334728430054 -6.777741476105225 7.956479124123526 -14.73422060022875 7.956479124123526
S 451.94489684000376 1133.2085334999078 451.94489684000376 1105.5081987714777
s 6.777741476105225 -7.956479124123526 14.73422060022875 -7.956479124123526
S 481.41333804046127 1077.8078640430476 481.41333804046127 1105.5081987714777
z" fill="none" stroke="none"></path>
<circle cx="0" cy="0" r="1.3868503740753386" fill="#ffffff">
  <animateMotion begin="-1.507567340615977s" dur="5.51s" repeatCount="indefinite">
    <mpath xlink:href="#path41"></mpath>
  </animateMotion>
</circle><path id="path42" d="M 164.522491350975 1255.6076902032637
c 0 23.04159385675911 -5.637836794738931 6.6183301503457015 -12.256166945084633 6.6183301503457015
S 140.01015746080574 1278.6492840600229 140.01015746080574 1255.6076902032637
s 5.637836794738931 -6.6183301503457015 12.256166945084633 -6.6183301503457015
S 164.522491350975 1232.5660963465045 164.522491350975 1255.6076902032637
z" fill="none" stroke="none"></path>
<circle cx="0" cy="0" r="1.7913368695527376" fill="#ffffff">
  <animateMotion begin="-5.238148459892391s" dur="5.51s" repeatCount="indefinite">
    <mpath xlink:href="#path42"></mpath>
  </animateMotion>
</circle><path id="path43" d="M 1913.8367785498574 63.92759160502756
c 0 32.765686289382046 -8.017136006976457 9.411420529928884 -17.42855653690534 9.411420529928884
S 1878.9796654760469 96.6932778944096 1878.9796654760469 63.92759160502756
s 8.017136006976457 -9.411420529928884 17.42855653690534 -9.411420529928884
S 1913.8367785498574 31.161905315645512 1913.8367785498574 63.92759160502756
z" fill="none" stroke="none"></path>
<circle cx="0" cy="0" r="1.3598756352129773" fill="#8a8a8a">
  <animateMotion begin="-1.2964290597707222s" dur="5.51s" repeatCount="indefinite">
    <mpath xlink:href="#path43"></mpath>
  </animateMotion>
</circle><path id="path44" d="M 328.7269791868572 1547.3479582355947
c 0 25.736199388492764 -6.2971551695248245 7.392312590311751 -13.689467759836575 7.392312590311751
S 301.348043667184 1573.0841576240873 301.348043667184 1547.3479582355947
s 6.2971551695248245 -7.392312590311751 13.689467759836575 -7.392312590311751
S 328.7269791868572 1521.611758847102 328.7269791868572 1547.3479582355947
z" fill="none" stroke="none"></path>
<circle cx="0" cy="0" r="1.8169679732670696" fill="#ffffff">
  <animateMotion begin="-0.09945183568011168s" dur="5.51s" repeatCount="indefinite">
    <mpath xlink:href="#path44"></mpath>
  </animateMotion>
</circle><path id="path45" d="M 552.8783511212151 113.16216640950107
c 0 22.679649485908673 -5.549275938041483 6.514367405526959 -12.063643343568442 6.514367405526959
S 528.7510644340783 135.84181589540975 528.7510644340783 113.16216640950107
s 5.549275938041483 -6.514367405526959 12.063643343568442 -6.514367405526959
S 552.8783511212151 90.4825169235924 552.8783511212151 113.16216640950107
z" fill="none" stroke="none"></path>
<circle cx="0" cy="0" r="1.4884371800190854" fill="#ffffff">
  <animateMotion begin="-4.856356161834394s" dur="5.51s" repeatCount="indefinite">
    <mpath xlink:href="#path45"></mpath>
  </animateMotion>
</circle><path id="path46" d="M 2010.4306969687532 815.0185319098379
c 0 21.081600169607384 -5.158263871286912 6.055353240206376 -11.213617111493289 6.055353240206376
S 1988.0034627457667 836.1001320794453 1988.0034627457667 815.0185319098379
s 5.158263871286912 -6.055353240206376 11.213617111493289 -6.055353240206376
S 2010.4306969687532 793.9369317402304 2010.4306969687532 815.0185319098379
z" fill="none" stroke="none"></path>
<circle cx="0" cy="0" r="1.5339822101099088" fill="#ffffff">
  <animateMotion begin="-1.3498164403397557s" dur="5.51s" repeatCount="indefinite">
    <mpath xlink:href="#path46"></mpath>
  </animateMotion>
</circle><path id="path47" d="M 1671.8893721407057 399.1826353624611
c 0 21.006884722650522 -5.139982432137893 6.033892420335788 -11.173874852473682 6.033892420335788
S 1649.5416224357582 420.1895200851116 1649.5416224357582 399.1826353624611
s 5.139982432137893 -6.033892420335788 11.173874852473682 -6.033892420335788
S 1671.8893721407057 378.1757506398106 1671.8893721407057 399.1826353624611
z" fill="none" stroke="none"></path>
<circle cx="0" cy="0" r="1.6309758477269811" fill="#8a8a8a">
  <animateMotion begin="-4.668010268735951s" dur="5.51s" repeatCount="indefinite">
    <mpath xlink:href="#path47"></mpath>
  </animateMotion>
</circle><path id="path48" d="M 2023.7639375193214 236.11191636586108
c 0 29.8883812983057 -7.313114572989692 8.584960585683552 -15.898075158673244 8.584960585683552
S 1991.967787201975 266.0002976641668 1991.967787201975 236.11191636586108
s 7.313114572989692 -8.584960585683552 15.898075158673244 -8.584960585683552
S 2023.7639375193214 206.2235350675554 2023.7639375193214 236.11191636586108
z" fill="none" stroke="none"></path>
<circle cx="0" cy="0" r="1.7033063045417276" fill="#ffffff">
  <animateMotion begin="-2.0163290270372363s" dur="5.51s" repeatCount="indefinite">
    <mpath xlink:href="#path48"></mpath>
  </animateMotion>
</circle><path id="path49" d="M 1758.718856280145 1546.076092101673
c 0 34.71034815991757 -8.492957528490468 9.969993620401855 -18.462951148892323 9.969993620401855
S 1721.7929539823606 1580.7864402615908 1721.7929539823606 1546.076092101673
s 8.492957528490468 -9.969993620401855 18.462951148892323 -9.969993620401855
S 1758.718856280145 1511.3657439417555 1758.718856280145 1546.076092101673
z" fill="none" stroke="none"></path>
<circle cx="0" cy="0" r="2.143207323118685" fill="#8a8a8a">
  <animateMotion begin="-1.6401086105919271s" dur="5.51s" repeatCount="indefinite">
    <mpath xlink:href="#path49"></mpath>
  </animateMotion>
</circle><path id="path50" d="M 947.9145707548482 798.2634358766916
c 0 23.457931119494976 -5.739706550514727 6.737916385386855 -12.477622935901582 6.737916385386855
S 922.9593248830452 821.7213669961866 922.9593248830452 798.2634358766916
s 5.739706550514727 -6.737916385386855 12.477622935901582 -6.737916385386855
S 947.9145707548482 774.8055047571966 947.9145707548482 798.2634358766916
z" fill="none" stroke="none"></path>
<circle cx="0" cy="0" r="1.8676346230989402" fill="#ffffff">
  <animateMotion begin="-1.3234129892544317s" dur="5.51s" repeatCount="indefinite">
    <mpath xlink:href="#path50"></mpath>
  </animateMotion>
</circle><path id="path51" d="M 1410.0902453682731 1316.3476871026571
c 0 23.51126773738674 -5.75275699957335 6.75323647776002 -12.50599347733337 6.75323647776002
S 1385.0782584136066 1339.858954840044 1385.0782584136066 1316.3476871026571
s 5.75275699957335 -6.75323647776002 12.50599347733337 -6.75323647776002
S 1410.0902453682731 1292.8364193652703 1410.0902453682731 1316.3476871026571
z" fill="none" stroke="none"></path>
<circle cx="0" cy="0" r="2.01977675942917" fill="#ffffff">
  <animateMotion begin="-1.3525993594587395s" dur="5.51s" repeatCount="indefinite">
    <mpath xlink:href="#path51"></mpath>
  </animateMotion>
</circle><path id="path52" d="M 527.4194534144045 1599.0125954444657
c 0 34.86840803202527 -8.531631752516821 10.015393796432791 -18.547025548949613 10.015393796432791
S 490.32540231650535 1633.8810034764908 490.32540231650535 1599.0125954444657
s 8.531631752516821 -10.015393796432791 18.547025548949613 -10.015393796432791
S 527.4194534144045 1564.1441874124405 527.4194534144045 1599.0125954444657
z" fill="none" stroke="none"></path>
<circle cx="0" cy="0" r="1.4544586316256378" fill="#ffffff">
  <animateMotion begin="-0.8959465329914702s" dur="5.51s" repeatCount="indefinite">
    <mpath xlink:href="#path52"></mpath>
  </animateMotion>
</circle><path id="path53" d="M 1735.8659087277579 368.9578848570244
c 0 21.332285204253544 -5.219601698913101 6.12735851611538 -11.346960215028481 6.12735851611538
S 1713.1719882977009 390.29017006127793 1713.1719882977009 368.9578848570244
s 5.219601698913101 -6.12735851611538 11.346960215028481 -6.12735851611538
S 1735.8659087277579 347.62559965277086 1735.8659087277579 368.9578848570244
z" fill="none" stroke="none"></path>
<circle cx="0" cy="0" r="1.3872835815526225" fill="#ffffff">
  <animateMotion begin="-5.449182550013638s" dur="5.51s" repeatCount="indefinite">
    <mpath xlink:href="#path53"></mpath>
  </animateMotion>
</circle><path id="path54" d="M 1206.9812745629688 308.12815316594566
c 0 35.26630595958326 -8.628989756068245 10.129683626688811 -18.758673382757056 10.129683626688811
S 1169.4639277974547 343.3944591255289 1169.4639277974547 308.12815316594566
s 8.628989756068245 -10.129683626688811 18.758673382757056 -10.129683626688811
S 1206.9812745629688 272.8618472063624 1206.9812745629688 308.12815316594566
z" fill="none" stroke="none"></path>
<circle cx="0" cy="0" r="2.1003066449532595" fill="#ffffff">
  <animateMotion begin="-2.5588757257663284s" dur="5.51s" repeatCount="indefinite">
    <mpath xlink:href="#path54"></mpath>
  </animateMotion>
</circle><path id="path55" d="M 1691.8439924975305 1389.8695878053095
c 0 29.190021894107996 -7.142239399622168 8.384367990860808 -15.526607390482976 8.384367990860808
S 1660.7907777165647 1419.0596096994175 1660.7907777165647 1389.8695878053095
s 7.142239399622168 -8.384367990860808 15.526607390482976 -8.384367990860808
S 1691.8439924975305 1360.6795659112015 1691.8439924975305 1389.8695878053095
z" fill="none" stroke="none"></path>
<circle cx="0" cy="0" r="2.270647197237596" fill="#ffffff">
  <animateMotion begin="-5.206955289022916s" dur="5.51s" repeatCount="indefinite">
    <mpath xlink:href="#path55"></mpath>
  </animateMotion>
</circle><path id="path56" d="M 67.01471354538796 1300.195962053608
c 0 36.75469353638582 -8.993169695073124 10.557199207259757 -19.55036890233288 10.557199207259757
S 27.913975740722197 1336.9506555899936 27.913975740722197 1300.195962053608
s 8.993169695073124 -10.557199207259757 19.55036890233288 -10.557199207259757
S 67.01471354538796 1263.4412685172222 67.01471354538796 1300.195962053608
z" fill="none" stroke="none"></path>
<circle cx="0" cy="0" r="2.4375975557917244" fill="#ffffff">
  <animateMotion begin="-3.7210221871842144s" dur="5.51s" repeatCount="indefinite">
    <mpath xlink:href="#path56"></mpath>
  </animateMotion>
</circle><path id="path57" d="M 1670.654476833481 683.4906057891657
c 0 36.31537868041498 -8.885677762229196 10.43101302522558 -19.316690787454778 10.43101302522558
S 1632.0210952585717 719.8059844695806 1632.0210952585717 683.4906057891657
s 8.885677762229196 -10.43101302522558 19.316690787454778 -10.43101302522558
S 1670.654476833481 647.1752271087507 1670.654476833481 683.4906057891657
z" fill="none" stroke="none"></path>
<circle cx="0" cy="0" r="2.364088940541507" fill="#ffffff">
  <animateMotion begin="-2.358436641643524s" dur="5.51s" repeatCount="indefinite">
    <mpath xlink:href="#path57"></mpath>
  </animateMotion>
</circle><path id="path58" d="M 162.22231799001764 147.8138455348287
c 0 31.302018970977468 -7.659004641834912 8.991005449110549 -16.65001009094546 8.991005449110549
S 128.9222978081267 179.11586450580614 128.9222978081267 147.8138455348287
s 7.659004641834912 -8.991005449110549 16.65001009094546 -8.991005449110549
S 162.22231799001764 116.51182656385122 162.22231799001764 147.8138455348287
z" fill="none" stroke="none"></path>
<circle cx="0" cy="0" r="2.401299938390712" fill="#ffffff">
  <animateMotion begin="-2.853725247852099s" dur="5.51s" repeatCount="indefinite">
    <mpath xlink:href="#path58"></mpath>
  </animateMotion>
</circle><path id="path59" d="M 1508.7927427275301 367.0509764280412
c 0 20.919475731684255 -5.118595125837636 6.008785582505053 -11.127380708342688 6.008785582505053
S 1486.5379813108445 387.9704521597255 1486.5379813108445 367.0509764280412
s 5.118595125837636 -6.008785582505053 11.127380708342688 -6.008785582505053
S 1508.7927427275301 346.13150069635697 1508.7927427275301 367.0509764280412
z" fill="none" stroke="none"></path>
<circle cx="0" cy="0" r="1.2902619342090371" fill="#ffffff">
  <animateMotion begin="-2.0869031147729036s" dur="5.51s" repeatCount="indefinite">
    <mpath xlink:href="#path59"></mpath>
  </animateMotion>
</circle><path id="path60" d="M 954.6992465155512 398.2024748201834
c 0 34.88857178814791 -8.536565437525551 10.021185513616953 -18.557750951142506 10.021185513616953
S 917.5837446132663 433.0910466083313 917.5837446132663 398.2024748201834
s 8.536565437525551 -10.021185513616953 18.557750951142506 -10.021185513616953
S 954.6992465155512 363.3139030320355 954.6992465155512 398.2024748201834
z" fill="none" stroke="none"></path>
<circle cx="0" cy="0" r="2.445657988839348" fill="#8a8a8a">
  <animateMotion begin="-2.5558163612714835s" dur="5.51s" repeatCount="indefinite">
    <mpath xlink:href="#path60"></mpath>
  </animateMotion>
</circle><path id="path61" d="M 2258.3995974943796 843.8805805020581
c 0 24.886126612215083 -6.08915863915901 7.148142750317099 -13.237301389476109 7.148142750317099
S 2231.924994715427 868.7667071142732 2231.924994715427 843.8805805020581
s 6.08915863915901 -7.148142750317099 13.237301389476109 -7.148142750317099
S 2258.3995974943796 818.994453889843 2258.3995974943796 843.8805805020581
z" fill="none" stroke="none"></path>
<circle cx="0" cy="0" r="2.289691184007285" fill="#8a8a8a">
  <animateMotion begin="-5.458863145922405s" dur="5.51s" repeatCount="indefinite">
    <mpath xlink:href="#path61"></mpath>
  </animateMotion>
</circle><path id="path62" d="M 291.9469455234368 733.2623435973309
c 0 28.451021635665224 -6.961420187450001 8.172101959180438 -15.133522146630439 8.172101959180438
S 261.679901230176 761.7133652329961 261.679901230176 733.2623435973309
s 6.961420187450001 -8.172101959180438 15.133522146630439 -8.172101959180438
S 291.9469455234368 704.8113219616656 291.9469455234368 733.2623435973309
z" fill="none" stroke="none"></path>
<circle cx="0" cy="0" r="1.6426663975055051" fill="#ffffff">
  <animateMotion begin="-0.2899722188335583s" dur="5.51s" repeatCount="indefinite">
    <mpath xlink:href="#path62"></mpath>
  </animateMotion>
</circle><path id="path63" d="M 1500.661277459797 1468.6602574249814
c 0 23.94328314893673 -5.858462898144093 6.877326010864805 -12.735788909008898 6.877326010864805
S 1475.189699641779 1492.603540573918 1475.189699641779 1468.6602574249814
s 5.858462898144093 -6.877326010864805 12.735788909008898 -6.877326010864805
S 1500.661277459797 1444.7169742760448 1500.661277459797 1468.6602574249814
z" fill="none" stroke="none"></path>
<circle cx="0" cy="0" r="2.3703473193326996" fill="#ffffff">
  <animateMotion begin="-0.17061387379614598s" dur="5.51s" repeatCount="indefinite">
    <mpath xlink:href="#path63"></mpath>
  </animateMotion>
</circle><path id="path64" d="M 382.3764383646406 123.53471774601014
c 0 36.21178580262454 -8.86033056872728 10.401257624158113 -19.26158819288539 10.401257624158113
S 343.85326197886985 159.74650354863468 343.85326197886985 123.53471774601014
s 8.86033056872728 -10.401257624158113 19.26158819288539 -10.401257624158113
S 382.3764383646406 87.32293194338561 382.3764383646406 123.53471774601014
z" fill="none" stroke="none"></path>
<circle cx="0" cy="0" r="2.4751821065056854" fill="#ffffff">
  <animateMotion begin="-4.858221621419711s" dur="5.51s" repeatCount="indefinite">
    <mpath xlink:href="#path64"></mpath>
  </animateMotion>
</circle><path id="path65" d="M 1772.4837198458029 363.78962263006207
c 0 20.042623365572247 -4.904046142640017 5.75692373266437 -10.660969875304387 5.75692373266437
S 1751.1617800951942 383.8322459956343 1751.1617800951942 363.78962263006207
s 4.904046142640017 -5.75692373266437 10.660969875304387 -5.75692373266437
S 1772.4837198458029 343.74699926448983 1772.4837198458029 363.78962263006207
z" fill="none" stroke="none"></path>
<circle cx="0" cy="0" r="2.3178026806445655" fill="#ffffff">
  <animateMotion begin="-3.447591439026557s" dur="5.51s" repeatCount="indefinite">
    <mpath xlink:href="#path65"></mpath>
  </animateMotion>
</circle><path id="path66" d="M 1846.9260329285428 992.1149118726834
c 0 35.61632714085386 -8.714633236591903 10.230221625564408 -18.944854862156312 10.230221625564408
S 1809.0363232042303 1027.7312390135373 1809.0363232042303 992.1149118726834
s 8.714633236591903 -10.230221625564408 18.944854862156312 -10.230221625564408
S 1846.9260329285428 956.4985847318295 1846.9260329285428 992.1149118726834
z" fill="none" stroke="none"></path>
<circle cx="0" cy="0" r="1.4283393622022957" fill="#ffffff">
  <animateMotion begin="-5.317186738260424s" dur="5.51s" repeatCount="indefinite">
    <mpath xlink:href="#path66"></mpath>
  </animateMotion>
</circle><path id="path67" d="M 1654.2592608542732 1627.3932185255044
c 0 23.62083314709077 -5.77956555726689 6.784707393313307 -12.564272950580197 6.784707393313307
S 1629.1307149531126 1651.014051672595 1629.1307149531126 1627.3932185255044
s 5.77956555726689 -6.784707393313307 12.564272950580197 -6.784707393313307
S 1654.2592608542732 1603.7723853784137 1654.2592608542732 1627.3932185255044
z" fill="none" stroke="none"></path>
<circle cx="0" cy="0" r="1.430082587135904" fill="#ffffff">
  <animateMotion begin="-2.476766640672423s" dur="5.51s" repeatCount="indefinite">
    <mpath xlink:href="#path67"></mpath>
  </animateMotion>
</circle><path id="path68" d="M 1118.0202337624567 507.79871897475095
c 0 31.859146562027213 -7.795323094964105 9.151031459305688 -16.946354554269792 9.151031459305688
S 1084.127524653917 539.6578655367782 1084.127524653917 507.79871897475095
s 7.795323094964105 -9.151031459305688 16.946354554269792 -9.151031459305688
S 1118.0202337624567 475.93957241272375 1118.0202337624567 507.79871897475095
z" fill="none" stroke="none"></path>
<circle cx="0" cy="0" r="2.0244872398472915" fill="#8a8a8a">
  <animateMotion begin="-1.7758250768028463s" dur="5.51s" repeatCount="indefinite">
    <mpath xlink:href="#path68"></mpath>
  </animateMotion>
</circle><path id="path69" d="M 2188.2005369502863 351.793223319473
c 0 22.84664035997366 -5.5901354072275975 6.562332869354137 -12.152468276581734 6.562332869354137
S 2163.895600397123 374.63986367944665 2163.895600397123 351.793223319473
s 5.5901354072275975 -6.562332869354137 12.152468276581734 -6.562332869354137
S 2188.2005369502863 328.9465829594993 2188.2005369502863 351.793223319473
z" fill="none" stroke="none"></path>
<circle cx="0" cy="0" r="2.4184372787915582" fill="#8a8a8a">
  <animateMotion begin="-0.5857332574374435s" dur="5.51s" repeatCount="indefinite">
    <mpath xlink:href="#path69"></mpath>
  </animateMotion>
</circle><path id="path70" d="M 970.553137895926 895.1502099213868
c 0 29.402372922712292 -7.194197630025347 8.445362435247148 -15.639560065272494 8.445362435247148
S 939.2740177653811 924.5525828440991 939.2740177653811 895.1502099213868
s 7.194197630025347 -8.445362435247148 15.639560065272494 -8.445362435247148
S 970.553137895926 865.7478369986745 970.553137895926 895.1502099213868
z" fill="none" stroke="none"></path>
<circle cx="0" cy="0" r="2.0403093054535866" fill="#ffffff">
  <animateMotion begin="-2.403748878082469s" dur="5.51s" repeatCount="indefinite">
    <mpath xlink:href="#path70"></mpath>
  </animateMotion>
</circle><path id="path71" d="M 1211.4037662536543 441.48571795330497
c 0 24.39256649704569 -5.968393930128199 7.006375483193974 -12.974769413322173 7.006375483193974
S 1185.4542274270102 465.87828445035063 1185.4542274270102 441.48571795330497
s 5.968393930128199 -7.006375483193974 12.974769413322173 -7.006375483193974
S 1211.4037662536543 417.0931514562593 1211.4037662536543 441.48571795330497
z" fill="none" stroke="none"></path>
<circle cx="0" cy="0" r="2.069601429542684" fill="#ffffff">
  <animateMotion begin="-4.501917204511938s" dur="5.51s" repeatCount="indefinite">
    <mpath xlink:href="#path71"></mpath>
  </animateMotion>
</circle><path id="path72" d="M 1338.569197941512 204.65385118103887
c 0 25.054458282531634 -6.130346175513059 7.196493336471852 -13.326839511984911 7.196493336471852
S 1311.9155189175422 229.70830946357052 1311.9155189175422 204.65385118103887
s 6.130346175513059 -7.196493336471852 13.326839511984911 -7.196493336471852
S 1338.569197941512 179.59939289850723 1338.569197941512 204.65385118103887
z" fill="none" stroke="none"></path>
<circle cx="0" cy="0" r="2.2984447264619936" fill="#ffffff">
  <animateMotion begin="-4.326727391262017s" dur="5.51s" repeatCount="indefinite">
    <mpath xlink:href="#path72"></mpath>
  </animateMotion>
</circle><path id="path73" d="M 1398.9194212481775 1509.4005974383988
c 0 23.634866346292164 -5.782999212390635 6.788738205849877 -12.571737418240511 6.788738205849877
S 1373.7759464116966 1533.035463784691 1373.7759464116966 1509.4005974383988
s 5.782999212390635 -6.788738205849877 12.571737418240511 -6.788738205849877
S 1398.9194212481775 1485.7657310921065 1398.9194212481775 1509.4005974383988
z" fill="none" stroke="none"></path>
<circle cx="0" cy="0" r="1.4004307373718181" fill="#ffffff">
  <animateMotion begin="-3.8685487478715075s" dur="5.51s" repeatCount="indefinite">
    <mpath xlink:href="#path73"></mpath>
  </animateMotion>
</circle><path id="path74" d="M 1671.516159413606 574.4683185911116
c 0 20.16698000672114 -4.9344738314317675 5.792643193419901 -10.727117024851669 5.792643193419901
S 1650.0619253639027 594.6352985978327 1650.0619253639027 574.4683185911116
s 4.9344738314317675 -5.792643193419901 10.727117024851669 -5.792643193419901
S 1671.516159413606 554.3013385843905 1671.516159413606 574.4683185911116
z" fill="none" stroke="none"></path>
<circle cx="0" cy="0" r="2.0512568408753697" fill="#ffffff">
  <animateMotion begin="-1.3416414971320403s" dur="5.51s" repeatCount="indefinite">
    <mpath xlink:href="#path74"></mpath>
  </animateMotion>
</circle><path id="path75" d="M 1197.6967629790229 1488.641889304167
c 0 32.908108906637 -8.051984094177136 9.45232915403403 -17.50431324821117 9.45232915403403
S 1162.6881364826004 1521.549998210804 1162.6881364826004 1488.641889304167
s 8.051984094177136 -9.45232915403403 17.50431324821117 -9.45232915403403
S 1197.6967629790229 1455.7337803975302 1197.6967629790229 1488.641889304167
z" fill="none" stroke="none"></path>
<circle cx="0" cy="0" r="2.436607213048559" fill="#ffffff">
  <animateMotion begin="-1.2620061862590515s" dur="5.51s" repeatCount="indefinite">
    <mpath xlink:href="#path75"></mpath>
  </animateMotion>
</circle><path id="path76" d="M 2241.44164665811 507.9507146059096
c 0 27.12620320948589 -6.637262487427398 7.79156900697999 -14.428831494407389 7.79156900697999
S 2212.5839836692953 535.0769178153955 2212.5839836692953 507.9507146059096
s 6.637262487427398 -7.79156900697999 14.428831494407389 -7.79156900697999
S 2241.44164665811 480.8245113964237 2241.44164665811 507.9507146059096
z" fill="none" stroke="none"></path>
<circle cx="0" cy="0" r="2.386537923815494" fill="#ffffff">
  <animateMotion begin="-5.094177100188895s" dur="5.51s" repeatCount="indefinite">
    <mpath xlink:href="#path76"></mpath>
  </animateMotion>
</circle><path id="path77" d="M 1068.6317371193165 164.3666071553159
c 0 24.784227137108918 -6.064225788867075 7.118873752148307 -13.183099541015382 7.118873752148307
S 1042.265538037286 189.15083429242483 1042.265538037286 164.3666071553159
s 6.064225788867075 -7.118873752148307 13.183099541015382 -7.118873752148307
S 1068.6317371193165 139.58238001820698 1068.6317371193165 164.3666071553159
z" fill="none" stroke="none"></path>
<circle cx="0" cy="0" r="1.4713205214411507" fill="#ffffff">
  <animateMotion begin="-1.3007395430520838s" dur="5.51s" repeatCount="indefinite">
    <mpath xlink:href="#path77"></mpath>
  </animateMotion>
</circle><path id="path78" d="M 1292.6802496778835 1409.9261360719213
c 0 20.68130725511937 -5.060319860295165 5.940375488172585 -11.000695348467751 5.940375488172585
S 1270.6788589809478 1430.6074433270408 1270.6788589809478 1409.9261360719213
s 5.060319860295165 -5.940375488172585 11.000695348467751 -5.940375488172585
S 1292.6802496778835 1389.2448288168018 1292.6802496778835 1409.9261360719213
z" fill="none" stroke="none"></path>
<circle cx="0" cy="0" r="2.1447828262237483" fill="#ffffff">
  <animateMotion begin="-0.358953812734185s" dur="5.51s" repeatCount="indefinite">
    <mpath xlink:href="#path78"></mpath>
  </animateMotion>
</circle><path id="path79" d="M 1559.812415379424 903.5678508321017
c 0 30.08505967138816 -7.361238004701358 8.641453309866812 -16.002691314568168 8.641453309866812
S 1527.8070327502876 933.6529105034899 1527.8070327502876 903.5678508321017
s 7.361238004701358 -8.641453309866812 16.002691314568168 -8.641453309866812
S 1559.812415379424 873.4827911607135 1559.812415379424 903.5678508321017
z" fill="none" stroke="none"></path>
<circle cx="0" cy="0" r="1.6831814227892896" fill="#8a8a8a">
  <animateMotion begin="-1.687298905298255s" dur="5.51s" repeatCount="indefinite">
    <mpath xlink:href="#path79"></mpath>
  </animateMotion>
</circle><path id="path80" d="M 1320.8175229731514 999.3974138832219
c 0 23.911955614164118 -5.850797650274198 6.868327676408843 -12.719125326683042 6.868327676408843
S 1295.3792723197853 1023.309369497386 1295.3792723197853 999.3974138832219
s 5.850797650274198 -6.868327676408843 12.719125326683042 -6.868327676408843
S 1320.8175229731514 975.4854582690579 1320.8175229731514 999.3974138832219
z" fill="none" stroke="none"></path>
<circle cx="0" cy="0" r="1.5454162673793372" fill="#ffffff">
  <animateMotion begin="-1.9515167887204858s" dur="5.51s" repeatCount="indefinite">
    <mpath xlink:href="#path80"></mpath>
  </animateMotion>
</circle><path id="path81" d="M 307.3668705366027 1176.240214743629
c 0 22.917118943056025 -5.607380166917962 6.582576717686305 -12.189956884604268 6.582576717686305
S 282.98695676739413 1199.157333686685 282.98695676739413 1176.240214743629
s 5.607380166917962 -6.582576717686305 12.189956884604268 -6.582576717686305
S 307.3668705366027 1153.323095800573 307.3668705366027 1176.240214743629
z" fill="none" stroke="none"></path>
<circle cx="0" cy="0" r="2.171762476197869" fill="#ffffff">
  <animateMotion begin="-4.474504029787082s" dur="5.51s" repeatCount="indefinite">
    <mpath xlink:href="#path81"></mpath>
  </animateMotion>
</circle><path id="path82" d="M 1770.7454776371862 1502.8892860359824
c 0 32.97810711476947 -8.069111315315933 9.472435022327401 -17.541546337643336 9.472435022327401
S 1735.6623849618998 1535.867393150752 1735.6623849618998 1502.8892860359824
s 8.069111315315933 -9.472435022327401 17.541546337643336 -9.472435022327401
S 1770.7454776371862 1469.911178921213 1770.7454776371862 1502.8892860359824
z" fill="none" stroke="none"></path>
<circle cx="0" cy="0" r="1.4501089025981984" fill="#8a8a8a">
  <animateMotion begin="-0.27663618699584913s" dur="5.51s" repeatCount="indefinite">
    <mpath xlink:href="#path82"></mpath>
  </animateMotion>
</circle><path id="path83" d="M 2204.654916920997 1442.3195841133133
c 0 29.83209679685423 -7.299342833272843 8.568793760798556 -15.868136594071398 8.568793760798556
S 2172.918643732854 1472.1516809101677 2172.918643732854 1442.3195841133133
s 7.299342833272843 -8.568793760798556 15.868136594071398 -8.568793760798556
S 2204.654916920997 1412.487487316459 2204.654916920997 1442.3195841133133
z" fill="none" stroke="none"></path>
<circle cx="0" cy="0" r="2.2255312389492294" fill="#ffffff">
  <animateMotion begin="-2.4928895983371655s" dur="5.51s" repeatCount="indefinite">
    <mpath xlink:href="#path83"></mpath>
  </animateMotion>
</circle><path id="path84" d="M 43.20236690684683 1078.2013672587943
c 0 24.75507205189187 -6.057092097803329 7.110499419160431 -13.167591516963759 7.110499419160431
S 16.867183872919306 1102.9564393106862 16.867183872919306 1078.2013672587943
s 6.057092097803329 -7.110499419160431 13.167591516963759 -7.110499419160431
S 43.20236690684683 1053.4462952069025 43.20236690684683 1078.2013672587943
z" fill="none" stroke="none"></path>
<circle cx="0" cy="0" r="1.3942062387047736" fill="#8a8a8a">
  <animateMotion begin="-2.870001510856126s" dur="5.51s" repeatCount="indefinite">
    <mpath xlink:href="#path84"></mpath>
  </animateMotion>
</circle><path id="path85" d="M 421.88490346515493 1618.879073705993
c 0 25.38488465701458 -6.211195182035482 7.291403039780785 -13.502598221816267 7.291403039780785
S 394.87970702152245 1644.2639583630075 394.87970702152245 1618.879073705993
s 6.211195182035482 -7.291403039780785 13.502598221816267 -7.291403039780785
S 421.88490346515493 1593.4941890489786 421.88490346515493 1618.879073705993
z" fill="none" stroke="none"></path>
<circle cx="0" cy="0" r="2.2492168956780763" fill="#ffffff">
  <animateMotion begin="-4.611856280653744s" dur="5.51s" repeatCount="indefinite">
    <mpath xlink:href="#path85"></mpath>
  </animateMotion>
</circle><path id="path86" d="M 313.7770237288502 1144.8439828932196
c 0 33.60096925191764 -8.221513753128784 9.651342231933791 -17.872855985062575 9.651342231933791
S 278.03131175872505 1178.4449521451372 278.03131175872505 1144.8439828932196
s 8.221513753128784 -9.651342231933791 17.872855985062575 -9.651342231933791
S 313.7770237288502 1111.243013641302 313.7770237288502 1144.8439828932196
z" fill="none" stroke="none"></path>
<circle cx="0" cy="0" r="1.302437859321294" fill="#ffffff">
  <animateMotion begin="-1.119751930415654s" dur="5.51s" repeatCount="indefinite">
    <mpath xlink:href="#path86"></mpath>
  </animateMotion>
</circle><path id="path87" d="M 1905.4868185108423 1474.9323554769555
c 0 35.89648111267479 -8.783181548845958 10.310691383427866 -19.093872932273822 10.310691383427866
S 1867.2990726462947 1510.8288365896303 1867.2990726462947 1474.9323554769555
s 8.783181548845958 -10.310691383427866 19.093872932273822 -10.310691383427866
S 1905.4868185108423 1439.0358743642807 1905.4868185108423 1474.9323554769555
z" fill="none" stroke="none"></path>
<circle cx="0" cy="0" r="2.0740735308802782" fill="#ffffff">
  <animateMotion begin="-3.1765722222685278s" dur="5.51s" repeatCount="indefinite">
    <mpath xlink:href="#path87"></mpath>
  </animateMotion>
</circle><path id="path88" d="M 1017.1530290234252 238.37581885900568
c 0 31.544462114976316 -7.71832583664314 9.060643373450644 -16.778969210093784 9.060643373450644
S 983.5950906032376 269.920280973982 983.5950906032376 238.37581885900568
s 7.71832583664314 -9.060643373450644 16.778969210093784 -9.060643373450644
S 1017.1530290234252 206.83135674402936 1017.1530290234252 238.37581885900568
z" fill="none" stroke="none"></path>
<circle cx="0" cy="0" r="2.4860943733608276" fill="#8a8a8a">
  <animateMotion begin="-2.7629417527737017s" dur="5.51s" repeatCount="indefinite">
    <mpath xlink:href="#path88"></mpath>
  </animateMotion>
</circle><path id="path89" d="M 1645.8866892546232 52.68139409398198
c 0 31.834356110266487 -7.789257346129034 9.143910797629736 -16.93316814375877 9.143910797629736
S 1612.0203529671055 84.51575020424846 1612.0203529671055 52.68139409398198
s 7.789257346129034 -9.143910797629736 16.93316814375877 -9.143910797629736
S 1645.8866892546232 20.84703798371549 1645.8866892546232 52.68139409398198
z" fill="none" stroke="none"></path>
<circle cx="0" cy="0" r="1.319675151606118" fill="#8a8a8a">
  <animateMotion begin="-0.9960669599436163s" dur="5.51s" repeatCount="indefinite">
    <mpath xlink:href="#path89"></mpath>
  </animateMotion>
</circle><path id="path90" d="M 398.4244604818849 729.6275769739638
c 0 29.82190984347151 -7.296850280849411 8.565867720997137 -15.862718001846547 8.565867720997137
S 366.69902447819186 759.4494868174353 366.69902447819186 729.6275769739638
s 7.296850280849411 -8.565867720997137 15.862718001846547 -8.565867720997137
S 398.4244604818849 699.8056671304922 398.4244604818849 729.6275769739638
z" fill="none" stroke="none"></path>
<circle cx="0" cy="0" r="2.4390720401699766" fill="#8a8a8a">
  <animateMotion begin="-3.9680928031314604s" dur="5.51s" repeatCount="indefinite">
    <mpath xlink:href="#path90"></mpath>
  </animateMotion>
</circle><path id="path91" d="M 1816.2219108383244 1513.747720211783
c 0 29.79901571709134 -7.291248526522348 8.559291748526237 -15.850540275048584 8.559291748526237
S 1784.5208302882272 1543.5467359288743 1784.5208302882272 1513.747720211783
s 7.291248526522348 -8.559291748526237 15.850540275048584 -8.559291748526237
S 1816.2219108383244 1483.9487044946916 1816.2219108383244 1513.747720211783
z" fill="none" stroke="none"></path>
<circle cx="0" cy="0" r="2.407122257009319" fill="#8a8a8a">
  <animateMotion begin="-0.6777013673146208s" dur="5.51s" repeatCount="indefinite">
    <mpath xlink:href="#path91"></mpath>
  </animateMotion>
</circle><path id="path92" d="M 1974.4907939893355 1143.3137154257442
c 0 37.08897826835361 -9.074962767788648 10.653217162186674 -19.728179929975322 10.653217162186674
S 1935.0344341293849 1180.402693694098 1935.0344341293849 1143.3137154257442
s 9.074962767788648 -10.653217162186674 19.728179929975322 -10.653217162186674
S 1974.4907939893355 1106.2247371573906 1974.4907939893355 1143.3137154257442
z" fill="none" stroke="none"></path>
<circle cx="0" cy="0" r="1.826146626702013" fill="#ffffff">
  <animateMotion begin="-2.8975507316494373s" dur="5.51s" repeatCount="indefinite">
    <mpath xlink:href="#path92"></mpath>
  </animateMotion>
</circle><path id="path93" d="M 605.7647905416821 394.0410297230814
c 0 28.776251037349958 -7.040997594245201 8.265518914983499 -15.3065165092287 8.265518914983499
S 575.1517575232248 422.81728076043134 575.1517575232248 394.0410297230814
s 7.040997594245201 -8.265518914983499 15.3065165092287 -8.265518914983499
S 605.7647905416821 365.26477868573147 605.7647905416821 394.0410297230814
z" fill="none" stroke="none"></path>
<circle cx="0" cy="0" r="1.8079836996368708" fill="#8a8a8a">
  <animateMotion begin="-2.4180467043959224s" dur="5.51s" repeatCount="indefinite">
    <mpath xlink:href="#path93"></mpath>
  </animateMotion>
</circle><path id="path94" d="M 1558.3965366184234 444.9917161240303
c 0 26.595614728070757 -6.507437646230079 7.639165932530963 -14.146603578761042 7.639165932530963
S 1530.1033294609015 471.58733085210105 1530.1033294609015 444.9917161240303
s 6.507437646230079 -7.639165932530963 14.146603578761042 -7.639165932530963
S 1558.3965366184234 418.39610139595953 1558.3965366184234 444.9917161240303
z" fill="none" stroke="none"></path>
<circle cx="0" cy="0" r="2.1578474939848933" fill="#ffffff">
  <animateMotion begin="-5.241244805269222s" dur="5.51s" repeatCount="indefinite">
    <mpath xlink:href="#path94"></mpath>
  </animateMotion>
</circle><path id="path95" d="M 329.2568557540834 1307.9650639329304
c 0 35.081148689083136 -8.583685317541617 10.076500155374944 -18.660185472916563 10.076500155374944
S 291.93648480825027 1343.0462126220136 291.93648480825027 1307.9650639329304
s 8.583685317541617 -10.076500155374944 18.660185472916563 -10.076500155374944
S 329.2568557540834 1272.8839152438472 329.2568557540834 1307.9650639329304
z" fill="none" stroke="none"></path>
<circle cx="0" cy="0" r="1.549723146532602" fill="#ffffff">
  <animateMotion begin="-0.1316254137726276s" dur="5.51s" repeatCount="indefinite">
    <mpath xlink:href="#path95"></mpath>
  </animateMotion>
</circle><path id="path96" d="M 2160.9226580395775 954.5464984201319
c 0 22.118183051256196 -5.411895852966941 6.3530951317438005 -11.764990984710742 6.3530951317438005
S 2137.3926760701556 976.6646814713881 2137.3926760701556 954.5464984201319
s 5.411895852966941 -6.3530951317438005 11.764990984710742 -6.3530951317438005
S 2160.9226580395775 932.4283153688757 2160.9226580395775 954.5464984201319
z" fill="none" stroke="none"></path>
<circle cx="0" cy="0" r="1.804637225958417" fill="#8a8a8a">
  <animateMotion begin="-1.0855655892849456s" dur="5.51s" repeatCount="indefinite">
    <mpath xlink:href="#path96"></mpath>
  </animateMotion>
</circle><path id="path97" d="M 746.6092485158155 1245.8511764455136
c 0 30.0507293276866 -7.352838026987146 8.631592466463173 -15.984430493450319 8.631592466463173
S 714.6403875289149 1275.9019057732003 714.6403875289149 1245.8511764455136
s 7.352838026987146 -8.631592466463173 15.984430493450319 -8.631592466463173
S 746.6092485158155 1215.800447117827 746.6092485158155 1245.8511764455136
z" fill="none" stroke="none"></path>
<circle cx="0" cy="0" r="1.3600119361627403" fill="#ffffff">
  <animateMotion begin="-3.338118090741685s" dur="5.51s" repeatCount="indefinite">
    <mpath xlink:href="#path97"></mpath>
  </animateMotion>
</circle><path id="path98" d="M 434.9174890168049 733.7938323359106
c 0 29.74814099043401 -7.278800455106193 8.544678795124662 -15.823479250230857 8.544678795124662
S 403.27053051634323 763.5419733263445 403.27053051634323 733.7938323359106
s 7.278800455106193 -8.544678795124662 15.823479250230857 -8.544678795124662
S 434.9174890168049 704.0456913454766 434.9174890168049 733.7938323359106
z" fill="none" stroke="none"></path>
<circle cx="0" cy="0" r="1.6416686666238556" fill="#8a8a8a">
  <animateMotion begin="-3.1736861685432465s" dur="5.51s" repeatCount="indefinite">
    <mpath xlink:href="#path98"></mpath>
  </animateMotion>
</circle><path id="path99" d="M 2328.8875306334558 464.8544651875976
c 0 36.8958051590179 -9.02769700699374 10.59773126907961 -19.62542827607335 10.59773126907961
S 2289.636674081309 501.7502703466155 2289.636674081309 464.8544651875976
s 9.02769700699374 -10.59773126907961 19.62542827607335 -10.59773126907961
S 2328.8875306334558 427.95866002857974 2328.8875306334558 464.8544651875976
z" fill="none" stroke="none"></path>
<circle cx="0" cy="0" r="1.3948926287056778" fill="#ffffff">
  <animateMotion begin="-4.446552139792062s" dur="5.51s" repeatCount="indefinite">
    <mpath xlink:href="#path99"></mpath>
  </animateMotion>
</circle></g>
</svg>