<svg width="274" height="165" viewBox="0 0 274 165" fill="none" xmlns="http://www.w3.org/2000/svg">
<g clip-path="url(#clip0)">
<path d="M186.408 94.1936L188.757 93.7874C188.982 93.7479 189.206 93.6998 189.431 93.659C185.713 91.3506 182.89 87.846 181.426 83.721C179.963 79.5959 179.946 75.0958 181.378 70.9599C182.811 66.824 185.608 63.2984 189.309 60.9623C193.01 58.6262 197.396 57.6185 201.746 58.1049L198.667 65.4327L205.962 59.062C205.979 59.0663 205.996 59.0718 206.012 59.0787C208.401 59.9202 210.601 61.224 212.487 62.9157C214.372 64.6074 215.905 66.6539 217 68.9384C218.094 71.2228 218.728 73.7004 218.864 76.2297C219.001 78.759 218.639 81.2905 217.797 83.6796C217.675 84.0271 217.53 84.3588 217.39 84.6946C219.45 83.6597 221.426 82.4549 223.037 80.9123C226.299 77.7864 228.086 73.4727 230.084 68.1582C234.041 57.6267 237.851 46.9428 241.508 36.2356C237.474 34.0525 234.35 30.5024 232.698 26.2231C231.046 21.9438 230.974 17.2157 232.495 12.8879C232.691 12.3312 232.918 11.795 233.159 11.2685C233.219 11.1367 233.279 11.0057 233.342 10.8758C233.587 10.371 233.845 9.87641 234.128 9.40172C234.175 9.3239 234.227 9.25108 234.274 9.1741C234.52 8.77386 234.781 8.38548 235.054 8.00893C235.156 7.86756 235.258 7.72658 235.363 7.58856C235.673 7.18312 235.994 6.78861 236.333 6.41198C236.446 6.28596 236.566 6.16821 236.682 6.04545C236.942 5.77098 237.209 5.50479 237.484 5.24689C237.628 5.11112 237.772 4.97436 237.92 4.8434C237.958 4.8098 237.994 4.77313 238.032 4.73981C238.034 4.74227 238.035 4.74491 238.037 4.74733C241.435 1.78664 245.762 0.109982 250.267 0.00877152C254.773 -0.0924392 259.171 1.38819 262.698 4.19333L258.691 13.7292L265.904 7.4343C268.428 10.6504 269.859 14.589 269.987 18.6755C270.115 22.7619 268.934 26.7825 266.617 30.1506C266.623 30.1529 266.63 30.1547 266.637 30.157C266.558 30.2728 266.469 30.3787 266.388 30.4924C266.236 30.7058 266.08 30.9153 265.921 31.1211C265.716 31.385 265.503 31.64 265.286 31.8916C265.122 32.0814 264.96 32.2729 264.789 32.4555C264.539 32.7227 264.278 32.9757 264.014 33.2273C263.86 33.374 263.713 33.5282 263.555 33.6696C263.141 34.0399 262.712 34.3914 262.268 34.7238C262.113 34.8403 261.949 34.943 261.79 35.0545C261.479 35.2735 261.166 35.4892 260.843 35.689C260.643 35.8129 260.437 35.9262 260.232 36.0426C259.936 36.2114 259.637 36.3749 259.333 36.5277C259.117 36.6359 258.899 36.7387 258.679 36.8389C258.367 36.9814 258.05 37.1136 257.73 37.2394C257.515 37.3238 257.301 37.4092 257.084 37.4859C256.724 37.6125 256.36 37.7224 255.993 37.8276C255.808 37.8808 255.626 37.9417 255.439 37.9893C254.889 38.1296 254.333 38.249 253.77 38.3405C253.665 38.3578 253.557 38.3643 253.451 38.3797C252.984 38.4476 252.515 38.5024 252.043 38.5358C251.84 38.5501 251.635 38.5522 251.431 38.5602C251.049 38.575 250.667 38.5826 250.282 38.5744C250.058 38.5696 249.834 38.558 249.609 38.5453C249.235 38.5242 248.86 38.4915 248.485 38.4475C248.263 38.4218 248.042 38.3964 247.82 38.3628C247.418 38.3018 247.017 38.2221 246.616 38.1347C246.589 38.129 246.563 38.1255 246.537 38.1197C244.993 42.6369 243.42 47.1445 241.819 51.6424C243.772 49.8865 246.063 48.5481 248.551 47.7094C251.04 46.8707 253.673 46.5493 256.291 46.7651C258.908 46.9808 261.453 47.7291 263.771 48.9639C266.088 50.1988 268.129 51.8943 269.768 53.9462L263.1 61.3209L272.128 57.7167C274.321 62.3154 274.599 67.5967 272.9 72.4C272.311 74.0879 271.486 75.6838 270.45 77.1402C268.219 80.2955 265.092 82.7077 261.473 84.0639C257.855 85.4201 253.913 85.6577 250.157 84.7459C246.402 83.8342 243.008 81.815 240.414 78.9505C237.821 76.0859 236.148 72.5081 235.613 68.6812C235.443 69.1344 235.279 69.5933 235.109 70.046C233.346 74.7345 231.154 80.5693 226.75 84.7879C223.765 87.6472 220.092 89.4612 216.569 90.9949C214.274 91.9935 211.949 92.9167 209.594 93.7646C206.975 95.3524 204.016 96.2953 200.962 96.5155C197.245 97.548 193.482 98.4099 189.683 99.0754L187.314 99.4837C185.185 99.8484 183.003 100.224 180.836 100.656C181.148 100.749 181.46 100.837 181.771 100.946C185.631 102.305 188.959 104.856 191.274 108.23C193.589 111.604 194.772 115.627 194.651 119.718L179.801 124.276L193.238 126.409C192.009 129.43 190.034 132.091 187.498 134.141C184.962 136.192 181.948 137.567 178.736 138.137C175.525 138.707 172.222 138.453 169.135 137.4C166.048 136.347 163.279 134.529 161.085 132.116C161.221 132.573 161.358 133.029 161.496 133.485C161.769 134.39 162.039 135.29 162.299 136.182C165.835 148.332 164.313 157.889 158.014 163.092L154.595 158.954C160.726 153.889 158.824 143.452 157.146 137.681C156.891 136.806 156.624 135.921 156.356 135.032C154.053 127.381 151.443 118.709 154.824 110.74C159.92 98.7292 174.606 96.2143 186.408 94.1936Z" fill="#F2F2F2"/>
<path d="M182.054 164.652H78.0093C74.5973 164.652 71.3251 163.297 68.9125 160.884C66.4999 158.471 65.1445 155.199 65.1445 151.787V104.118C65.1445 103.426 65.2856 102.741 65.559 102.105C65.8324 101.469 66.2325 100.896 66.7349 100.419L121.869 48.1566C124.073 46.0671 126.995 44.9023 130.032 44.9023C133.069 44.9023 135.991 46.0671 138.195 48.1566L190.762 97.9863C192.075 99.2311 193.121 100.73 193.836 102.393C194.551 104.055 194.919 105.845 194.919 107.655V151.787C194.919 153.477 194.586 155.149 193.94 156.71C193.293 158.271 192.346 159.689 191.151 160.884C189.957 162.079 188.538 163.026 186.978 163.673C185.417 164.319 183.744 164.652 182.054 164.652Z" fill="#FFDA00"/>
<path opacity="0.1" d="M79.7168 61.6738V88.1059L99.3455 69.6835L107.583 61.6738H79.7168Z" fill="black"/>
<path opacity="0.1" d="M65.1445 104.9H193.838V156.883C193.838 158.944 193.019 160.919 191.562 162.376C190.106 163.833 188.13 164.652 186.07 164.652H72.9127C70.8524 164.652 68.8766 163.833 67.4198 162.376C65.963 160.919 65.1445 158.944 65.1445 156.883V104.9Z" fill="black"/>
<path d="M170.673 63.9395H89.1214C85.2121 63.9395 82.043 67.1086 82.043 71.018V152.571C82.043 156.48 85.2121 159.649 89.1214 159.649H170.673C174.583 159.649 177.752 156.48 177.752 152.571V71.018C177.752 67.1086 174.583 63.9395 170.673 63.9395Z" fill="white"/>
<path opacity="0.1" d="M177.752 107.049V159.649H82.043V107.049L129.897 130.179L177.752 107.049Z" fill="black"/>
<path d="M129.897 133.154L68.5802 103.517C68.201 103.334 67.7814 103.25 67.3608 103.273C66.9402 103.296 66.5323 103.426 66.1755 103.65C65.8187 103.874 65.5245 104.185 65.3206 104.553C65.1167 104.922 65.0098 105.336 65.0098 105.757V156.749C65.0098 157.769 65.2107 158.779 65.6011 159.721C65.9915 160.664 66.5637 161.52 67.285 162.242C68.0064 162.963 68.8627 163.535 69.8052 163.926C70.7477 164.316 71.7578 164.517 72.7779 164.517H187.016C188.036 164.517 189.047 164.316 189.989 163.926C190.931 163.535 191.788 162.963 192.509 162.242C193.23 161.52 193.803 160.664 194.193 159.721C194.583 158.779 194.784 157.769 194.784 156.749V106.631C194.784 106.117 194.654 105.611 194.405 105.161C194.156 104.712 193.797 104.332 193.362 104.059C192.926 103.786 192.429 103.628 191.916 103.6C191.402 103.571 190.89 103.674 190.427 103.898L129.897 133.154Z" fill="#FFDA00"/>
<path d="M117.055 72.7266H90.2891V76.5117H117.055V72.7266Z" fill="#888888"/>
<path d="M167.614 86.5156H88.127V88.6786H167.614V86.5156Z" fill="#888888"/>
<path d="M167.614 93.8145H88.127V95.9774H167.614V93.8145Z" fill="#888888"/>
<path d="M167.614 101.115H88.127V103.278H167.614V101.115Z" fill="#888888"/>
<path d="M16 165H273" stroke="#3F3D56" stroke-miterlimit="10"/>
<path d="M0 131.223C0 147.164 10.0004 160.063 22.3589 160.063L0 131.223Z" fill="#46455B"/>
<path d="M22.3594 160.065C22.3594 143.945 33.5192 130.9 47.3106 130.9L22.3594 160.065Z" fill="#FFDA00"/>
<path d="M8.10156 132.668C8.10156 147.81 14.4786 160.063 22.3594 160.063L8.10156 132.668Z" fill="#FFDA00"/>
<path d="M22.3594 160.064C22.3594 139.466 35.2584 122.799 51.1991 122.799L22.3594 160.064Z" fill="#46455B"/>
<path d="M17.6543 160.266C17.6543 160.266 20.8252 160.168 21.7808 159.488C22.7364 158.807 26.6584 157.995 26.8954 159.086C27.1325 160.178 31.6606 164.514 28.0808 164.543C24.5009 164.572 19.7627 163.985 18.8089 163.404C17.8551 162.823 17.6543 160.266 17.6543 160.266Z" fill="#A8A8A8"/>
<path opacity="0.2" d="M28.1446 164.165C24.5648 164.194 19.8266 163.607 18.8728 163.026C18.1464 162.584 17.857 160.996 17.7602 160.264C17.6931 160.267 17.6543 160.268 17.6543 160.268C17.6543 160.268 17.8551 162.825 18.8089 163.406C19.7627 163.987 24.5009 164.574 28.0808 164.545C29.1141 164.536 29.4711 164.169 29.4515 163.624C29.3079 163.953 28.9138 164.159 28.1446 164.165Z" fill="black"/>
<path d="M214.372 109.169C213.931 114.001 213.491 118.832 213.05 123.663C212.705 127.464 212.353 131.281 211.677 135.034C211.443 136.327 211.169 137.614 210.844 138.889C209.941 142.43 208.63 145.891 208.207 149.521C208.194 149.626 208.182 149.733 208.171 149.84C208.124 150.642 207.972 151.435 207.719 152.199C207.508 152.753 207.183 153.258 206.954 153.806C206.498 154.901 206.437 156.112 206.382 157.298C204.777 156.395 203.02 155.795 201.198 155.526C200.319 155.395 199.34 155.301 198.741 154.645C198.078 153.919 198.151 152.809 198.262 151.834C198.612 148.807 198.961 145.781 199.308 142.757C199.422 141.456 199.643 140.167 199.97 138.902C200.09 138.482 200.234 138.068 200.381 137.654C200.584 137.084 200.789 136.514 200.942 135.929C201.163 134.983 201.318 134.023 201.405 133.055C201.763 130.011 202.195 126.972 202.574 123.93L202.594 123.77C203.161 119.158 203.593 114.524 203.468 109.879C203.451 109.191 203.422 108.503 203.377 107.813C203.315 106.814 203.224 106.284 204.051 105.659C204.966 104.969 206.17 104.486 207.216 104.034C207.78 103.789 213.98 101.588 214.125 102.071C214.416 103.101 214.569 104.166 214.579 105.236C214.583 106.55 214.514 107.863 214.372 109.169Z" fill="#36508C"/>
<path opacity="0.1" d="M211.676 135.034C211.443 136.327 211.169 137.614 210.844 138.889C209.94 142.43 208.629 145.891 208.206 149.521C208.193 149.626 208.182 149.733 208.171 149.839C205.406 145.891 203.078 141.644 200.381 137.654C200.583 137.084 200.788 136.514 200.942 135.929C201.163 134.983 201.318 134.023 201.405 133.055C201.763 130.01 202.195 126.972 202.573 123.93L202.593 123.77C202.752 124.415 202.978 125.043 203.268 125.641C205.079 129.323 209.384 131.183 211.489 134.707C211.554 134.816 211.616 134.925 211.676 135.034Z" fill="black"/>
<path d="M189.247 102.664C189.338 105.616 189.811 108.542 190.282 111.458L191.255 117.475C191.788 120.768 192.343 124.128 193.901 127.078C195.067 129.284 196.746 131.166 198.265 133.146C202.001 138.012 204.807 143.524 208.348 148.533C209.378 149.989 210.849 151.563 212.606 151.259C213.759 151.06 214.597 150.1 215.503 149.36C216.572 148.487 217.86 147.848 218.701 146.755C219.541 145.661 219.706 143.842 218.567 143.064C218.155 142.836 217.717 142.657 217.263 142.531C215.497 141.859 214.354 140.134 213.627 138.391C212.9 136.647 212.459 134.772 211.49 133.15C209.385 129.627 205.08 127.766 203.268 124.084C202.253 122.021 202.156 119.644 202.078 117.346L201.881 111.489C201.859 110.849 201.842 110.183 202.102 109.597C202.796 108.038 204.888 107.893 206.583 107.696C208.506 107.47 210.37 106.882 212.074 105.963C213.05 105.436 214.004 104.764 214.526 103.785C215.002 102.892 215.068 101.845 215.124 100.835L215.711 90.2205C215.761 89.3073 215.807 88.3631 215.486 87.5071C214.677 85.3575 211.963 84.6551 209.669 84.7577C205.4 84.9485 201.459 86.785 197.434 88.0251C196.437 88.3396 195.425 88.6036 194.401 88.8162C193.498 88.9975 192.404 88.9222 191.543 89.2127C190.01 89.7293 190.049 93.0801 189.832 94.4701C189.383 97.1773 189.187 99.9203 189.247 102.664Z" fill="#36508C"/>
<path d="M212.026 151.704C212.402 152.084 212.526 152.64 212.624 153.166C213.167 156.081 213.45 159.039 213.469 162.005C213.444 162.281 213.499 162.559 213.628 162.805C213.734 162.952 213.877 163.068 214.044 163.14C215.132 163.658 216.394 162.936 217.301 162.141C218.982 160.669 220.404 158.693 220.499 156.461C220.482 155.886 220.502 155.31 220.56 154.738C220.707 153.897 221.198 153.165 221.63 152.43C222.366 151.177 222.96 149.847 223.4 148.463C223.565 147.943 223.675 147.288 223.268 146.925C223.123 146.812 222.959 146.727 222.783 146.673L217.869 144.848C217.443 144.69 216.383 147.413 216.215 147.71C215.803 148.438 215.394 148.852 214.569 149.02C213.726 149.191 212.723 148.945 211.937 149.365C210.607 150.077 211.273 150.945 212.026 151.704Z" fill="#AAA4A8"/>
<path d="M204.441 153.385C204.35 153.203 204.223 153.042 204.067 152.91C203.84 152.766 203.581 152.678 203.313 152.654C202.377 152.495 201.268 152.391 200.622 153.086C200.017 153.738 200.121 154.8 199.615 155.532C199.454 155.764 199.237 155.955 199.098 156.2C198.926 156.574 198.848 156.985 198.872 157.397C198.846 158.531 198.82 159.667 198.898 160.799C198.964 161.748 199.123 162.742 199.717 163.485C200.669 164.677 202.385 164.849 203.909 164.926L205.144 164.989C205.484 165.03 205.828 164.999 206.155 164.896C206.358 164.803 206.539 164.67 206.689 164.505C206.839 164.34 206.954 164.146 207.028 163.936C207.67 162.339 206.653 160.619 206.026 159.016C205.306 157.173 205.435 155.127 204.441 153.385Z" fill="#AAA4A8"/>
<path d="M195.766 44.5405C195.655 45.9918 192.779 46.0923 192.499 47.4939C192.078 49.6036 194.928 52.9361 195.923 54.5791C196.725 55.8909 197.698 56.9557 198.783 57.712C199.868 58.4683 201.045 58.9009 202.245 58.9848C202.598 59.0303 202.953 58.9735 203.29 58.8176C203.592 58.6396 203.863 58.3674 204.086 58.0199C204.835 56.9157 205.237 55.3858 205.398 53.8453C205.558 52.3047 205.496 50.7353 205.433 49.1796C205.433 48.858 205.393 48.5391 205.315 48.2385C205.213 47.9523 206.169 45.2051 205.999 45C206.637 45.5284 205.46 44.2737 205.999 45C206.953 43.9348 202.589 45.1309 202.389 44.7723C202.269 44.4651 202.191 44.126 202.16 43.7745L201.964 42.3112C201.929 41.8895 201.831 41.4843 201.677 41.1249C201.331 40.4406 200.67 40.3475 200.09 40.3141L197.965 40.1918C197.304 40.1537 196.433 39.8756 195.788 40.0661C195.186 40.244 195.386 41.0588 195.495 41.8008C195.654 42.6966 195.745 43.6154 195.766 44.5405Z" fill="#C0949B"/>
<path d="M199.5 27C195.634 27 193 29.8056 193 34.5C193 36.816 194.263 39.9669 195.5 41.5C196.771 43.0744 197.541 44 199.5 44C201.459 44 202.229 42.5744 203.5 41C204.737 39.4669 205.5 36.816 205.5 34.5C205.5 29.8056 203.366 27 199.5 27Z" fill="#BE9198"/>
<path d="M199.583 51.8231C199.345 51.1417 198.896 50.5538 198.302 50.1447C197.707 49.7356 196.998 49.5265 196.276 49.5477C196.07 49.5861 195.857 49.5591 195.667 49.4706C195.559 49.3879 195.473 49.2804 195.416 49.1572C194.99 48.3906 194.647 47.5804 194.394 46.7405C194.282 46.3694 194.129 45.9319 193.754 45.8355C193.598 45.8151 193.44 45.8374 193.296 45.8999C193.153 45.9625 193.029 46.0629 192.937 46.1904C192.759 46.4472 192.564 46.6921 192.354 46.9235C191.472 47.712 189.909 46.9934 188.973 47.7167C188.821 47.8348 188.694 47.9862 188.534 48.0937C188.373 48.1904 188.2 48.2647 188.019 48.3144C186.212 48.9044 184.44 49.5983 182.713 50.3926C183.335 54.1418 183.973 57.9562 185.433 61.4654C186.127 63.1354 186.914 64.7709 187.47 66.4919C188.702 70.305 188.757 74.385 188.771 78.3922C188.78 81.1348 188.766 83.936 187.879 86.5311C187.64 87.1046 187.472 87.705 187.378 88.319C187.324 88.9374 187.504 89.6193 188.005 89.9856C188.296 90.1756 188.628 90.2923 188.974 90.3257C190.511 90.5513 192.061 90.1421 193.575 89.7915C197.633 88.8518 201.771 88.3141 205.902 87.7778L212.823 86.8791C213.319 86.8454 213.804 86.7199 214.255 86.509C215.521 85.8155 215.642 83.9104 214.855 82.6995C214.478 82.1189 213.946 81.6427 213.629 81.0272C213.312 80.4117 213.285 79.551 213.831 79.1247C214.94 78.2576 214.609 76.6487 214.662 75.2416C214.81 71.3071 214.79 67.371 214.602 63.4335C214.547 62.6184 214.534 61.8009 214.563 60.9845C214.686 59.601 214.942 58.2325 215.326 56.8979L217.429 48.6171C216.88 47.7489 215.828 47.1981 214.832 46.948C213.835 46.6979 212.797 46.6243 211.816 46.3202C209.805 45.6972 208.015 44.1162 205.916 44.2635C205.757 44.2664 205.601 44.3045 205.459 44.3752C204.985 44.6435 205.06 45.3259 205.03 45.8693C204.963 47.0716 204.078 48.0765 203.102 48.781C202.125 49.4855 201.01 49.9992 200.113 50.8027C199.954 50.9224 199.824 51.0762 199.732 51.2528C199.641 51.4293 199.59 51.6242 199.583 51.8231Z" fill="#517AB7"/>
<path d="M171.805 59.6768C171.34 59.9785 170.846 60.2327 170.33 60.4356C169.825 60.5859 169.348 60.8174 168.917 61.1212C168.719 61.2928 168.553 61.4983 168.426 61.7281C168.189 62.149 168.069 62.6259 168.079 63.1089C168.089 63.592 168.228 64.0636 168.482 64.4744C168.736 64.8853 169.096 65.2204 169.524 65.4447C169.952 65.6689 170.433 65.7743 170.915 65.7496C171.556 65.6777 172.18 65.4919 172.756 65.2008L177.7 63.058C178.537 62.6953 179.442 62.2703 179.837 61.4484C179.883 61.3717 179.9 61.281 179.885 61.1929C179.845 61.0996 179.773 61.0238 179.682 60.9793C178.567 60.255 177.591 59.3352 176.803 58.2642C176.6 57.9888 176.352 57.3384 176.065 57.1732C175.018 56.5704 172.643 59.1331 171.805 59.6768Z" fill="#517AB7"/>
<path d="M224.667 57.9199L226.49 60.0025C226.882 60.4496 227.274 60.8972 227.63 61.3724C228.506 62.5798 229.209 63.9039 229.718 65.3061C230.115 66.346 230.444 67.4536 230.305 68.5578C230.213 69.1239 230.06 69.6784 229.849 70.2116C229.515 71.237 229.101 72.2346 228.61 73.1952C228.198 73.925 227.732 74.6233 227.216 75.2843C225.805 77.1551 224.26 78.9218 222.595 80.5706C221.972 81.1876 221.71 82.1852 221.439 83.0192C220.938 84.5575 219.748 85.7557 218.596 86.8918C218.226 87.2826 217.817 87.6345 217.375 87.9422C216.714 88.3683 215.941 88.5884 215.154 88.5748C214.81 88.5772 214.469 88.5066 214.154 88.3677C213.366 87.9935 212.965 87.0823 212.883 86.2138C212.81 85.4257 212.942 84.632 213.266 83.9101C214.313 81.5926 216.999 80.5884 218.898 78.8974C220.011 77.9059 220.863 76.6605 221.703 75.4285C222.273 74.6593 222.749 73.8245 223.121 72.942C223.545 71.8105 223.38 70.4709 223.751 69.3206C223.907 68.8344 224.186 68.3954 224.354 67.9132C224.523 67.4309 224.565 66.8585 224.27 66.4412C224.048 66.1759 223.765 65.9686 223.445 65.8368C222.232 65.2211 220.873 64.4288 220.641 63.0883C220.549 62.345 220.743 61.5943 221.184 60.9891C221.624 60.392 222.138 59.8533 222.714 59.3859C223.245 58.9168 224.137 58.3891 224.667 57.9199Z" fill="#517AB7"/>
<path d="M170.633 62.5848C170.311 61.9345 169.909 61.2711 169.259 60.9477C168.944 60.811 168.605 60.7397 168.261 60.7383C167.918 60.7369 167.578 60.8053 167.262 60.9394C166.632 61.2109 166.042 61.5675 165.509 61.9992L163.938 63.1576C163.581 63.3913 163.266 63.6823 163.005 64.0188C162.757 64.4269 162.592 64.8799 162.519 65.3519C162.245 66.4283 162.161 67.5443 162.272 68.6495C162.521 70.4216 163.59 71.9686 164.766 73.3175C165.5 74.1605 166.408 75.0111 167.525 75.047C168.008 75.0625 168.544 74.8724 168.745 74.4334C168.814 74.2593 168.851 74.074 168.854 73.8866C168.975 71.91 168.267 69.9793 167.443 68.1789C167.18 67.7075 167.025 67.1837 166.988 66.6452C166.982 66.5545 167.006 66.4644 167.055 66.3883C167.126 66.3143 167.221 66.2679 167.323 66.2573C168.452 66.0341 170.396 66.9108 171.187 65.6575C171.701 64.8451 170.998 63.3216 170.633 62.5848Z" fill="#C0949B"/>
<path d="M178.968 52.8586C178.685 53.0412 178.436 53.2725 178.234 53.5418C177.977 53.9304 177.925 54.4211 177.704 54.8314C177.231 55.7094 176.126 56.0218 175.437 56.7421C175.327 56.8411 175.251 56.9717 175.219 57.1158C175.216 57.3113 175.281 57.5018 175.404 57.6538L178.729 62.8804C179.836 62.9779 180.898 62.2844 182.005 62.3764C182.418 62.4108 182.842 62.5536 183.238 62.4314C183.522 62.3056 183.788 62.1428 184.029 61.9475C184.69 61.5297 185.57 61.4811 186.124 60.9299C186.656 60.401 186.724 59.5734 186.718 58.8232C186.727 58.1718 186.66 57.5215 186.52 56.8853C186.031 54.8791 184.496 53.3396 183.534 51.5625C183.066 50.6973 182.811 50.1908 181.82 50.7849C180.824 51.382 179.905 52.1729 178.968 52.8586Z" fill="#517AB7"/>
<path d="M219.345 50.2153C219.97 50.621 220.533 51.1144 221.018 51.6803C221.524 52.3334 221.811 53.1326 222.298 53.8007C222.769 54.4482 223.411 54.9497 223.946 55.546C224.757 56.4503 225.307 57.5535 225.846 58.642C224.528 60.3608 223.091 61.985 221.546 63.5024C221.374 63.7051 221.147 63.8541 220.893 63.9317C220.72 63.95 220.545 63.9253 220.384 63.8596C220.223 63.7939 220.08 63.6894 219.97 63.5553C219.73 63.3041 219.561 62.9944 219.332 62.7336C218.791 62.1762 218.071 61.828 217.299 61.7505C216.534 61.6765 215.763 61.6659 214.996 61.7188C214.828 61.7376 214.657 61.7089 214.504 61.6361C214.391 61.5576 214.298 61.4518 214.236 61.3283C213.336 59.7966 213.625 57.8736 213.943 56.1256L214.672 52.1146C214.777 51.3485 214.981 50.5993 215.278 49.8853C215.554 49.2955 216.171 48.2952 216.93 48.4718C217.695 48.6498 218.702 49.7523 219.345 50.2153Z" fill="#517AB7"/>
<path d="M85.9638 76.5522C92.0858 76.5522 97.0487 71.5803 97.0487 65.447C97.0487 59.3138 92.0858 54.3418 85.9638 54.3418C79.8418 54.3418 74.8789 59.3138 74.8789 65.447C74.8789 71.5803 79.8418 76.5522 85.9638 76.5522Z" fill="white"/>
<path d="M85.9627 52.4492C83.3425 52.4492 80.7812 53.2262 78.6026 54.6819C76.424 56.1376 74.726 58.2067 73.7233 60.6274C72.7206 63.0482 72.4582 65.7119 72.9694 68.2818C73.4806 70.8516 74.7423 73.2122 76.595 75.065C78.4478 76.9177 80.8083 78.1795 83.3782 78.6906C85.948 79.2018 88.6117 78.9395 91.0324 77.9368C93.4531 76.934 95.5222 75.236 96.9778 73.0574C98.4335 70.8788 99.2105 68.3174 99.2105 65.6972C99.2002 62.1868 97.8012 58.8231 95.319 56.3408C92.8367 53.8586 89.4731 52.4595 85.9627 52.4492ZM83.2431 72.7607L76.4535 65.9711L78.3579 64.0667L83.2494 68.9583L93.5738 58.6337L95.4782 60.5381L83.243 72.7607L83.2431 72.7607Z" fill="#46455B"/>
<mask id="mask0" mask-type="alpha" maskUnits="userSpaceOnUse" x="213" y="58" width="18" height="31">
<path d="M224.804 58L226.627 60.0826C227.018 60.5297 227.41 60.9773 227.767 61.4525C228.643 62.6599 229.346 63.984 229.855 65.3862C230.251 66.4261 230.58 67.5337 230.442 68.6379C230.35 69.204 230.197 69.7584 229.986 70.2916C229.652 71.3171 229.237 72.3147 228.747 73.2753C228.335 74.0051 227.869 74.7034 227.353 75.3644C225.941 77.2352 224.397 79.0019 222.731 80.6507C222.108 81.2677 221.847 82.2653 221.576 83.0993C221.075 84.6376 219.884 85.8358 218.733 86.9719C218.363 87.3627 217.954 87.7146 217.512 88.0223C216.851 88.4483 216.078 88.6685 215.291 88.6549C214.946 88.6573 214.605 88.5867 214.29 88.4478C213.502 88.0736 213.102 87.1624 213.02 86.2939C212.946 85.5058 213.078 84.7121 213.403 83.9902C214.449 81.6727 217.136 80.6684 219.035 78.9775C220.148 77.986 221 76.7405 221.839 75.5086C222.41 74.7394 222.886 73.9046 223.258 73.0221C223.682 71.8906 223.517 70.551 223.887 69.4007C224.044 68.9145 224.323 68.4755 224.491 67.9933C224.659 67.511 224.702 66.9385 224.407 66.5212C224.185 66.256 223.902 66.0486 223.582 65.9169C222.369 65.3012 221.01 64.5089 220.778 63.1684C220.685 62.4251 220.88 61.6744 221.321 61.0692C221.761 60.4721 222.275 59.9334 222.851 59.466C223.381 58.9968 224.273 58.4691 224.804 58Z" fill="#C0949B"/>
</mask>
<g mask="url(#mask0)">
<rect x="218.631" y="77.0156" width="7.10667" height="11.5427" transform="rotate(43.0153 218.631 77.0156)" fill="#C0949B"/>
</g>
<path opacity="0.56" d="M83 147C74.6 143.8 66.5 118 65 108.5V153C65 161.8 69.3333 164.333 71.5 164.5C105.333 164.167 173.2 163.5 174 163.5C159 163.5 82.5 147.5 83 147Z" fill="#ECCA01"/>
</g>
<defs>
<clipPath id="clip0">
<rect width="274" height="165" fill="white"/>
</clipPath>
</defs>
</svg>
