<?xml version="1.0" encoding="UTF-8"?>
<svg viewBox="0 0 363 164" xmlns="http://www.w3.org/2000/svg">
<circle transform="rotate(-90 3.3692 161.14)" cx="3.3692" cy="161.14" r="2.6973" fill="#FFDA00"/>
<circle transform="rotate(-90 3.3696 121.58)" cx="3.3696" cy="121.58" r="2.6973" fill="#FFDA00"/>
<circle transform="rotate(-90 3.3696 82.023)" cx="3.3696" cy="82.023" r="2.6973" fill="#FFDA00"/>
<circle transform="rotate(-90 3.3696 42.463)" cx="3.3696" cy="42.463" r="2.6973" fill="#FFDA00"/>
<circle transform="rotate(-90 3.3696 2.902)" cx="3.3696" cy="2.902" r="2.6973" fill="#FFDA00"/>
<circle transform="rotate(-90 42.93 161.14)" cx="42.93" cy="161.14" r="2.6973" fill="#FFDA00"/>
<circle transform="rotate(-90 42.93 121.58)" cx="42.93" cy="121.58" r="2.6973" fill="#FFDA00"/>
<circle transform="rotate(-90 42.93 82.023)" cx="42.93" cy="82.023" r="2.6973" fill="#FFDA00"/>
<circle transform="rotate(-90 42.93 42.463)" cx="42.93" cy="42.463" r="2.6973" fill="#FFDA00"/>
<circle transform="rotate(-90 42.93 2.902)" cx="42.93" cy="2.902" r="2.6973" fill="#FFDA00"/>
<circle transform="rotate(-90 82.491 161.14)" cx="82.491" cy="161.14" r="2.6973" fill="#FFDA00"/>
<circle transform="rotate(-90 82.491 121.58)" cx="82.491" cy="121.58" r="2.6973" fill="#FFDA00"/>
<circle transform="rotate(-90 82.491 82.023)" cx="82.491" cy="82.023" r="2.6973" fill="#FFDA00"/>
<circle transform="rotate(-90 82.491 42.463)" cx="82.491" cy="42.463" r="2.6973" fill="#FFDA00"/>
<circle transform="rotate(-90 82.491 2.902)" cx="82.491" cy="2.902" r="2.6973" fill="#FFDA00"/>
<circle transform="rotate(-90 122.05 161.14)" cx="122.05" cy="161.14" r="2.6973" fill="#FFDA00"/>
<circle transform="rotate(-90 122.05 121.58)" cx="122.05" cy="121.58" r="2.6973" fill="#FFDA00"/>
<circle transform="rotate(-90 122.05 82.023)" cx="122.05" cy="82.023" r="2.6973" fill="#FFDA00"/>
<circle transform="rotate(-90 122.05 42.463)" cx="122.05" cy="42.463" r="2.6973" fill="#FFDA00"/>
<circle transform="rotate(-90 122.05 2.902)" cx="122.05" cy="2.902" r="2.6973" fill="#FFDA00"/>
<circle transform="rotate(-90 161.61 161.14)" cx="161.61" cy="161.14" r="2.6973" fill="#FFDA00"/>
<circle transform="rotate(-90 161.61 121.58)" cx="161.61" cy="121.58" r="2.6973" fill="#FFDA00"/>
<circle transform="rotate(-90 161.61 82.023)" cx="161.61" cy="82.023" r="2.6973" fill="#FFDA00"/>
<circle transform="rotate(-90 161.61 42.463)" cx="161.61" cy="42.463" r="2.6973" fill="#FFDA00"/>
<circle transform="rotate(-90 161.61 2.902)" cx="161.61" cy="2.902" r="2.6973" fill="#FFDA00"/>
<circle transform="rotate(-90 201.17 161.14)" cx="201.17" cy="161.14" r="2.6973" fill="#FFDA00"/>
<circle transform="rotate(-90 201.17 121.58)" cx="201.17" cy="121.58" r="2.6973" fill="#FFDA00"/>
<circle transform="rotate(-90 201.17 82.023)" cx="201.17" cy="82.023" r="2.6973" fill="#FFDA00"/>
<circle transform="rotate(-90 201.17 42.463)" cx="201.17" cy="42.463" r="2.6973" fill="#FFDA00"/>
<circle transform="rotate(-90 201.17 2.902)" cx="201.17" cy="2.902" r="2.6973" fill="#FFDA00"/>
<circle transform="rotate(-90 240.73 161.14)" cx="240.73" cy="161.14" r="2.6973" fill="#FFDA00"/>
<circle transform="rotate(-90 240.73 121.58)" cx="240.73" cy="121.58" r="2.6973" fill="#FFDA00"/>
<circle transform="rotate(-90 240.73 82.023)" cx="240.73" cy="82.023" r="2.6973" fill="#FFDA00"/>
<circle transform="rotate(-90 240.73 42.463)" cx="240.73" cy="42.463" r="2.6973" fill="#FFDA00"/>
<circle transform="rotate(-90 240.73 2.902)" cx="240.73" cy="2.902" r="2.6973" fill="#FFDA00"/>
<circle transform="rotate(-90 280.29 161.14)" cx="280.29" cy="161.14" r="2.6973" fill="#FFDA00"/>
<circle transform="rotate(-90 280.29 121.58)" cx="280.29" cy="121.58" r="2.6973" fill="#FFDA00"/>
<circle transform="rotate(-90 280.29 82.023)" cx="280.29" cy="82.023" r="2.6973" fill="#FFDA00"/>
<circle transform="rotate(-90 280.29 42.463)" cx="280.29" cy="42.463" r="2.6973" fill="#FFDA00"/>
<circle transform="rotate(-90 280.29 2.902)" cx="280.29" cy="2.902" r="2.6973" fill="#FFDA00"/>
<circle transform="rotate(-90 319.86 161.14)" cx="319.86" cy="161.14" r="2.6973" fill="#FFDA00"/>
<circle transform="rotate(-90 319.86 121.58)" cx="319.86" cy="121.58" r="2.6973" fill="#FFDA00"/>
<circle transform="rotate(-90 319.86 82.023)" cx="319.86" cy="82.023" r="2.6973" fill="#FFDA00"/>
<circle transform="rotate(-90 319.86 42.463)" cx="319.86" cy="42.463" r="2.6973" fill="#FFDA00"/>
<circle transform="rotate(-90 319.86 2.902)" cx="319.86" cy="2.902" r="2.6973" fill="#FFDA00"/>
<circle transform="rotate(-90 359.42 161.14)" cx="359.42" cy="161.14" r="2.6973" fill="#FFDA00"/>
<circle transform="rotate(-90 359.42 121.58)" cx="359.42" cy="121.58" r="2.6973" fill="#FFDA00"/>
<circle transform="rotate(-90 359.42 82.023)" cx="359.42" cy="82.023" r="2.6973" fill="#FFDA00"/>
<circle transform="rotate(-90 359.42 42.463)" cx="359.42" cy="42.463" r="2.6973" fill="#FFDA00"/>
<circle transform="rotate(-90 359.42 2.902)" cx="359.42" cy="2.902" r="2.6973" fill="#FFDA00"/>
</svg>
