<?xml version="1.0" encoding="UTF-8"?>
<svg viewBox="0 0 65 65" xmlns="http://www.w3.org/2000/svg">
<path d="m53.893 65h-42.783c-6.1348 0-11.108-4.9727-11.108-11.108v-42.785c0-6.1344 4.9736-11.108 11.108-11.108h42.783c6.1349 0 11.108 4.9732 11.108 11.108v42.785c0 6.1349-4.9726 11.108-11.108 11.108z" clip-rule="evenodd" fill="#ECCA01" fill-rule="evenodd"/>
<path d="m11.912 53.442h8.7941v-27.884h-8.7941v27.884z" clip-rule="evenodd" fill="#FFFFFE" fill-rule="evenodd"/>
<path d="m21.454 16.58c0 2.8407-2.3028 5.1436-5.143 5.1436-2.8406 0-5.1435-2.3029-5.1435-5.1436 0-2.8406 2.3029-5.1435 5.1435-5.1435 2.8402 0 5.143 2.3029 5.143 5.1435z" clip-rule="evenodd" fill="#FFFFFE" fill-rule="evenodd"/>
<path d="m44.518 24.531c-5.9592 0-8.5 3.0843-9.2348 4.2222v-3.1948h-8.7941v27.884h8.7941v-16.463s0.7624-4.899 4.8984-4.899 4.8594 4.4973 4.8594 5.7623v15.72h8.7927v-16.584c0-5.3006-2.0073-12.448-9.3157-12.448z" clip-rule="evenodd" fill="#FFFFFE" fill-rule="evenodd"/>
<path d="m45.041 50.978c-3.3384-0.1366-6.5988-0.5697-9.7578-1.274v-12.725s0.7624-4.899 4.8984-4.899c4.1361 0 4.8594 4.4973 4.8594 5.7623v13.136zm8.7927-0.3331v-13.666c0-5.3006-2.0073-12.448-9.3157-12.448-5.9592 0-8.5 3.0844-9.2348 4.2223v-3.1948h-8.7941v21.39c-1.9879-0.8128-3.9186-1.7385-5.7822-2.7683v-18.622h-8.7941v12.582c-4.7052-3.95-8.7408-8.671-11.913-13.969v-11.823c0.059487-6.7783 5.5728-12.255 12.366-12.255h40.269c6.8287 0 12.365 5.5357 12.365 12.364v35.675c-3.5721 1.2073-7.3079 2.0592-11.166 2.5128zm-37.524-39.208c-2.8407 0-5.1435 2.3029-5.1435 5.1436s2.3028 5.1436 5.1435 5.1436c2.8401 0 5.143-2.3029 5.143-5.1436s-2.3029-5.1436-5.143-5.1436z" clip-rule="evenodd" fill="#FFDA00" fill-rule="evenodd"/>
<path d="m20.706 44.179c-3.1299-1.7303-6.0739-3.7558-8.7941-6.0392v-12.582h8.7941v18.622z" clip-rule="evenodd" fill="#FFFFFE" fill-rule="evenodd"/>
<path d="m16.31 21.724c-2.8406 0-5.1435-2.3029-5.1435-5.1436 0-2.8406 2.3029-5.1435 5.1435-5.1435 2.8402 0 5.143 2.3029 5.143 5.1435 0 2.8407-2.3028 5.1436-5.143 5.1436z" clip-rule="evenodd" fill="#FFFFFE" fill-rule="evenodd"/>
<path d="m47.331 51.025c-0.7671 0-1.5304-0.0157-2.2895-0.0466v-13.136c0-1.265-0.7234-5.7623-4.8594-5.7623s-4.8984 4.899-4.8984 4.899v12.725c-3.0329-0.6762-5.9725-1.6028-8.7941-2.756v-21.39h8.7941v3.1948c0.7348-1.1379 3.2756-4.2222 9.2348-4.2222 7.3084 0 9.3157 7.1476 9.3157 12.448v13.666c-2.133 0.2508-4.3026 0.3797-6.5032 0.3797z" clip-rule="evenodd" fill="#FFFFFE" fill-rule="evenodd"/>
</svg>
