<?xml version="1.0" encoding="UTF-8"?>
<svg viewBox="0 0 65 65" xmlns="http://www.w3.org/2000/svg">
<path d="M65 54.8239C65 60.444 60.444 65 54.8239 65H10.1761C4.55598 65 0 60.444 0 54.8239V13.229L13.229 0H54.8239C60.444 0 65 4.55598 65 10.1761V54.8239Z" fill="#FFDA00"/>
<path d="M0 20.3178V13.2285H7.05549L0 20.3178Z" fill="#B3B3B3" opacity=".2"/>
<path d="M0 13.229H8.81939C11.2446 13.229 13.229 11.2785 13.229 8.85323V0L0 13.229Z" fill="#ECCA01"/>
<path d="m10.894 43.721v-21.284h10.535c0.9999 0 1.8882 0.1636 2.6642 0.49 0.7757 0.3268 1.4189 0.781 1.9294 1.3628 0.5101 0.5818 0.8982 1.2761 1.1637 2.0824 0.2651 0.8067 0.398 1.6996 0.398 2.6795 0 0.98-0.1277 1.8988-0.3829 2.7561-0.2554 0.8575-0.6331 1.5978-1.1328 2.2203-0.5007 0.6229-1.1384 1.113-1.914 1.47-0.7762 0.3575-1.6844 0.5359-2.7257 0.5359h-7.0741v7.6866h-3.4604v-1e-4zm3.4606-18.099v7.1659h5.8798c1.3474 0 2.3322-0.301 2.9552-0.9034 0.6224-0.6019 0.9339-1.5465 0.9339-2.8328 0-1.2249-0.3319-2.1025-0.9952-2.6337-0.6636-0.5306-1.6283-0.7962-2.8939-0.7962h-5.8798v2e-4z" fill="#ECCA01"/>
<path d="m40.048 22.989 3.338-0.9188v18.129c0 0.3881 0.0198 0.7349 0.061 1.0412 0.0407 0.3062 0.092 0.5924 0.1531 0.8575 0.0815 0.245 0.1733 0.5054 0.2757 0.7809 0.1019 0.2756 0.2343 0.5565 0.3981 0.8422h-3.5217c-0.1225-0.2039-0.245-0.4795-0.3675-0.8268-0.0821-0.3676-0.1431-0.6939-0.1838-0.98-0.6124 0.6124-1.312 1.1283-2.0978 1.5465-0.7862 0.4182-1.6284 0.6278-2.5264 0.6278-1.0619 0-1.9957-0.1736-2.8021-0.5206-0.8067-0.3469-1.4852-0.8269-2.0365-1.4392-0.5511-0.6125-0.9645-1.3422-1.2402-2.1897-0.2756-0.8469-0.4134-1.7609-0.4134-2.7409v-1.4699c0-2.5925 0.6837-4.5424 2.0518-5.8491 1.3675-1.3064 3.3582-1.96 5.9715-1.96 1.0002 0 1.98 0.1943 2.94 0.5819l2e-4 -5.5123zm0 8.6053c-0.4494-0.2651-0.9647-0.4488-1.5466-0.5513-0.5818-0.1019-1.1284-0.153-1.6384-0.153-0.8167 0-1.5058 0.1124-2.0671 0.3367-0.5617 0.225-1.021 0.5412-1.3781 0.9494-0.3575 0.4086-0.6123 0.8986-0.7657 1.47-0.153 0.5717-0.2296 1.1944-0.2296 1.868v1.1331c0 0.5718 0.0407 1.1283 0.1225 1.6691 0.0813 0.5411 0.2398 1.0158 0.4747 1.4239 0.2343 0.4086 0.556 0.7401 0.9644 0.9952 0.4082 0.2555 0.9389 0.3828 1.5926 0.3828 0.4288 0 0.8521-0.0713 1.271-0.2144 0.4181-0.1426 0.8216-0.3315 1.2097-0.5664 0.3876-0.2346 0.7502-0.4949 1.0869-0.7811 0.3369-0.2856 0.6381-0.5818 0.9037-0.8879v-7.0741z" fill="#ECCA01"/>
<path d="m47.644 26.572c0-0.5713 0.0766-1.1278 0.2299-1.669 0.153-0.5406 0.3928-1.0206 0.7194-1.4393 0.3264-0.4181 0.7554-0.7551 1.2862-1.0105 0.5307-0.255 1.1636-0.3829 1.8988-0.3829 0.3469 0 0.7396 0.0359 1.1789 0.1072 0.439 0.0718 0.8216 0.1584 1.1485 0.2604v2.6336h-1.225c-0.6331 0-1.1076 0.1736-1.4238 0.5206-0.3167 0.3474-0.4747 0.8269-0.4747 1.4393v1.2556h2.9706l-0.8881 2.7561h-2.0824v12.678h-3.338v-12.678h-1.9292v-2.7561h1.9292v-1.715h-3e-4z" fill="#ECCA01"/>
<path d="m10.894 42.957v-21.284h10.535c0.9999 0 1.8882 0.1636 2.6642 0.49 0.7757 0.3268 1.4189 0.781 1.9294 1.3628 0.5101 0.5819 0.8982 1.2761 1.1637 2.0825 0.2651 0.8067 0.398 1.6995 0.398 2.6795 0 0.9799-0.1277 1.8987-0.3829 2.756-0.2554 0.8575-0.6331 1.5978-1.1328 2.2203-0.5007 0.6229-1.1384 1.1131-1.914 1.47-0.7762 0.3575-1.6844 0.5359-2.7257 0.5359h-7.0741v7.6866h-3.4604v-1e-4zm3.4606-18.099v7.1659h5.8798c1.3474 0 2.3322-0.301 2.9552-0.9034 0.6224-0.6019 0.9339-1.5465 0.9339-2.8328 0-1.2249-0.3319-2.1025-0.9952-2.6337-0.6636-0.5305-1.6283-0.7961-2.8939-0.7961h-5.8798v1e-4z" fill="#fff"/>
<path d="m40.048 22.226 3.338-0.9188v18.129c0 0.3881 0.0198 0.735 0.061 1.0413 0.0407 0.3061 0.092 0.5923 0.1531 0.8574 0.0815 0.245 0.1733 0.5054 0.2757 0.7809 0.1019 0.2757 0.2343 0.5565 0.3981 0.8422h-3.5217c-0.1225-0.2039-0.245-0.4795-0.3675-0.8268-0.0821-0.3676-0.1431-0.6939-0.1838-0.98-0.6124 0.6124-1.312 1.1283-2.0978 1.5466-0.7862 0.4181-1.6284 0.6277-2.5264 0.6277-1.0619 0-1.9957-0.1736-2.8021-0.5206-0.8067-0.3469-1.4852-0.8269-2.0365-1.4392-0.5511-0.6125-0.9645-1.3422-1.2402-2.1896-0.2756-0.847-0.4134-1.761-0.4134-2.741v-1.4699c0-2.5925 0.6837-4.5424 2.0518-5.8491 1.3675-1.3064 3.3582-1.9599 5.9715-1.9599 1.0002 0 1.98 0.1942 2.94 0.5818l2e-4 -5.5123zm0 8.6053c-0.4494-0.2651-0.9647-0.4488-1.5466-0.5513-0.5818-0.1019-1.1284-0.153-1.6384-0.153-0.8167 0-1.5058 0.1124-2.0671 0.3367-0.5617 0.225-1.021 0.5412-1.3781 0.9494-0.3575 0.4086-0.6123 0.8986-0.7657 1.47-0.153 0.5717-0.2296 1.1944-0.2296 1.868v1.1332c0 0.5717 0.0407 1.1282 0.1225 1.669 0.0813 0.5411 0.2398 1.0158 0.4747 1.4239 0.2343 0.4087 0.556 0.7401 0.9644 0.9952 0.4082 0.2555 0.9389 0.3829 1.5926 0.3829 0.4288 0 0.8521-0.0714 1.271-0.2145 0.4181-0.1426 0.8216-0.3315 1.2097-0.5664 0.3876-0.2346 0.7502-0.4948 1.0869-0.7811 0.3369-0.2856 0.6381-0.5818 0.9037-0.8879v-7.0741z" fill="#fff"/>
<path d="m47.644 25.809c0-0.5713 0.0766-1.1278 0.2299-1.669 0.153-0.5406 0.3928-1.0206 0.7194-1.4393 0.3264-0.4181 0.7554-0.7551 1.2862-1.0105 0.5307-0.255 1.1636-0.3829 1.8988-0.3829 0.3469 0 0.7396 0.0359 1.1789 0.1072 0.439 0.0718 0.8216 0.1584 1.1485 0.2604v2.6336h-1.225c-0.6331 0-1.1076 0.1736-1.4238 0.5206-0.3167 0.3474-0.4747 0.8269-0.4747 1.4393v1.2556h2.9706l-0.8881 2.7561h-2.0824v12.678h-3.338v-12.678h-1.9292v-2.7561h1.9292v-1.715h-3e-4z" fill="#fff"/>
</svg>
