<?xml version="1.0" encoding="UTF-8"?>
<svg viewBox="0 0 65 65" xmlns="http://www.w3.org/2000/svg">
<path d="M52.6613 65H12.3387C5.52426 65 0 59.4757 0 52.6612V12.3388C0 5.52382 5.52426 0 12.3387 0H52.6613C59.4757 0 65 5.52382 65 12.3388V52.6612C65 59.4757 59.4757 65 52.6613 65Z" clip-rule="evenodd" fill="#FFDA00" fill-rule="evenodd"/>
<path d="m7.4951 22.185 2.5013 3.2418s3.0106-2.3157 4.1688-2.4081c0.8486-0.0685 2.4595 2.6289 3.0568 4.1219 0.1851 0.4635 3.2423 11.117 5.0022 17.508 1.7598 6.3919 5.3729 9.3563 7.5497 9.3101 2.1772-0.0466 7.0866-0.5097 13.617-8.8004 0 0 8.6966-10.191 11.16-15.523 0.3084-0.6677 0.7529-1.2664 1.0313-1.9474 0.8971-2.1906 3.0448-6.1292 1.1841-12.189-0.0681-0.2213-0.1281-0.4445-0.188-0.6681-0.3155-1.1755-2.0945-5.4306-10.964-3.8097 0 0-7.3641 1.8066-9.5413 11.441 0 0 3.4736-1.0775 4.5853-0.7643 0 0 2.4318 0.3127 2.3276 2.8483 0 0-0.0695 3.7173-1.8413 6.2881 0 0-5.0022 9.7613-7.0171 6.9125 0 0-1.629-0.9651-3.931-13.576-0.2532-1.3863-0.4464-2.7855-0.5577-4.1904-0.1271-1.6028-0.603-4.4544-2.3377-6.6093-1.4448-1.7937-3.8371-2.5542-6.0606-1.9546-1.8974 0.5116-4.4768 1.809-7.316 4.9218-0.414 0.4545-0.8566 0.8824-1.3158 1.2917l-5.1141 4.5544z" clip-rule="evenodd" fill="#FFFFFE" fill-rule="evenodd"/>
<path d="m47.331 50.834c-2.9491 0-5.8454-0.2318-8.669-0.6777 1.4549-1.226 3.0387-2.8493 4.7305-4.997 0 0 8.6966-10.191 11.16-15.523 0.3084-0.6677 0.7529-1.2664 1.0313-1.9474 0.8971-2.1906 3.0448-6.1292 1.1841-12.189-0.0681-0.2213-0.1281-0.4445-0.188-0.6682-0.266-0.9913-1.5738-4.1732-7.2965-4.1732-1.0637 0-2.2782 0.1095-3.6678 0.3636 0 0-7.3641 1.8066-9.5413 11.441 0 0 2.6488-0.8214 4.0603-0.8214 0.2052 0 0.3841 0.0171 0.525 0.0571 0 0 2.4318 0.3126 2.3276 2.8483 0 0-0.0695 3.7173-1.8413 6.2881 0 0-3.8096 7.4327-6.1186 7.4336-0.337 0-0.6415-0.158-0.8985-0.5211 0 0-1.629-0.9651-3.931-13.576-0.2532-1.3863-0.4464-2.7855-0.5577-4.1904-0.1271-1.6028-0.603-4.4544-2.3377-6.6093-1.1174-1.3873-2.8016-2.1564-4.5362-2.1564-0.5083 0-1.0204 0.0662-1.5244 0.2018-1.8974 0.5116-4.4768 1.8089-7.316 4.9218-0.414 0.4545-0.8566 0.8824-1.3158 1.2916l-5.1141 4.5544 2.5013 3.2419s3.0105-2.3157 4.1688-2.4081c0.0105-9e-4 0.021-0.0014 0.0319-0.0014 0.8567 0 2.4352 2.6489 3.0249 4.1232 0.1851 0.4636 3.2423 11.117 5.0022 17.509 0.0161 0.0576 0.0318 0.1151 0.048 0.1722-9.2358-4.7224-16.964-11.974-22.273-20.841v-11.714-0.049c0.065198-6.7588 5.5642-12.218 12.338-12.218h40.323c6.7854 0 12.292 5.4772 12.338 12.252v0.0142 35.675c-5.5466 1.8755-11.489 2.8926-17.669 2.8926z" clip-rule="evenodd" fill="#ECCA01" fill-rule="evenodd"/>
<path d="m38.661 50.156c-5.816-0.919-11.328-2.747-16.389-5.3345-0.0162-0.0571-0.0319-0.1146-0.048-0.1722-1.7599-6.3914-4.8171-17.045-5.0022-17.509-0.5897-1.4743-2.1682-4.1232-3.0249-4.1232-0.0109 0-0.0214 5e-4 -0.0319 0.0014-1.1583 0.0924-4.1688 2.4081-4.1688 2.4081l-2.5013-3.2419 5.1141-4.5544c0.4592-0.4092 0.9018-0.8371 1.3158-1.2916 2.8392-3.1129 5.4186-4.4102 7.316-4.9218 0.504-0.1356 1.0161-0.2018 1.5244-0.2018 1.7346 0 3.4188 0.7691 4.5362 2.1564 1.7347 2.1549 2.2106 5.0065 2.3377 6.6093 0.1113 1.4049 0.3045 2.8041 0.5577 4.1904 2.302 12.611 3.931 13.576 3.931 13.576 0.257 0.3631 0.5615 0.5211 0.8985 0.5211 2.309-9e-4 6.1186-7.4336 6.1186-7.4336 1.7718-2.5709 1.8413-6.2881 1.8413-6.2881 0.1042-2.5357-2.3276-2.8483-2.3276-2.8483-0.1409-0.04-0.3198-0.0571-0.525-0.0571-1.4115 0-4.0603 0.8214-4.0603 0.8214 2.1772-9.6342 9.5413-11.441 9.5413-11.441 1.3896-0.2541 2.6041-0.3636 3.6678-0.3636 5.7227 0 7.0305 3.1819 7.2965 4.1732 0.0599 0.2237 0.1199 0.4469 0.188 0.6682 1.8607 6.0597-0.287 9.9983-1.1841 12.189-0.2784 0.681-0.7229 1.2797-1.0313 1.9474-2.4637 5.332-11.16 15.523-11.16 15.523-1.6918 2.1477-3.2756 3.771-4.7305 4.997z" clip-rule="evenodd" fill="#FFFFFE" fill-rule="evenodd"/>
</svg>
